<?xml version="1.0" encoding="UTF-8" standalone="no"?>
<!-- Created by ERK -->

<svg
   width="640"
   height="320"
   viewBox="0 0 640 320"
   version="1.1"
   id="svg38"
   sodipodi:docname="cgenie.svg"
   inkscape:version="1.1.1 (3bf5ae0d25, 2021-09-20)"
   xmlns:inkscape="http://www.inkscape.org/namespaces/inkscape"
   xmlns:sodipodi="http://sodipodi.sourceforge.net/DTD/sodipodi-0.dtd"
   xmlns="http://www.w3.org/2000/svg"
   xmlns:svg="http://www.w3.org/2000/svg">
  <defs
     id="defs42" />
  <sodipodi:namedview
     id="namedview40"
     pagecolor="#ffffff"
     bordercolor="#666666"
     borderopacity="1.0"
     inkscape:pageshadow="2"
     inkscape:pageopacity="0.0"
     inkscape:pagecheckerboard="0"
     showgrid="false"
     inkscape:zoom="1.6703125"
     inkscape:cx="320"
     inkscape:cy="160.14967"
     inkscape:window-width="1920"
     inkscape:window-height="1017"
     inkscape:window-x="1912"
     inkscape:window-y="-8"
     inkscape:window-maximized="1"
     inkscape:current-layer="svg38" />
  <g
     fill="none"
     stroke-width="2"
     id="g10">
    <path
       stroke="#5c5032"
       d="m619.991 61.745-600-.02"
       vector-effect="non-scaling-stroke"
       id="path2" />
    <path
       stroke="#03849a"
       d="M619.991 69.305c-.84-.04-1.53-.31-2.34-.31q-284.61-.02-569.22.03-20.99 0-28.45.15"
       vector-effect="non-scaling-stroke"
       id="path4" />
    <path
       stroke="#5c5032"
       d="M619.991 250.975h-600"
       vector-effect="non-scaling-stroke"
       id="path6" />
    <path
       stroke="#03849a"
       d="M619.991 258.305c-11.69-.52-23.31-.2-35-.21q-282.5-.29-565 .09"
       vector-effect="non-scaling-stroke"
       id="path8" />
  </g>
  <path
     d="M161.361 80.715q8.96.54 17.95.22c2.01-.08 3.65-1.34 5.82-1.22a2.5 2.49 1.7 0 1 2.35 2.49l.01 8.29a1.04.99 72 0 1-.39.81c-1.75 1.34-25.93.44-29.83.46a1.92 1.91-75.3 0 0-1.67.98q-17.93 31.96-35.23 64.18-1.77 3.29-3.87 6.49a1.46 1.46 0 0 0 1.2 2.26c2.92.05 6.15-.43 8.81-.43q29.87.06 59.82-.09a1.15 1.15 0 0 1 1.16 1.15v8.85a.7.71-9.1 0 1-.48.67c-3.01 1.05-6.42.17-8.66.17h-63.86q-2.19 0-6.86.76a1.43 1.43 0 0 1-.91-.15l-1.73-.95a.45.45 0 0 1-.14-.66q2.84-3.71 3.57-5.07c16-29.99 31.93-60.32 49.4-89.45a1.12 1.11-79.7 0 1 .76-.53q1.1-.21 1.91.44a1.57 1.54-23.5 0 0 .87.33"
     id="path12" />
  <path
     d="M140.291 143.885a.48.48 0 0 0 .43.27l45.78-.31a.98.98 0 0 1 .99.98v9.2a1.14 1.15.5 0 1-1.15 1.14c-19.15-.15-38.27-.61-57.42.07a1.39 1.39 0 0 1-1.33-1.93c.8-1.92 2.3-3.67 3.12-5.17q12.59-22.88 24.99-45.76a1.18 1.17-75.9 0 1 1.01-.61q11.52-.06 22.95.01c1.91.01 4.84-.92 7.39.17a.72.71-79 0 1 .44.66v9.08a.99.99 0 0 1-1 .99l-28.41-.34a2 1.98 15.4 0 0-1.73.97l-4.56 7.77a1.18 1.17 14.8 0 0 1.03 1.77l33.66-.57a.97.97 0 0 1 .99.96l.04 8.71a1.46 1.47.2 0 1-1.47 1.47l-39.7-.25a1.25 1.24 15 0 0-1.08.62l-5.14 8.63a1.1 1.09 48 0 0-.05 1.03zm169.45-6.64a.34.33 13.8 0 0-.3-.49l-9.16-.01a.77.77 0 0 1-.77-.77l-.02-9.44a1.2 1.19 0 0 1 1.21-1.2l20.75.2a.9.9 0 0 1 .88.77c2.13 15.55-6.53 28.96-22.03 32.52-18.18 4.18-36.07-9.18-35.65-28.13.64-28.84 37.3-38.42 52.91-14.78q.86 1.29.23 2.94a1.57 1.49-7.8 0 1-.59.74q-2.76 1.8-5.53 3.58c-3.14 2.02-6.57-3.94-9.05-5.55q-11.95-7.78-22.07 2.94c-16.37 17.33 15.56 41.93 29.19 16.68m-80.01-11.45 19.51-.07a1.75 1.76-.2 0 1 1.76 1.76l-.02 7.65a1.63 1.62.2 0 1-1.63 1.61h-19.49a.62.62 0 0 0-.62.62v9.26a.63.62 0 0 0 .63.62h27.2a1.15 1.15 0 0 1 1.15 1.14l.04 8.31a1.53 1.54 0 0 1-1.53 1.54h-37.93q-2.02 0-2.43-1.98-.16-.77-.13-2.83.35-23.66.12-46.74a1.66 1.66 0 0 1 1.66-1.68l39.19-.01a1.03 1.03 0 0 1 1.03 1.03l.01 8.69a1.29 1.28 0 0 1-1.29 1.28l-27.24-.02a.48.48 0 0 0-.48.48v8.85a.49.49 0 0 0 .49.49m115.4 21.48 22.56-.04a1.02 1.02 0 0 1 1.03 1.02l.03 8.57a1.4 1.4 0 0 1-1.4 1.4l-34.63.02a1.45 1.45 0 0 1-1.46-1.45c-.06-10.53-.68-16.37 8.92-22.36 3.92-2.44 17.45-8.9 15.87-14.64q-.61-2.23-2.9-3.03-7.21-2.53-9.21 4.27a1.89 1.89 0 0 1-2.17 1.33c-2.69-.51-12.07-.88-10.08-5.41q6.09-13.89 22.04-11.69c9.53 1.32 16.44 8 15.07 17.93-.91 6.59-4.39 9.83-10.34 13.45q-7.09 4.31-13.8 9.22a.78.78 0 0 0 .47 1.41m33.38-28.27c.44-6.2 8.08-11.9 13.67-13.3 10.29-2.6 27.21 1.8 27.29 15.37q.06 11.21 0 22.42c-.04 7.43-9.29 13.22-15.67 14.37-11.4 2.05-24.75-3.13-25.31-16.31q-.59-13.92.02-22.55m28.7 4.93a7.83 7.83 0 0 0-7.83-7.83h-.82a7.83 7.83 0 0 0-7.83 7.83v15.22a7.83 7.83 0 0 0 7.83 7.83h.82a7.83 7.83 0 0 0 7.83-7.83zm26.4-11.82q8.38-8.95 20.87-6.85c9.39 1.59 16.93 7.2 16.81 17.08-.08 7.42 1.75 21.43-2.64 27.37-5.62 7.62-14.87 9.91-24.29 7.81-7.81-1.74-14.29-7.8-14.18-16.25.1-7.79-2.01-23.35 3.43-29.16m25.14 11.69c.01-10.58-16.29-9.01-16.27-1.3q.02 8.3 0 16.65c-.03 10.25 16.25 10.53 16.26.23q0-7.77.01-15.58m63.43 23.96c-7.6 15.84-39.62 13.7-39.68-6.48q-.03-11.01 0-22.04c.02-6.45 8.7-12.25 13.95-13.57 10.75-2.7 26.97 2.12 27.02 15.82.02 6.72 1.5 20.48-1.29 26.27m-10.936-23.816a7.83 7.83 0 0 0-7.817-7.843l-.84-.001a7.83 7.83 0 0 0-7.843 7.816l-.027 15.22a7.83 7.83 0 0 0 7.816 7.844h.84a7.83 7.83 0 0 0 7.844-7.816z"
     id="path14" />
  <g
     fill="#00a05d"
     transform="translate(19.991 10.495)"
     id="g22">
    <path
       d="m0 51.23 600 .02v7.56c-.84-.04-1.53-.31-2.34-.31q-284.61-.02-569.22.03-20.99 0-28.45.15zm504 120.23s-.05-.087 1.4-.3 5.5-.213 6.95 0 1.4.3 1.4.3c1.25.82.76 8.8.75 10.58a.72.72 0 0 1-.72.71h-9.77a.72.72 0 0 1-.72-.71c-.04-1.77-.55-9.76.71-10.58m-330.78 23.8c11.82-19.71 44.01-11.92 41.53 13.5-2.02 20.61-28.58 25.41-39.94 10.64-5.11-6.64-5.94-16.88-1.59-24.14m26.243 3.371a9.41 9.41 0 0 0-13.306-.209l-1.134 1.1a9.41 9.41 0 0 0-.21 13.306l1.184 1.22a9.41 9.41 0 0 0 13.306.21l1.134-1.1a9.41 9.41 0 0 0 .21-13.306z"
       id="path16" />
    <rect
       width="11.26"
       height="42.48"
       x="503.25"
       y="184.27"
       rx="1.44"
       id="rect18" />
    <path
       d="M0 240.48h600v7.33c-11.69-.52-23.31-.2-35-.21q-282.5-.29-565 .09Z"
       id="path20" />
  </g>
  <path
     fill="#0567d7"
     d="M619.991 69.305v7c-154.84.27-309.69-.27-464.53.2q-67.74.21-135.47-.33l-.01-7q7.46-.15 28.45-.15 284.61-.05 569.22-.03c.81 0 1.5.27 2.34.31M385.929 181.838c5.888-.018 17.17 1.702 24.772 13.817a2.215 2.215 0 0 1-.72 3.06l-6.4 3.96a1.88 1.88 0 0 1-2.38-.34c-1.87-2.05-3.89-4.59-6.31-5.97q-13.419-7.64-22.92 4.91c-10.34 13.66 7.36 32.18 22.14 23.87q5.63-3.16 8.14-8.51a.645.645 0 0 0-.6-.92l-8.45.11a.93.93 0 0 1-.94-.93l-.03-9.49a.91.91 0 0 1 .91-.91h21.07c.438 0 .811.323.88.76 3.05 19.97-12.31 34.81-31.98 33.01-38.105-3.492-30.418-56.326 2.818-56.427m-284.998 37.117c3.05 1.77 9.04 4.14 5.46 8.69-17.54 22.3-54.67 9.78-51.86-19.7 1.39-14.61 12.62-24.76 27.1-25.53q15.44-.82 25.66 13.09a2.74 2.73 53.5 0 1-.56 3.81c-2.6 1.94-6.89 6-9.86 2.24-9.26-11.74-25.39-8.89-30.24 4.93-4.12 11.73 8.85 24.05 20.35 20.69q6.6-1.93 10.46-7.45a2.65 2.65 0 0 1 3.49-.77m180.54 17.37a1.23 1.24-4.4 0 1-1.03 1.21q-3.76.66-7.98.07-2.29-.32-4.39.14c-10.07 2.21-19.78-1.62-23.54-11.32q-1.33-3.43-1.3-10.04.03-10.26 0-20.59a1.04 1.04 0 0 1 1.05-1.04l9.53.05a.63.63 0 0 1 .62.63l.1 17.4c.03 6.16-.4 10.63 4.71 13.44 5.82 3.2 10.4-2.41 10.7-7.77q.61-10.91.14-22.66a.96.96 0 0 1 .95-1l8.94-.13a1.49 1.49 0 0 1 1.51 1.5zm338.52 21.98v7.17l-600-.04v-7.25q282.5-.38 565-.09c11.69.01 23.31-.31 35 .21"
     id="path24" />
  <g
     fill="#b70006"
     id="g30">
    <path
       d="M619.991 54.545v7.2l-600-.02v-7.2zm-504.95 157.6c4.57-25.68 45.23-21.75 44.18 4.88-1.23 31.17-49.88 27.06-44.18-4.88m29.657 11.367a9.42 9.42 0 0 0-.024-13.322l-1.175-1.171a9.42 9.42 0 0 0-13.322.023l-1.172 1.176a9.42 9.42 0 0 0 .023 13.322l1.176 1.171a9.42 9.42 0 0 0 13.322-.023zm159.083-27.477q3.87-1.55 8.07-1.16a1.51 1.52 2.1 0 1 1.38 1.49q.04 3.47-.01 7.33c-.03 2.14-.98 2.11-2.71 2.31-6.12.68-7.49 5.4-7.51 11.09q-.02 9.68-.02 19.14a.99.99 0 0 1-1 1l-9.52-.05a.73.72.4 0 1-.72-.72v-40.72a.75.75 0 0 1 .75-.75h9.42a1.02 1 73.1 0 1 .84.46l.18.3a.7.7 0 0 0 .85.28m135.77 30.73c5.62 1.79 11.05-2.42 13.34-7.23a1.31 1.32 2 0 1 .68-.64q2.32-.94 3.66 1.11c1.16 1.78 4.76 6.3 4.2 8.28-1.23 4.41-9.28 8.77-13.1 9.52-13.34 2.62-26.16-4.37-27.78-18.21-2.94-25.19 29.58-34.03 42.08-13.35.77 1.29.76 2.64.48 4.02a1.29 1.27-10.9 0 1-.55.8l-23.13 14.84a.48.48 0 0 0 .12.86m6.77-19.51c-6.63-3.5-13.22 3.36-14.57 9.4a.26.26 0 0 0 .4.27l14.19-9.18a.28.28 0 0 0-.02-.49m115.81 19.22c5.15 2.75 11.37-2.49 13.2-6.95a.98.98 0 0 1 .81-.61l2-.2a1.02 1.01-20.4 0 1 .93.42c2.07 2.86 6.83 7.81 3.89 11.31q-6.03 7.15-15.44 7.93c-30.74 2.54-32.87-41.97-3.95-43.57 11.93-.66 16.33 4.38 22.93 13.02a1.86 1.85-35 0 1-.48 2.69l-23.91 15.3a.38.38 0 0 0 .02.66m6.79-19.49c-7.04-2.04-13.31 2.66-14.41 9.66a.22.22 0 0 0 .34.22l14.17-9.18a.39.39 0 0 0-.1-.7"
       id="path26" />
    <path
       d="M619.991 243.735v7.24h-600v-7.29c118-.21 236-.05 354-.19q123-.15 246 .24"
       id="path28" />
  </g>
  <g
     fill="#d1c544"
     transform="translate(19.991 10.495)"
     id="g36">
    <rect
       width="11.24"
       height="55.48"
       x="149.01"
       y="171.78"
       rx="1.46"
       id="rect32" />
    <path
       d="M453.26 186.29a.69.68 87.8 0 1 .63-.69c4.48-.33 9.44.76 13.67-.29 8.97-2.24 18.42 2.11 22.29 10.43q1.42 3.05 1.54 8.25.25 11.01.05 22.06a1.22 1.22 0 0 1-1.22 1.2l-8.47.01a1.79 1.78-88.5 0 1-1.78-1.88c.31-5.55 1.56-21.54-1.74-25.7-3.55-4.49-9.82-3.94-12.52 1.01-2.48 4.55-1.26 19.31-1.13 25.42a1.13 1.13 0 0 1-1.13 1.15l-9.17-.01a1.03 1.03 0 0 1-1.03-1.03z"
       id="path34" />
  </g>
  <path
     style="fill:#020000;fill-opacity:0.29411802;stroke-width:0.59869"
     d="m 106.08397,175.96428 c -1.01692,-0.60684 -0.98796,-0.76823 0.48433,-2.69849 0.86126,-1.12917 5.63027,-9.66104 10.5978,-18.95969 14.04016,-26.28164 25.37131,-46.85834 33.54205,-60.910403 l 7.48448,-12.871843 2.62492,0.299345 c 4.12129,0.469992 19.70824,0.282412 22.59197,-0.271881 1.99588,-0.383636 2.72871,-0.305394 3.13396,0.334597 0.45589,0.719972 0.81216,9.895189 0.39759,10.239229 -0.0823,0.06831 -7.15435,0.270373 -15.71563,0.449018 l -15.56595,0.324809 -6.48583,11.674459 c -3.56721,6.42096 -11.47391,20.83443 -17.57044,32.02994 -6.09653,11.19551 -12.15452,22.18523 -13.46219,24.4216 -1.30767,2.23637 -2.2694,4.39068 -2.13717,4.78737 0.18388,0.55161 8.53624,0.72175 35.51398,0.7234 l 35.27355,0.002 0.17389,4.93919 c 0.13065,3.71107 -0.0182,4.94794 -0.59869,4.97434 -0.42492,0.0193 -17.88015,0.0949 -38.78942,0.16798 -20.90926,0.0731 -38.55565,0.32577 -39.21421,0.56158 -0.65856,0.2358 -1.68411,0.13829 -2.27899,-0.2167 z"
     id="path970" />
  <path
     style="fill:#ffffff;fill-opacity:0.29411802;stroke-width:0.59869"
     d="m 106.08397,175.96428 c -1.01692,-0.60684 -0.98796,-0.76823 0.48433,-2.69849 0.86126,-1.12917 5.63027,-9.66104 10.5978,-18.95969 14.04016,-26.28164 25.37131,-46.85834 33.54205,-60.910403 l 7.48448,-12.871843 2.62492,0.299345 c 4.12129,0.469992 19.70824,0.282412 22.59197,-0.271881 1.99588,-0.383636 2.72871,-0.305394 3.13396,0.334597 0.45589,0.719972 0.81216,9.895189 0.39759,10.239229 -0.0823,0.06831 -7.15435,0.270373 -15.71563,0.449018 l -15.56595,0.324809 -6.48583,11.674459 c -3.56721,6.42096 -11.47391,20.83443 -17.57044,32.02994 -6.09653,11.19551 -12.15452,22.18523 -13.46219,24.4216 -1.30767,2.23637 -2.2694,4.39068 -2.13717,4.78737 0.18388,0.55161 8.53624,0.72175 35.51398,0.7234 l 35.27355,0.002 0.17389,4.93919 c 0.13065,3.71107 -0.0182,4.94794 -0.59869,4.97434 -0.42492,0.0193 -17.88015,0.0949 -38.78942,0.16798 -20.90926,0.0731 -38.55565,0.32577 -39.21421,0.56158 -0.65856,0.2358 -1.68411,0.13829 -2.27899,-0.2167 z"
     id="path2008" />
  <path
     style="fill:#ffffff;fill-opacity:0.294118;stroke-width:0.59869"
     d="m 106.0496,175.54799 c -0.18029,-0.29171 0.34353,-1.51832 1.16404,-2.72581 0.8205,-1.20749 1.28006,-2.19955 1.02123,-2.20459 -0.25883,-0.005 -0.16545,-0.2071 0.20752,-0.44902 0.37296,-0.24192 6.80974,-11.7551 14.30394,-25.58485 13.73858,-25.35308 23.99428,-43.796 31.34734,-56.37221 l 3.996,-6.834511 14.12455,-0.144341 14.12454,-0.144341 0.37352,4.418779 c 0.20544,2.430328 0.24529,4.626272 0.0886,4.879875 -0.23223,0.375744 -29.58981,1.643006 -30.94357,1.335724 -0.22051,-0.05005 -1.19326,1.316189 -2.16169,3.036089 -3.64271,6.469376 -35.33844,64.302806 -36.60767,66.795986 -1.92587,3.783 -1.45197,4.38002 3.39519,4.27731 2.22447,-0.0471 17.9865,-0.0653 35.02672,-0.0403 l 30.98223,0.0454 v 4.78952 4.78953 l -34.27502,0.0325 c -18.85127,0.0178 -36.87707,0.16681 -40.05733,0.33105 -3.18027,0.16423 -5.92981,0.0599 -6.1101,-0.23179 z"
     id="path2565" />
  <path
     style="fill:#ffffff;fill-opacity:0.294118;stroke-width:0.59869"
     d="m 128.02319,154.30521 c -0.15532,-0.25094 0.6111,-2.0021 1.70315,-3.89149 1.09204,-1.88938 7.5166,-13.53814 14.27679,-25.88612 l 12.29125,-22.45089 h 15.24851 15.2485 v 5.08887 5.08886 l -14.66791,-0.18541 c -8.06735,-0.10197 -14.96035,0.0327 -15.31778,0.29935 -0.35742,0.26661 -1.79919,2.46449 -3.20394,4.88418 -1.92782,3.32068 -2.38488,4.56848 -1.86402,5.08887 0.49923,0.49878 5.48286,0.62851 18.02153,0.46912 l 17.33147,-0.22032 v 5.15952 5.15951 h -20.89726 -20.89727 l -2.751,4.69247 c -1.51306,2.58086 -2.75101,5.14026 -2.75101,5.68756 0,0.91088 2.00319,0.99509 23.67158,0.99509 h 23.67158 l -0.17299,5.23854 -0.17298,5.23854 h -29.2429 c -16.0836,0 -29.36998,-0.20531 -29.5253,-0.45625 z"
     id="path2604" />
  <path
     style="fill:#ffffff;fill-opacity:0.294118;stroke-width:0.59869"
     d="m 217.40039,157.14648 c -0.80385,-0.80384 -0.9204,-4.12514 -0.89631,-25.54058 0.0152,-13.53912 0.16756,-24.98104 0.33849,-25.42649 0.25277,-0.6587 4.099,-0.80991 20.60221,-0.80991 h 20.29142 v 5.08887 5.08887 h -14.39188 -14.39187 l 0.17298,5.23854 0.17298,5.23854 9.87839,0.0433 c 5.43312,0.0238 10.22605,0.0912 10.65097,0.14967 0.5762,0.0793 0.72837,1.36186 0.59869,5.04558 l -0.17389,4.9392 -10.62675,0.16348 -10.62676,0.16349 v 5.36357 5.36356 l 14.2189,0.16051 14.2189,0.1605 v 5.08887 5.08887 l -19.55623,0.15779 c -16.97096,0.13693 -19.67838,0.0356 -20.48024,-0.76622 z"
     id="path2643" />
  <path
     style="fill:#ffffff;fill-opacity:0.294118;stroke-width:0.59869"
     d="m 288.56876,158.85495 c -7.14647,-1.5386 -14.13311,-5.84318 -17.99206,-11.08519 -11.89455,-16.1576 -3.82882,-38.81197 15.62217,-43.87831 10.06398,-2.62133 19.25941,0.0282 27.06586,7.79877 5.59239,5.56664 5.67727,6.55043 0.81972,9.50123 -1.93643,1.17632 -3.8423,2.13877 -4.23527,2.13877 -0.39298,0 -2.25596,-1.47031 -4.13997,-3.26735 -4.46061,-4.25471 -7.64616,-5.68671 -12.65028,-5.68671 -5.00566,0 -8.07707,1.38709 -12.19938,5.5094 -3.88769,3.88769 -5.48243,7.95619 -4.98974,12.72983 1.19258,11.55505 15.08189,19.20912 25.27144,13.9265 2.92599,-1.51693 5.70921,-4.06066 7.6925,-7.03057 1.7593,-2.63449 1.36392,-2.94828 -3.95068,-3.13538 l -4.9392,-0.17388 v -5.08887 -5.08887 l 10.73229,-0.16391 c 8.18547,-0.12502 10.84715,0.017 11.21628,0.59869 1.49537,2.35621 -0.13749,12.58986 -2.86883,17.97991 -2.0321,4.01014 -7.5868,9.4423 -11.68629,11.42846 -5.8287,2.82395 -13.70495,4.07765 -18.76856,2.98748 z"
     id="path2682" />
  <path
     style="fill:#ffffff;fill-opacity:0.294118;stroke-width:0.59869"
     d="m 331.60523,156.49485 c -0.21768,-0.8673 -0.21739,-3.89764 6.3e-4,-6.73408 0.66712,-8.67893 2.78083,-11.51956 13.06224,-17.55445 8.25631,-4.84622 11.85201,-8.4181 11.85201,-11.7735 0,-1.9124 -1.93581,-3.71245 -4.64766,-4.32171 -3.57043,-0.80217 -6.33002,0.4183 -7.77099,3.43681 -1.06587,2.23275 -1.15786,2.28126 -3.98056,2.09905 -3.69841,-0.23874 -6.96105,-1.3352 -7.7538,-2.60578 -1.70263,-2.72891 4.53137,-10.33599 10.24025,-12.49574 7.33553,-2.77514 17.91129,-0.4972 22.48179,4.8424 4.36523,5.09978 4.54251,13.32494 0.41222,19.1254 -0.67193,0.94363 -5.7964,4.75881 -11.38772,8.47815 -5.59131,3.71935 -10.16603,7.09977 -10.16603,7.51205 0,0.57031 2.89953,0.78835 12.12348,0.91166 l 12.12348,0.16206 v 5.08887 5.08887 l -18.09677,0.15843 -18.09678,0.15843 z"
     id="path2721" />
  <path
     style="fill:#ffffff;fill-opacity:0.294118;stroke-width:0.59869"
     d="m 392.55972,157.15955 c -5.83078,-1.64005 -9.28515,-4.20821 -11.82321,-8.78998 l -1.76551,-3.18716 -0.19955,-13.32815 c -0.18895,-12.61998 -0.13142,-13.46888 1.08269,-15.9769 1.62593,-3.35873 5.21371,-6.61071 9.52209,-8.63086 2.95906,-1.38747 4.08633,-1.57295 9.35155,-1.53863 7.00853,0.0457 11.13963,1.35685 15.18509,4.81962 4.77918,4.0908 5.12871,5.37698 5.36358,19.73679 0.25567,15.63061 0.0177,16.72457 -4.62771,21.27075 -5.61527,5.49538 -14.50265,7.75837 -22.08902,5.62452 z m 10.36502,-10.74373 c 1.13469,-0.4741 2.61618,-1.7538 3.29221,-2.84378 1.13813,-1.83505 1.21666,-2.7678 1.06081,-12.59851 l -0.16831,-10.61675 -1.84876,-1.84725 c -2.99976,-2.99732 -8.55376,-3.47735 -11.64925,-1.00683 -2.73287,2.1811 -2.96598,3.2636 -2.96598,13.77343 0,7.92432 0.19786,10.45686 0.9271,11.86707 1.91709,3.70724 6.88462,5.13929 11.35218,3.27262 z"
     id="path2760" />
  <path
     style="fill:#ffffff;fill-opacity:0.294118;stroke-width:0.59869"
     d="m 444.82694,157.24891 c -4.17056,-1.08666 -7.40337,-2.89073 -9.99883,-5.57985 -3.61863,-3.74921 -4.17307,-5.82914 -4.52194,-16.96373 -0.34776,-11.09907 0.36833,-17.12704 2.43451,-20.49349 1.87149,-3.04922 5.87033,-6.16164 9.85051,-7.66694 4.91408,-1.85851 12.69311,-1.45873 18.00553,0.92534 4.52824,2.03216 8.57161,6.23305 9.62681,10.00187 0.42376,1.51353 0.77023,7.17784 0.83503,13.65184 0.0899,8.97838 -0.0821,11.68716 -0.912,14.36414 -2.73061,8.80812 -14.92063,14.47032 -25.31962,11.76082 z m 9.49776,-10.79657 c 1.08661,-0.45401 2.55972,-1.56799 3.27356,-2.4755 1.21856,-1.54914 1.2979,-2.28738 1.2979,-12.07608 0,-11.53033 -0.40369,-13.20798 -3.57254,-14.84666 -3.94023,-2.03757 -10.61776,-0.55509 -12.31912,2.73497 -1.37269,2.65448 -1.23695,20.48538 0.17697,23.24715 1.8968,3.70496 6.83137,5.21773 11.14323,3.41612 z"
     id="path2799" />
  <path
     style="fill:#ffffff;fill-opacity:0.294118;stroke-width:0.59869"
     d="m 496.75145,157.16456 c -5.89225,-1.65826 -10.00159,-4.64322 -12.29654,-8.93201 -1.21519,-2.27092 -1.32598,-3.41957 -1.50459,-15.59823 -0.10604,-7.23073 -0.0302,-14.01369 0.16861,-15.07324 0.55825,-2.97571 5.17215,-7.66004 9.77894,-9.92818 10.36108,-5.10127 24.19143,-1.35901 28.6595,7.75477 l 1.69253,3.45237 0.003,12.87184 c 0.003,12.27878 -0.0616,13.00256 -1.39446,15.70888 -1.80062,3.65621 -5.93681,7.27404 -10.0949,8.82978 -4.40839,1.64939 -10.97765,2.04937 -15.01183,0.91402 z m 10.60172,-10.9807 c 3.65095,-1.95803 4.22787,-3.93203 4.22682,-14.46264 -0.001,-10.18876 -0.52242,-12.24265 -3.69887,-14.57055 -2.08473,-1.52782 -7.39101,-1.61091 -9.61967,-0.15063 -3.47081,2.27416 -3.74321,3.32481 -3.74321,14.43781 0,8.82558 0.14584,10.42576 1.08024,11.85271 2.47603,3.78124 7.701,5.06732 11.75469,2.8933 z"
     id="path2838" />
</svg>
