<!-- Created by ERK --><svg xmlns="http://www.w3.org/2000/svg" xml:space="preserve" id="svg108" x="0" y="0" viewBox="0 0 1925.8 606.33"><style id="style1" type="text/css">.st0{fill-rule:evenodd;clip-rule:evenodd}.st7{fill:#4554a5}</style><g id="TV_Boy_Color" style="display:inline"><g id="HATCH" style="display:inline"><path id="path1" d="M1925.8 561.33H.8v5h1925zm0-10H.8v5h1925zm0-10H.8v5h1925zm0-10H.8v5h1925zm0-10H.8v5h1925zm0-10H.8v5h1925zm0-10H.8v5h1925zm0-10H.8v5h1925zm0-10H.8v5h1925zm0-10H.8v5h1925zm0-10H.8v5h1925zm0-10H.8v5h1925zm0-10H.8v5h1925zm0-10H.8v5h1925zm0-10H.8v5h1925zm0-10H.8v5h1925zm0-10H.8v5h1925zm0-10H.8v5h1925zm0-10H.8v5h1925zm0-10H.8v5h1925zm0-10H.8v5h1925zm0-10H.8v5h1925zm0-10H.8v5h1925zm0-10H.8v5h1925zm0-10H.8v5h1925zm0-10H.8v5h1925zm0-10H.8v5h1925zm0-10H.8v5h1925zm0-10H.8v5h1925zm0-10H.8v5h1925zm0-10H.8v5h1925zm0-10H.8v5h1925zm0-10H.8v5h1925zm0-10H.8v5h1925zm0-9.99H.8v5h1925zm0-10H.8v5h1925zm0-10H.8v5h1925z" class="st0"/></g><g id="HATCH_1_" style="display:inline"><path id="path2" d="M1925.8 556.33H.8v5h1925zm0-10H.8v5h1925zm0-10H.8v5h1925zm0-10H.8v5h1925zm0-10H.8v5h1925zm0-10H.8v5h1925zm0-10H.8v5h1925zm0-10H.8v5h1925zm0-10H.8v5h1925zm0-10H.8v5h1925zm0-10H.8v5h1925zm0-10H.8v5h1925zm0-10H.8v5h1925zm0-10H.8v5h1925zm0-10H.8v5h1925zm0-10H.8v5h1925zm0-10H.8v5h1925zm0-10H.8v5h1925zm0-10H.8v5h1925zm0-10H.8v5h1925zm0-10H.8v5h1925zm0-10H.8v5h1925zm0-10H.8v5h1925zm0-10H.8v5h1925zm0-10H.8v5h1925zm0-10H.8v5h1925zm0-10H.8v5h1925zm0-10H.8v5h1925zm0-10H.8v5h1925zm0-10H.8v5h1925zm0-10H.8v5h1925zm0-10H.8v5h1925zm0-10H.8v5h1925zm0-9.99H.8v5h1925zm0-10H.8v5h1925zm0-10H.8v5h1925z" style="clip-rule:evenodd;fill:#4554a5;fill-rule:evenodd"/></g><g id="HATCH_4_" style="display:inline"><path id="path4" d="M594.9 261.33H370.85l-44.24 75h75.87l-98.78 190h95.83l84.49-190h83.1zm-31.26 70h-82.87l-84.49 190h-84.34l98.78-190h-75.35l38.34-65h214.01zm28.81 195h104.31l136.11-265h-80.09l-73.04 120-9.52-120H594.9Zm7.41-260h65.74l10.38 130.8 79.61-130.8h69.09l-130.97 255H597.5Zm223.54 70h91.63l-8.02 190h112.59l-7.95-190h91.63l-9.47-75h-85.29l-1.67-40h-87l-1.67 40h-85.29zm13.88-70h85.68l1.67-40h77.41l1.67 40h85.68l8.21 65h-91.17l7.95 190H912.22l8.02-190h-91.17zm-19.64 115-18.32 145h84.85l8.66-145zm69.89 5-8.07 135H805l17.05-135zm146.23-5 8.66 145h84.85l-18.32-145zm70.79 5 17.05 135h-74.46l-8.07-135zm18.84-50h50.42l-14.35-75h-46.93zm4.33-5-9.42-65h37.02l12.44 65zm58.5 5h49.6l-18.64-75h-46.17zm4.08-5-13.18-65h36.14l16.15 65zm-48.07 135h182.86l54.07-34.24-31.36-89.66-69.03 38.9h-148.85zm-6.54-80h144.38l64.97-36.61 28.08 80.27-49.49 31.34h-177.08zm394.68-50h74.83l-44.19-75h-69.29l-130.66 73.62 32.16 88.23 68.16-43.16 64.21 146.31h103.62zm-8.23-5 98.83 190h-92.11l-65.23-148.64-67.83 42.95-28.58-78.41 125.82-70.9h65.13l38.29 65z" class="st0"/></g><g id="HATCH_5_" style="display:inline"><path id="path5" d="m1323.63 461.33 49.49-31.34-28.08-80.27-64.97 36.61h-144.38l10.87 75zm43.58-124.1 28.58 78.41 67.83-42.95 65.23 148.64h92.11l-98.83-190h74.31l-38.29-65h-65.13zm-153.95-70.9h-36.14l13.18 65h39.12zm-57.93 0h-37.02l9.42 65h40.05zm-108.19 255h74.46l-17.05-135h-65.48zm-40.71-190h91.17l-8.21-65h-85.68l-1.67-40h-77.41l-1.67 40h-85.68l-8.21 65h91.17l-8.02 190h102.16zM805 521.33h74.46l8.07-135h-65.48zm-207.5 0h96.21l130.97-255h-69.09l-79.61 130.8-10.38-130.8h-65.74zm-223.79-255-38.34 65h75.35l-98.78 190h84.34l84.49-190h82.87l24.07-65z" style="clip-rule:evenodd;fill:#ff0;fill-rule:evenodd"/></g><path id="path3423" d="M237.29 120.44c0 31.98-25.92 57.9-57.9 57.9-31.97 0-57.89-25.92-57.89-57.9 0-31.97 25.92-57.88 57.89-57.88 25.4 0 46.92 16.37 54.73 39.11h-27.67c-5.74-9.56-15.7-15.9-27.06-15.9-17.79 0-32.2 15.53-32.2 34.67 0 19.16 14.42 34.68 32.2 34.68 12.32 0 23.01-7.44 28.42-18.37h-34.1v-23.61h63.07c.26 2.31.51 4.81.51 7.3m68.26-23.57a43.3 43.3 0 0 0-21.08-5.47c-23.98 0-43.43 19.44-43.43 43.42s17.49 43.42 43.43 43.42c5.9 0 12.96-2.37 19.66-6.46.48-.29 1.42.28 1.42.88v3.08h24.61V93.17h-24.61zm1.78 37.1c0 12.82-9.64 23.22-21.53 23.22s-21.54-10.39-21.54-23.22c0-12.82 9.65-23.21 21.54-23.21s21.53 10.39 21.53 23.21m110.35-40.8h-28.46l-24.88 34.24v-59.8h-25.6v108.12h25.6v-32.18l21.72 32.02h29.44l-27.03-41.73zm81.51 0h-28.45l-24.88 34.24v-59.8h-25.61v108.12h25.61v-32.18l21.71 32.02h29.45L470 133.84Zm17.68 50.27c2.8 9.36 10.28 16.06 19.1 16.06 6.55 0 12.38-3.72 16.08-9.47h25.79c-6.38 16.53-22.69 28.32-41.86 28.32-24.73 0-44.79-19.58-44.79-43.73 0-24.16 20.06-43.73 44.79-43.73s44.78 19.58 44.78 43.73c0 3.03-.35 5.97-.96 8.83h-62.93zm.67-18.19h36.84c-3.21-8.31-10.23-14.1-18.42-14.1s-15.21 5.79-18.42 14.1m143.97-3.3c0-17.19-14.42-31.14-32.21-31.14-6.66 0-12.85 1.97-17.98 5.31v-2.95h-25.61v82.56h25.61V127.9c0-7.67 5.72-13.88 12.79-13.88s12.78 6.21 12.78 13.88v47.83h24.62z" style="fill-opacity:.9412;display:inline;fill:#fff"/><g id="g12" style="display:inline;fill:#4554a5;fill-opacity:1"><path id="path6" d="M728.78 136.55c0-17.51 9.83-21.64 26.35-21.64h21.56c26.1 0 29.49 5.62 29.33 22.55h-18.34v-1.65c0-4.3-3.14-5.53-8.59-5.53H759.1c-9.67 0-11.48 4.54-11.48 11.98v6.44c0 8.67 1.82 11.98 10.49 11.98h19.58c8.26 0 10.74-.83 10.74-8.26h18.34v5.62c0 10.08-3.63 18.01-22.06 18.01h-29.57c-16.52 0-26.35-4.13-26.35-21.64v-17.86z" class="st7" style="fill:#4554a5;fill-opacity:1"/><path id="path7" d="M816.5 136.55c0-17.51 9.83-21.64 26.35-21.64h29.41c16.52 0 26.35 4.13 26.35 21.64v17.84c0 17.51-9.83 21.64-26.35 21.64h-29.41c-16.52 0-26.35-4.13-26.35-21.64zm18.84 12.15c0 8.67 1.82 11.98 10.49 11.98h23.46c8.67 0 10.49-3.3 10.49-11.98v-6.44c0-7.44-1.82-11.98-11.48-11.98h-21.48c-9.67 0-11.48 4.54-11.48 11.98z" class="st7" style="fill:#4554a5;fill-opacity:1"/><path id="path8" d="M909.68 115.57h28.17l20.74 38.5 20.74-38.5h28.17v59.81h-17.84v-42.96h-.17l-24.04 42.96h-13.71l-24.04-42.96h-.17v42.96h-17.84v-59.81z" class="st7" style="fill:#4554a5;fill-opacity:1"/><path id="path9" d="M1019.87 115.57h49.98c17.43 0 21.64 8.76 21.64 20.49v5.12c0 8.92-3.88 19.17-16.85 19.17h-36.43v15.04h-18.34zm18.34 29.9h28.5c4.3 0 5.95-2.81 5.95-6.36v-2.31c0-4.05-1.98-6.36-7.52-6.36h-26.93z" class="st7" style="fill:#4554a5;fill-opacity:1"/><path id="path10" d="M1123.38 115.57h23.88l32.88 59.81h-20.41l-5.7-10.57h-37.17l-5.37 10.57H1091Zm.33 36.35h23.46l-11.9-22.47z" class="st7" style="fill:#4554a5;fill-opacity:1"/><path id="path11" d="M1185.33 136.55c0-17.51 9.83-21.64 26.35-21.64h21.56c26.11 0 29.49 5.62 29.33 22.55h-18.34v-1.65c0-4.3-3.14-5.53-8.59-5.53h-19.99c-9.67 0-11.48 4.54-11.48 11.98v6.44c0 8.67 1.82 11.98 10.49 11.98h19.58c8.26 0 10.74-.83 10.74-8.26h18.34v5.62c0 10.08-3.64 18.01-22.06 18.01h-29.58c-16.52 0-26.35-4.13-26.35-21.64z" class="st7" style="fill:#4554a5;fill-opacity:1"/><path id="path12" d="M1270 115.57h69.89v14.87h-25.77v44.94h-18.34v-44.94H1270Z" class="st7" style="fill:#4554a5;fill-opacity:1"/></g><g id="g18" style="display:inline;fill:#4554a5;fill-opacity:1"><path id="path13" d="M1396.11 115.92h20.07l23.38 44.44 23.38-44.44h20.08l-32.14 59.81h-22.64z" class="st7" style="fill:#4554a5;fill-opacity:1"/><path id="path14" d="M1490.61 115.92h18.34v59.81h-18.34z" class="st7" style="fill:#4554a5;fill-opacity:1"/><path id="path15" d="M1521.26 156.15h18.34c.08 6.36 2.64 6.86 7.93 6.86H1570c3.88 0 7.85-.41 7.85-5.04 0-5.2-2.15-5.54-25.78-5.54-27.59 0-30.73-3.3-30.73-18.01 0-10.82.99-19.17 24.12-19.17h25.61c21.15 0 23.13 7.19 23.13 17.68v1.9h-18.34c0-4.38-.5-6.2-8.92-6.2h-20.32c-4.13 0-6.94 1.4-6.94 4.63 0 5.2 2.23 5.37 21.89 5.29 28.5-.08 35.11 1.65 35.11 19.08 0 16.11-5.45 18.75-29.82 18.75h-22.22c-16.69 0-23.38-3.14-23.38-16.11z" class="st7" style="fill:#4554a5;fill-opacity:1"/><path id="path16" d="M1608.98 115.92h18.34v59.81h-18.34z" class="st7" style="fill:#4554a5;fill-opacity:1"/><path id="path17" d="M1639.38 136.9c0-17.51 9.83-21.64 26.35-21.64h29.41c16.52 0 26.35 4.13 26.35 21.64v17.84c0 17.51-9.83 21.64-26.35 21.64h-29.41c-16.52 0-26.35-4.13-26.35-21.64zm18.84 12.15c0 8.67 1.82 11.98 10.49 11.98h23.46c8.67 0 10.49-3.3 10.49-11.98v-6.44c0-7.44-1.82-11.98-11.48-11.98h-21.48c-9.67 0-11.48 4.54-11.48 11.98z" class="st7" style="fill:#4554a5;fill-opacity:1"/><path id="path18" d="M1732.56 115.92h28.42l34.45 43.45h.17v-43.45h18.34v59.81h-28.42l-34.45-43.45h-.17v43.45h-18.34z" class="st7" style="fill:#4554a5;fill-opacity:1"/></g></g></svg>