<!-- Created by ERK --><svg xmlns="http://www.w3.org/2000/svg" xmlns:xlink="http://www.w3.org/1999/xlink" width="252" height="147" viewBox="0 0 252 147"><defs><linearGradient id="b"><stop offset="0" style="stop-color:#b5b5be;stop-opacity:1"/><stop offset="1" style="stop-color:#fff;stop-opacity:1"/></linearGradient><linearGradient id="a"><stop offset="0" style="stop-color:#9e9ea6;stop-opacity:1"/><stop offset=".452" style="stop-color:#f1f1f1;stop-opacity:1"/><stop offset=".991" style="stop-color:#c7bdbd;stop-opacity:1"/><stop offset="1" style="stop-color:#fff;stop-opacity:1"/></linearGradient><linearGradient xlink:href="#a" id="d" x1="72.5" x2="72.5" y1="-250" y2="0" gradientTransform="matrix(0 .72676 -.85906 0 18.599 20.888)" gradientUnits="userSpaceOnUse"/><linearGradient xlink:href="#b" id="c" x1="72.501" x2="72.501" y1="-251.003" y2="1" gradientTransform="matrix(0 .72676 -.85906 0 18.599 20.888)" gradientUnits="userSpaceOnUse"/></defs><path d="M234.225 20.162v106.835H17.74V20.162Z" style="display:inline;fill:url(#c);stroke:none;stroke-width:.790147;stroke-opacity:1"/><path d="m233.366 20.888-.003 105.382H18.6V20.888Z" style="fill:url(#d);stroke:none;stroke-width:.790147;stroke-opacity:1"/><path d="M27.794 12.121a10.91 10.91 0 0 0-10.912 10.912v100.933a10.91 10.91 0 0 0 10.912 10.911h196.41a10.91 10.91 0 0 0 10.911-10.911V23.033a10.91 10.91 0 0 0-10.911-10.912zM41.09 22.123h9.753c3.894 0 7.116 3.128 7.121 7.023a7.03 7.03 0 0 1-4.244 6.466l4.479 9.244h-7.266l-1.987-4.38a.92.92 0 0 0-.84-.541.923.923 0 0 0-.922.922v3.999h-6.093zm45.466 0h7.03v22.733h-9.375a8.906 8.906 0 1 1 2.344-17.499zm52.965 0h3.749v6.563h-1.17c-1.813 0-3.048 1.17-3.282 3.28 0 0-.238 5.43-.246 5.566a7.733 7.733 0 0 1-7.722 7.324h-3.516v-6.562h.938c1.812 0 3.046-.937 3.28-3.28l.247-5.566a7.733 7.733 0 0 1 7.722-7.325m4.452 0h7.031v4.922h3.517a5.39 5.39 0 0 1 5.39 5.39v12.42h-7.031V34.077a.938.938 0 0 0-1.876 0v10.78h-7.03zm54.607 0h5.39v11.193l3.103-4.63h7.468l-3.565 5.577 4.478 10.593h-7.5l-1.425-3.637-.936-2.39a.84.84 0 0 0-.783-.535.84.84 0 0 0-.84.84v5.722h-5.39zm-85.306 4.218c5.177 0 9.374 4.251 9.374 9.493 0 5.241-4.196 9.491-9.374 9.491-5.177 0-9.376-4.249-9.376-9.491 0-5.243 4.199-9.493 9.376-9.493m74.934 0a9.497 9.497 0 0 1 9.27 11.25h-6.792a2.813 2.813 0 0 0-5.465.937 2.813 2.813 0 0 0 5.37 1.172h6.23a9.497 9.497 0 1 1-8.613-13.358Zm-128.366.704h9.139a5.39 5.39 0 0 1 5.39 5.39v12.42H63.474a5.507 5.507 0 0 1 0-11.014q.154 0 .305.01v-.002l-.001-.002v-.006h1.689a.703.703 0 0 0 0-1.406h-5.625zm35.623 0h7.498v17.811h-7.498zm67.495 0h9.14a5.39 5.39 0 0 1 5.391 5.39v12.42h-10.897a5.507 5.507 0 0 1 0-11.014q.154 0 .305.01l-.002-.002v-.002l-.002-.002v-.004h1.69a.703.703 0 0 0 0-1.406h-5.625zM48.296 31.497a2.81 2.81 0 0 0-2.582 1.849 3 3 0 0 0-.11.39 2.814 2.814 0 0 0 2.754 3.386 2.813 2.813 0 1 0-.06-5.625zm16.936 4.22a3 3 0 0 0-.494.042 2.814 2.814 0 0 0-2.32 2.77 2.812 2.812 0 0 0 5.625 0 2.8 2.8 0 0 0-.117-.807 2.81 2.81 0 0 0-2.694-2.005m47.96 0-.033.002a2.812 2.812 0 0 0 .117 5.622 2.813 2.813 0 0 0 2.811-2.813 2.81 2.81 0 0 0-2.895-2.811m55.157 0a3 3 0 0 0-.494.042 2.814 2.814 0 0 0-2.317 2.77 2.812 2.812 0 0 0 5.624 0 2.8 2.8 0 0 0-.119-.807 2.81 2.81 0 0 0-2.694-2.005m-83.583.002a2.81 2.81 0 0 0-2.895 2.81 2.813 2.813 0 0 0 2.811 2.812 2.812 2.812 0 0 0 .084-5.622M19.612 53.04H232.39v46.375H19.612Zm99.087 55.23q3.409 0 4.79.191 2.13.296 2.923 1.19.793.884.792 2.99 0 .192-.01.726h-4.565q-.023-.646-.113-.885a.7.7 0 0 0-.329-.385q-.306-.181-1.076-.226-.77-.056-3.26-.057-3.001 0-3.66.192-.656.182-.656 1.032 0 .816.657.996.543.148 4.994.283 3.749.113 5.006.272 1.269.147 2.016.577.85.51 1.2 1.405.351.882.35 2.548 0 2.185-.587 3.25-.442.782-1.234 1.167-.782.385-2.21.52-1.529.136-5.695.137-3.489 0-5.153-.183-1.665-.18-2.504-.645-.872-.498-1.21-1.314-.33-.815-.33-2.48v-.724h4.565q-.011 1.145.463 1.473.34.214.872.259.544.034 3.398.057 2.99-.011 3.59-.034.6-.034.95-.181.522-.216.523-1.167 0-.69-.375-.916-.362-.238-1.495-.262-.87 0-3.69-.134-2.889-.137-3.76-.16-1.7-.057-2.616-.316-.906-.272-1.416-.872-.872-.998-.872-3.33 0-2.617.996-3.693.759-.837 2.332-1.064 1.575-.238 6.4-.238zm31.112.056q5.525 0 7.01.611 1.087.443 1.517 1.394.374.861.374 2.298 0 1.836-.612 2.583-.611.735-2.218.849 1.358.237 1.845.566.634.42.895 1.178.272.758.272 2.118-.001 1.913-.647 2.775-.464.611-1.312.928-.85.306-2.39.43-1.133.09-4.734.09-3.646 0-4.939-.1-1.29-.092-2.184-.432-1.066-.407-1.519-1.245-.44-.838-.44-2.445 0-1.451.305-2.233.318-.78 1.053-1.177.465-.249 1.654-.453-1.19-.08-1.756-.442-1.076-.713-1.075-2.99 0-1.97.725-2.877.453-.554 1.2-.836.748-.283 2.15-.409 1.916-.18 4.826-.18zm21.04 0q4.418 0 6.241.272 2.073.295 2.876 1.79.407.748.499 1.664.09.918.09 4.18 0 2.558-.033 3.272a9 9 0 0 1-.148 1.382q-.306 1.733-1.767 2.503-.6.316-1.426.475-.815.147-2.321.203-1.811.08-3.998.08-4.428 0-6.251-.272-2.073-.306-2.878-1.788a4.4 4.4 0 0 1-.497-1.677q-.09-.928-.09-4.383-.001-2.355.02-3.058.036-.714.16-1.382.305-1.745 1.766-2.502a4.7 4.7 0 0 1 1.415-.476q.828-.147 2.334-.203a91 91 0 0 1 4.008-.08m-102.142.181h18.708v3.941h-6.873v11.518h-4.95v-11.518H68.71zm19.796 0h11.382q4.009.011 4.8.091a3.45 3.45 0 0 1 1.53.52 2.73 2.73 0 0 1 1.211 1.473q.33.928.329 2.934 0 1.687-.215 2.479-.204.792-.782 1.268-.621.51-1.879.703 1.485.113 2.13.85.373.442.474 1.075.102.623.103 2.627v1.439h-4.644v-.826q0-1.29-.101-1.835-.09-.555-.352-.85-.26-.272-.725-.34-.452-.079-1.912-.08h-6.637v3.93h-4.712zm60.828 3.284q-2.64 0-3.296.228-.645.225-.645 1.13 0 .952.6 1.145.6.18 3.646.18 2.696.001 3.24-.02.542-.035.893-.194.454-.204.455-1.12 0-.544-.205-.816-.203-.284-.657-.362-.837-.16-4.031-.17m21.234.556q-3.216 0-3.918.42-.453.27-.623 1.006-.17.737-.17 2.39 0 1.915.193 2.65.204.725.781.984.408.181.93.238.53.045 2.784.091 2.888-.056 3.33-.101 1.268-.136 1.62-.805.35-.68.35-2.989 0-1.834-.203-2.559-.193-.736-.77-.996a3 3 0 0 0-.987-.238q-.542-.045-3.317-.09m-77.35.021v3.806h6.625a69 69 0 0 0 2.062-.056q.34-.034.577-.182.306-.192.43-.566.124-.385.124-1.154 0-.759-.147-1.134a.94.94 0 0 0-.487-.543 1.7 1.7 0 0 0-.6-.135 50 50 0 0 0-1.97-.036zm36.858 1.553h8.515v4.631h-8.515zm19.734 3.873q-3.454 0-3.987.181a.76.76 0 0 0-.476.407q-.135.284-.135.884 0 .634.158.894.159.26.624.374.52.136 3.363.135 3.091 0 4.1-.135.543-.078.747-.362.204-.295.204-1.009 0-.577-.147-.838-.148-.26-.544-.362-.373-.113-3.907-.169" style="display:inline;stroke-width:.909307"/><path fill="#3f43ad" d="M158.734 60.314h44.556V79.41h-44.556Z" style="display:inline;stroke-width:.909307"/><path fill="#00ab84" d="M103.266 60.314h44.556V79.41h-44.556z" style="display:inline;stroke-width:.909307"/><path fill="#ee3340" d="M47.798 60.314h44.556V79.41H47.798Z" style="display:inline;stroke-width:.909307"/><path d="M73.573 84.84q-2.838.006-4.017.186-1.286.193-1.645 1.272-.3.913-.3 3.085 0 1.838.133 2.61.139.773.545 1.2.307.326.7.479.393.154 1.073.22.394.033 1.639.068a86 86 0 0 0 2.279.032q2.085 0 2.998-.153.917-.16 1.317-.586.387-.4.54-1.26.16-.865.16-2.545 0-1.312-.1-2.172-.08-.679-.22-1.051a1.74 1.74 0 0 0-.419-.654q-.44-.431-1.4-.579-.951-.153-3.283-.152m86.548 0q-2.471 0-3.75.192-1.326.193-1.645 1.36-.267.984-.267 3.163 0 2.285.354 3.15.353.861 1.371 1.068 1.073.213 4.124.213 2.352 0 3.271-.186 1.132-.234 1.352-1.247.1-.466.147-1.705H163.9q-.027 1.086-.114 1.325a.73.73 0 0 1-.339.414q-.246.133-.753.199-.26.034-1.213.074-.945.032-1.53.032-1.92 0-2.953-.106-.566-.053-.833-.286-.259-.24-.332-.766-.046-.334-.094-1.22a29 29 0 0 1-.046-1.446q0-1.185.119-1.85.127-.666.387-.88.273-.212 1.172-.307.9-.099 2.691-.099 2.472 0 3.145.273.367.147.492.427.128.273.128.925 0 .08.005.313h1.126q-.014-1.185-.114-1.592a1.43 1.43 0 0 0-.472-.76 1.9 1.9 0 0 0-.872-.446q-1.02-.232-3.378-.232zm37.613 0q-2.365 0-3.325.252-1.132.3-1.385 1.545-.207 1.005-.206 2.8 0 1.59.126 2.47.207 1.485 1.54 1.818 1.072.26 3.402.261 1.725 0 2.74-.101 1.011-.1 1.464-.32.786-.372.986-1.484.186-1.046.186-2.885 0-1.38-.092-2.099-.093-.725-.32-1.112-.426-.739-1.358-.932-1.066-.213-3.758-.213m-149.913.026v9.092h1.213V85.99h.533l5.129 7.967h.985l5.076-7.967h.506v7.967h1.213v-9.092h-2.438l-4.856 7.706-4.937-7.706Zm36.309 0v9.092h6.368q1.819 0 2.604-.133 1.52-.26 1.986-1.766.3-.978.3-2.65 0-1.338-.114-2.085-.113-.753-.385-1.2a2.26 2.26 0 0 0-1.553-1.085q-.846-.174-2.932-.173zm16.392 0v9.092l8.921.002v-1.068h-7.708v-3.117h7.374V88.71h-7.374v-2.778h7.7v-1.066zm13.746 0v9.092h8.394v-1.066h-7.18v-8.026zm20.396 0v9.092h1.213V85.99h.533l5.129 7.967h.986l5.076-7.967h.506v7.967h1.213v-9.092h-2.439l-4.855 7.706-4.938-7.706zm51.048 0-3.23 3.076.733.814 2.925-2.751h.426v7.953h1.178v-9.092zm12.068 1.04q1.74 0 2.579.072 1.005.08 1.298.4.22.247.32 1.033.105.786.106 2.219 0 2.344-.472 2.816-.253.255-1.12.368-.859.107-2.631.107-2.951 0-3.43-.501-.432-.44-.433-2.858 0-.998.087-1.91.1-1.02.385-1.313.248-.24.974-.334.732-.1 2.337-.1m-124.907.026q1.879.007 2.538.034.66.02 1.186.1.9.139 1.032.885.135.733.134 2.524 0 1.466-.153 2.32-.147.792-.933.925-1 .18-3.198.18a40 40 0 0 1-2.71-.08q-.707-.047-1.034-.134a1 1 0 0 1-.5-.279q-.22-.233-.306-.92-.08-.693-.08-2.198 0-1.466.154-2.226.093-.472.32-.678.233-.214.753-.3.892-.153 2.797-.153m12.47 0h5.042q1.392 0 1.738.027.587.052.926.186.34.126.547.386.552.679.552 2.825 0 1.651-.32 2.444-.319.792-1.058.966-.38.093-.7.114-.313.013-1.625.012h-5.102zm85.32 2.874v1.179h4.537v-1.18z" style="font-variant-ligatures:normal;font-variant-position:normal;font-variant-caps:normal;font-variant-numeric:normal;font-variant-alternates:normal;font-feature-settings:normal;text-indent:0;text-decoration-line:none;text-decoration-style:solid;text-decoration-color:#000;text-transform:none;text-orientation:mixed;white-space:normal;shape-padding:0;display:inline;stroke-width:.909307;paint-order:normal"/></svg>