<!-- Created by ERK --><svg xmlns="http://www.w3.org/2000/svg" width="3839" height="1019.389" viewBox="0 0 3839 1019.389"><path d="M1030.242.043c-78.499-.842-194.056 10.01-199.419 83.637-5.101 71.888 97.241 89.048 164.49 104.662 65.55 15.305 126.925 20.718 126.925 43.444 0 15.923-21.643 28.446-78.998 24.117-68.95-5.102-127.543-23.963-186.135-53.027L818.3 266.723c64.93 25.354 149.96 45.762 226.64 46.998 91.213 1.546 194.02-13.141 196.339-91.213 2.319-65.394-65.24-88.273-183.971-111.308-57.82-11.286-107.137-18.243-107.137-36.95 0-20.87 39.732-26.127 96.16-20.097 53.336 5.565 103.581 19.633 150.424 39.576l35.557-58.438c-37.876-14.377-115.948-32.93-186.908-34.94-4.86-.144-9.93-.252-15.162-.308m1335.897.108c-81.473 0-134.036 5.565-178.715 13.14v290.952h100.178V57.506c36.176-7.111 72.815-7.267 86.42-6.648 39.731 1.7 62.149 7.885 80.082 20.717 18.552 13.14 23.498 42.359-.465 62.611-17.933 15.15-54.417 26.899-136.045 14.531l-11.44 18.862 154.134 136.818h136.51l-136.973-118.576c32.929-4.329 82.863-17.469 106.826-48.698 23.808-31.228 20.716-77.144-25.2-103.425C2498.784 9.117 2417.157.15 2366.14.15m436.047.135c-81.627 0-134.655 5.567-179.334 13.142V304.38h100.18V197.708c31.074 5.101 69.878 8.193 103.426 7.884 82.09-.773 143-19.943 170.674-50.244 39.731-42.823 26.438-94.614-19.014-121.514C2937.304 9.717 2860.933.286 2802.186.286M1869.9 9.207l-179.795 295.126h76.68l36.795-60.448h207.315l35.71 60.448h122.442L1989.25 9.207Zm-592.77.037V304.37h100.178V185.793h194.02V304.37h100.18V9.244h-100.18V122.1h-194.02V9.244Zm1518.976 41.682c5.983-.038 10.872.068 14.273.223 40.041 1.7 63.385 8.503 80.7 20.717 17.933 12.367 23.963 42.822-.463 62.92-17.315 14.223-42.67 19.17-82.557 19.17-29.528-.155-59.983-5.566-84.719-11.131V57.797c27.016-5.333 54.816-6.755 72.766-6.87M1908.86 71.2l67.715 114.556h-137.592z" class="st0" style="fill:#d02026;stroke-width:1.54597"/><path d="M1685.6 449.29v136.5h257.1v-136.5zm306.3 0v196.9c0 11-9 20-20 20h-181.7c-57.7 0-104.6 46.9-104.6 104.6v248.199h490.6v-136.6h-303.5V823.09c0-11 9-20 20-20h178.9c57.7 0 104.6-46.901 104.6-104.601v-144.6c0-28-10.8-54.2-30.6-74-19.8-19.7-46.1-30.6-74-30.6zm248.3 0v353.8h184v-217.3h305.7v-136.5zm658.2 0c-57.7 0-104.6 46.899-104.6 104.599v360.5c0 57.7 46.9 104.6 104.6 104.6h281.4c57.7 0 104.6-47 104.6-104.6v-360.5c0-57.7-46.9-104.6-104.6-104.6H3030v136.5h47.3c11 0 20 9 20 20v256.7c0 11-9 20-20 20h-76.4c-11 0-20-9-20-20v-413.2zm554.6 0c-57.7 0-104.6 46.899-104.6 104.599v360.5c0 57.7 46.9 104.6 104.6 104.6h281.4c57.7 0 104.6-47 104.6-104.6v-360.5c0-57.7-46.9-104.6-104.6-104.6h-149.8v136.5h47.3c11 0 20 9 20 20v256.7c0 11-9 20-20 20h-76.4c-11 0-20-9-20-20v-413.2ZM0 449.988v569.4h184.3v-569.4Zm237.8 0v117.3h15.7c16 0 28.9 13 28.9 28.9v423.2h184.3v-473.1c.1-53.2-43.1-96.3-96.3-96.3zm266.1 0v117.3h32.2c16 0 28.9 13 28.9 28.9v423.2h184.3v-473.1c0-53.2-43.2-96.3-96.4-96.3zm330.3 0v117.3H1023l86.3-117.3zm332.7 0-331.4 450.3c-36.3 49.4-1.1 119.1 60.2 119.1h84.1l337.7-460.7c33.1-45.1.8-108.7-55.1-108.7zm559.7 40.3h175.1v54.4h-175.1zm554.6 0h407.6v54.4h-305.7V762.09h-101.9zm617.2 0h41.4V862.59c0 33.7 27.4 61.1 61.1 61.1h76.4c33.7 0 61.1-27.4 61.1-61.1v-256.7c0-33.7-27.4-61.1-61.1-61.1h-6.2v-54.4h108.7c35 0 63.5 28.5 63.5 63.5v360.4c0 35.1-28.5 63.6-63.5 63.6h-281.4c-35 0-63.5-28.6-63.5-63.6v-360.5c0-35 28.5-63.5 63.5-63.5m554.6 0h41.4v372.3c0 33.7 27.4 61.1 61.1 61.1h76.4c33.7 0 61.1-27.4 61.1-61.1v-256.7c0-33.7-27.4-61.1-61.1-61.1h-6.2v-54.4h108.7c35 0 63.5 28.5 63.5 63.5v360.4c0 35.1-28.5 63.6-63.5 63.6H3453c-35 0-63.5-28.6-63.5-63.6v-360.5c0-35 28.5-63.5 63.5-63.5m-1420 .1h38.7c16.9 0 32.9 6.6 44.9 18.6s18.6 27.9 18.6 44.9v144.6c0 35-28.6 63.5-63.6 63.5h-178.9c-33.7 0-61.1 27.401-61.1 61.101V923.49h303.5v54.4h-408.4v-207.1c0-35 28.5-63.5 63.5-63.5h181.7c33.7 0 61.1-27.4 61.1-61.1zm440.3 175.9v136.9h49.8c11 0 19.9 8.901 19.9 19.901v39.5c0 11-8.9 19.899-19.9 19.899h-283v136.5h385.3c57.6 0 104.5-46.899 104.4-104.399v-143.9c0-57.6-46.8-104.4-104.4-104.4zm-1109.5.9v136.4h237v-136.4Zm1150.5 40h111.1c35 0 63.4 28.501 63.4 63.401V914.49c0 35-28.5 63.4-63.4 63.4h-344.2v-54.3h241.9c33.7 0 61-27.4 61-61v-39.5c0-33.6-27.4-61-61-61h-8.8zm-1390.5 194.9-86.3 117.299h255.2V902.09Z" style="display:inline;fill:#fff"/></svg>