<!-- Created by ERK --><svg xmlns="http://www.w3.org/2000/svg" width="3839" height="1024.889" viewBox="0 0 3839 1024.889"><path d="M1030.242.043c-78.499-.842-194.056 10.01-199.419 83.637-5.101 71.888 97.241 89.048 164.49 104.662 65.55 15.305 126.925 20.718 126.925 43.444 0 15.923-21.643 28.446-78.998 24.117-68.95-5.102-127.543-23.963-186.135-53.027L818.3 266.723c64.93 25.354 149.96 45.762 226.64 46.998 91.213 1.546 194.02-13.141 196.339-91.213 2.319-65.394-65.24-88.273-183.971-111.308-57.82-11.286-107.137-18.243-107.137-36.95 0-20.87 39.732-26.127 96.16-20.097 53.336 5.565 103.581 19.633 150.424 39.576l35.557-58.438c-37.876-14.377-115.948-32.93-186.908-34.94-4.86-.144-9.93-.252-15.162-.308m1335.897.108c-81.473 0-134.036 5.565-178.715 13.14v290.952h100.178V57.506c36.176-7.111 72.815-7.267 86.42-6.648 39.731 1.7 62.149 7.885 80.082 20.717 18.552 13.14 23.498 42.359-.465 62.611-17.933 15.15-54.417 26.899-136.045 14.531l-11.44 18.862 154.134 136.818h136.51l-136.973-118.576c32.929-4.329 82.863-17.469 106.826-48.698 23.808-31.228 20.716-77.144-25.2-103.425C2498.784 9.117 2417.157.15 2366.14.15m436.047.135c-81.627 0-134.655 5.567-179.334 13.142V304.38h100.18V197.708c31.074 5.101 69.878 8.193 103.426 7.884 82.09-.773 143-19.943 170.674-50.244 39.731-42.823 26.438-94.614-19.014-121.514C2937.304 9.717 2860.933.286 2802.186.286M1869.9 9.207l-179.795 295.126h76.68l36.795-60.448h207.315l35.71 60.448h122.442L1989.25 9.207Zm-592.77.037V304.37h100.178V185.793h194.02V304.37h100.18V9.244h-100.18V122.1h-194.02V9.244Zm1518.976 41.682c5.983-.038 10.872.068 14.273.223 40.041 1.7 63.385 8.503 80.7 20.717 17.933 12.367 23.963 42.822-.463 62.92-17.315 14.223-42.67 19.17-82.557 19.17-29.528-.155-59.983-5.566-84.719-11.131V57.797c27.016-5.333 54.816-6.755 72.766-6.87M1908.86 71.2l67.715 114.556h-137.592z" class="st0" style="fill:#d02026;stroke-width:1.54597"/><path d="M1665.758 449.29v137.8h256.192v-137.8Zm305.79 0v198.9c0 11.1-8.999 20.1-20.099 20.1h-183.895v138.199h183.895c11.1 0 20.1 9.001 20.1 20.101v39.899c0 11.1-9 20.102-20.1 20.102h-285.691v137.798h388.99c58.098 0 105.396-47.3 105.296-105.4V822.09c0-34.7-16.8-65.5-42.698-84.7 25.899-19.2 42.698-50 42.698-84.7v-98c0-58.1-47.3-105.4-105.398-105.4zm253.195 0v357.199h185.794V587.09h308.592v-137.8Zm664.582 0c-58.198 0-105.596 47.4-105.596 105.6v363.9c0 58.2 47.398 105.6 105.596 105.6h284.093c58.198 0 105.596-47.3 105.696-105.6v-363.9c0-58.2-47.398-105.6-105.597-105.6h-151.195v137.8h47.698c11.1 0 20.2 9.1 20.2 20.2v259.1c0 11.1-9.1 20.2-20.2 20.2h-77.197c-11.1 0-20.2-9.1-20.2-20.2v-417.1Zm559.886 0c-58.198 0-105.598 47.4-105.598 105.6v363.9c0 58.2 47.4 105.6 105.598 105.6h284.093c58.198 0 105.596-47.3 105.696-105.6v-363.9c0-58.2-47.398-105.6-105.597-105.6h-151.195v137.8h47.698c11.1 0 20.199 9.1 20.199 20.2v259.1c0 11.1-9.1 20.2-20.2 20.2h-77.196c-11.1 0-20.201-9.1-20.201-20.2v-417.1ZM0 449.988v574.9h186.095v-574.9Zm240.193 0v118.4h15.8c16.1 0 29.199 13.101 29.199 29.201v427.2h186.097v-477.6c0-53.6-43.6-97.201-97.299-97.201zm268.493 0v118.4h32.5c16.099 0 29.2 13.101 29.2 29.201v427.2H756.48v-477.6c0-53.6-43.6-97.201-97.298-97.201zm333.593 0v118.4h190.495l87.197-118.4zm335.79 0L843.479 904.59c-36.7 49.9-1.1 120.298 60.798 120.298h84.998l340.89-465.1c33.399-45.6.9-109.699-55.598-109.699h-96.498zm834.879 40.7h41.698c35.299 0 63.998 28.7 63.998 64v98.001c0 35.3-28.699 64-63.998 64v41.4c35.299 0 63.998 28.7 63.998 64v96.899c0 35.3-28.699 64-63.998 64h-347.591V928.19h244.294c34 0 61.598-27.7 61.598-61.6v-39.9c0-34-27.698-61.6-61.598-61.6h-142.396v-55.4h142.397c33.999 0 61.598-27.7 61.598-61.6zm876.377 0h41.798v375.6c0 33.9 27.601 61.6 61.6 61.6h77.197c33.9 0 61.598-27.6 61.598-61.6v-259.1c0-33.9-27.599-61.599-61.598-61.599h-6.3v-54.9h109.798c35.399 0 64.197 28.8 64.197 64.2v363.9c0 35.4-28.798 64.199-64.197 64.199h-284.093c-35.399 0-64.2-28.8-64.2-64.2v-363.9c0-35.4 28.801-64.2 64.2-64.2m559.886 0h41.798v375.6c0 33.9 27.599 61.6 61.598 61.6h77.2c33.898 0 61.597-27.6 61.597-61.6v-259.1c0-33.9-27.599-61.599-61.598-61.599h-6.3v-54.9h109.798c35.399 0 64.197 28.8 64.197 64.2v363.9c0 35.4-28.798 64.199-64.197 64.199H3449.21c-35.399 0-64.2-28.8-64.2-64.2v-363.9c0-35.4 28.801-64.2 64.2-64.2m-1742.056.1h173.296v54.9h-173.296zm558.985 0h411.49v54.9h-308.592V765.09H2266.14zm193.995 177.5v138.2h50.3c11.1 0 20.099 9.001 20.099 20.101v39.899c0 11.1-9 20.101-20.1 20.101h-285.69v137.8h388.989c58.099 0 105.396-47.301 105.396-105.401V773.69c0-58.1-47.297-105.4-105.396-105.4zm-1083.27 1V807.09h239.292v-137.8Zm1124.67 40.401h112.096c35.3 0 63.999 28.7 63.999 64v145.299c0 35.3-28.7 64-63.999 64h-347.49V928.19h244.294c33.999 0 61.598-27.7 61.598-61.6v-39.9c0-34-27.699-61.6-61.598-61.6h-8.9zM1134.57 906.39l-87.197 118.5h257.693v-118.5Z" style="display:inline;stroke-width:1;fill:#fff"/></svg>