<!-- Created by ERK --><svg xmlns="http://www.w3.org/2000/svg" width="3839" height="1128.2" viewBox="0 0 3839 1128.2"><path d="M1030.242.254c-78.499-.842-194.056 10.01-199.419 83.637-5.101 71.887 97.241 89.048 164.49 104.662 65.55 15.305 126.925 20.718 126.925 43.443 0 15.924-21.643 28.446-78.998 24.117-68.95-5.101-127.543-23.963-186.135-53.027L818.3 266.934c64.93 25.354 149.96 45.761 226.64 46.998 91.213 1.546 194.02-13.142 196.339-91.213 2.319-65.395-65.24-88.274-183.971-111.309-57.82-11.285-107.137-18.243-107.137-36.949 0-20.87 39.732-26.127 96.16-20.098 53.336 5.566 103.581 19.633 150.424 39.577l35.557-58.438c-37.876-14.378-115.948-32.93-186.908-34.94-4.86-.144-9.93-.252-15.162-.308M2366.139.36c-81.473 0-134.036 5.566-178.715 13.141v290.951h100.178V57.717c36.176-7.112 72.815-7.267 86.42-6.649 39.731 1.701 62.149 7.886 80.082 20.717 18.552 13.141 23.498 42.36-.465 62.612-17.933 15.15-54.417 26.899-136.045 14.53l-11.44 18.862 154.134 136.819h136.51L2459.824 186.03c32.929-4.328 82.863-17.468 106.826-48.697 23.808-31.229 20.716-77.144-25.2-103.426C2498.784 9.328 2417.157.361 2366.14.361m436.047.135c-81.627 0-134.655 5.567-179.334 13.143V304.59h100.18V197.918c31.074 5.102 69.878 8.194 103.426 7.885 82.09-.773 143-19.943 170.674-50.244 39.731-42.824 26.438-94.614-19.014-121.514C2937.304 9.928 2860.933.496 2802.186.496M1869.9 9.418l-179.795 295.125h76.68l36.795-60.447h207.315l35.71 60.447h122.442L1989.25 9.418Zm-592.77.037V304.58h100.178V186.004h194.02V304.58h100.18V9.455h-100.18v112.856h-194.02V9.455Zm1518.976 41.682c5.983-.039 10.872.068 14.273.222 40.041 1.701 63.385 8.504 80.7 20.717 17.933 12.368 23.963 42.823-.463 62.92-17.315 14.223-42.67 19.17-82.557 19.17-29.528-.154-59.983-5.565-84.719-11.13V58.007c27.016-5.334 54.816-6.755 72.766-6.871M1908.86 71.41l67.715 114.557h-137.592z" class="st0" style="fill:#d02026;stroke-width:1.54597"/><path d="M1964.4 449.5V612h240.1l75-162.5Zm368.7 0L2020 1127.7h244.4l251.4-544.6c13.5-29.3 11.2-63-6.2-90.2s-47-43.4-79.3-43.4zm385.1 0c-68.6 0-124.5 55.8-124.5 124.5v429.2c0 68.6 55.8 124.5 124.5 124.5h335c68.6 0 124.5-55.9 124.5-124.5V574c0-68.6-55.8-124.5-124.5-124.5h-178.3V612h56.3c13.1 0 23.8 10.701 23.8 23.801v305.6c0 13.1-10.7 23.799-23.8 23.799h-91c-13.1 0-23.8-10.699-23.8-23.799V449.5Zm661.3 0c-68.6 0-124.5 55.8-124.5 124.5v429.2c0 68.6 55.8 124.5 124.5 124.5h335c68.6 0 124.5-55.9 124.5-124.5V574c0-68.6-55.8-124.5-124.5-124.5h-178.3V612h56.3c13.1 0 23.8 10.701 23.8 23.801v305.6c0 13.1-10.7 23.799-23.8 23.799h-91c-13.1 0-23.8-10.699-23.8-23.799V449.5ZM0 450.3v677.9h219.4V450.3Zm283.2 0V590h18.7c19 0 34.4 15.4 34.4 34.4v503.8h219.4V565c0-63.3-51.3-114.7-114.7-114.7Zm316.7 0V590h38.3c19 0 34.4 15.4 34.4 34.4v503.8H892V565c.1-63.3-51.3-114.7-114.7-114.7Zm393.3 0V590h224.7l102.8-139.7zm396.1 0L994.7 986.402c-43.3 58.8-1.3 141.799 71.7 141.799h100.2l402-548.5c39.4-53.7 1-129.4-65.6-129.4Zm623.9 48h189.9l-29.9 64.8h-160zm351.1 0h66c15.8 0 29.7 7.6 38.2 20.9s9.6 29.1 3 43.4l-238.3 516.202h-136.8zm559.3 0h129.5c41.8 0 75.7 34 75.7 75.7v429.302c0 41.8-34 75.699-75.7 75.699h-335c-41.8 0-75.7-34-75.7-75.7V574.1c0-41.8 34-75.7 75.7-75.7h49.2v443.001c0 40.1 32.6 72.7 72.7 72.7h91c40.1 0 72.7-32.6 72.7-72.7v-305.6c0-40.1-32.6-72.701-72.7-72.701h-7.4zm661.4 0h129.5c41.8 0 75.7 34 75.7 75.7v429.302c0 41.8-34 75.699-75.7 75.699h-335c-41.8 0-75.7-34-75.7-75.7V574.1c0-41.8 34-75.7 75.7-75.7h49.2v443.001c0 40.1 32.6 72.7 72.7 72.7h91c40.1 0 72.7-32.6 72.7-72.7v-305.6c0-40.1-32.6-72.701-72.7-72.701h-7.4ZM1623.7 708.9v162.5h282.2V708.9ZM1338 988.6l-102.8 139.6H1539V988.6Z" style="display:inline;fill:#fff"/></svg>