<!-- Created by ERK --><svg xmlns="http://www.w3.org/2000/svg" width="3839" height="1114.989" viewBox="0 0 3839 1114.989"><path d="M1030.242.043c-78.499-.842-194.056 10.01-199.419 83.637-5.101 71.888 97.241 89.048 164.49 104.662 65.55 15.305 126.925 20.718 126.925 43.444 0 15.923-21.643 28.446-78.998 24.117-68.95-5.102-127.543-23.963-186.135-53.027L818.3 266.723c64.93 25.354 149.96 45.762 226.64 46.998 91.213 1.546 194.02-13.141 196.339-91.213 2.319-65.394-65.24-88.273-183.971-111.308-57.82-11.286-107.137-18.243-107.137-36.95 0-20.87 39.732-26.127 96.16-20.097 53.336 5.565 103.581 19.633 150.424 39.576l35.557-58.438c-37.876-14.377-115.948-32.93-186.908-34.94-4.86-.144-9.93-.252-15.162-.308m1335.897.108c-81.473 0-134.036 5.565-178.715 13.14v290.952h100.178V57.506c36.176-7.111 72.815-7.267 86.42-6.648 39.731 1.7 62.149 7.885 80.082 20.717 18.552 13.14 23.498 42.359-.465 62.611-17.933 15.15-54.417 26.899-136.045 14.531l-11.44 18.862 154.134 136.818h136.51l-136.973-118.576c32.929-4.329 82.863-17.469 106.826-48.698 23.808-31.228 20.716-77.144-25.2-103.425C2498.784 9.117 2417.157.15 2366.14.15m436.047.135c-81.627 0-134.655 5.567-179.334 13.142V304.38h100.18V197.708c31.074 5.101 69.878 8.193 103.426 7.884 82.09-.773 143-19.943 170.674-50.244 39.731-42.823 26.438-94.614-19.014-121.514C2937.304 9.717 2860.933.286 2802.186.286M1869.9 9.207l-179.795 295.126h76.68l36.795-60.448h207.315l35.71 60.448h122.442L1989.25 9.207Zm-592.77.037V304.37h100.178V185.793h194.02V304.37h100.18V9.244h-100.18V122.1h-194.02V9.244Zm1518.976 41.682c5.983-.038 10.872.068 14.273.223 40.041 1.7 63.385 8.503 80.7 20.717 17.933 12.367 23.963 42.822-.463 62.92-17.315 14.223-42.67 19.17-82.557 19.17-29.528-.155-59.983-5.566-84.719-11.131V57.797c27.016-5.333 54.816-6.755 72.766-6.87M1908.86 71.2l67.715 114.556h-137.592z" class="st0" style="fill:#d02026;stroke-width:1.54597"/><path d="M2074.9 449.29c-45.7 0-82.9 37.2-82.9 82.9v142.199c0 23.8 10 45.2 26 60.3-29 22.3-47.8 57.4-47.8 96.8V991.59c0 67.3 54.7 122 122 122h329.2c67.3 0 122-54.7 121.9-121.9V831.489c0-39.4-18.7-74.5-47.8-96.8 16-15.2 26-36.6 26-60.3v-142.2c0-45.7-37.2-82.9-82.9-82.9h-181.8v159.2h34c12.8 0 23.3 10.4 23.3 23.3v28.9c0 12.8-10.4 23.3-23.3 23.3h-68c-12.9 0-23.4-10.4-23.4-23.3v-211.4zm666.1 0c-67.3 0-122 54.7-122 122v420.3c0 67.3 54.7 122 122 122h328.2c67.3 0 122-54.7 122-121.9v-420.4c0-67.3-54.7-122-122-122h-174.7v159.199h55.1c12.8 0 23.3 10.4 23.3 23.3V931.09c0 12.8-10.4 23.299-23.3 23.299h-89.1c-12.8 0-23.3-10.399-23.3-23.299v-481.8zm647.8 0c-67.3 0-122 54.7-122 122v420.3c0 67.3 54.7 122 122 122H3717c67.3 0 122-54.7 122-121.9v-420.4c0-67.3-54.7-122-122-122h-174.7v159.199h55.1c12.8 0 23.3 10.4 23.3 23.3V931.09c0 12.8-10.4 23.299-23.3 23.299h-89.1c-12.8 0-23.3-10.399-23.3-23.299v-481.8ZM0 449.39v665.6h215.4v-665.6Zm278.1 0v137.099h18.3c18.7 0 33.8 15.1 33.8 33.8v494.6h215.4v-552.9c0-62.2-50.4-112.6-112.6-112.6zm310.9 0v137.099h37.6c18.7 0 33.8 15.1 33.8 33.8v494.6h215.4v-552.9c0-62.2-50.4-112.6-112.6-112.6zm386.1 0v137.099h220.6l100.9-137.1zm388.9 0-387.4 526.3c-42.5 57.7-1.3 139.2 70.4 139.2h98.4l394.6-538.5c38.7-52.7 1-127-64.4-127zm940.6 47.7h134c19.4 0 35.1 15.8 35.1 35.1v142.2c0 19.4-15.8 35.099-35.1 35.099h-17.2v47.9c40.9 0 74.1 33.2 74.1 74.1v160.102c0 40.9-33.2 74.1-74.1 74.1h-329.2c-40.9 0-74.1-33.2-74.1-74.1V831.389c0-40.9 33.2-74.1 74.1-74.1v-47.698H2075c-19.4 0-35.1-15.802-35.1-35.102v-142.2c0-19.4 15.8-35.099 35.1-35.099h76.6v163.5c0 39.3 31.9 71.2 71.2 71.2h68c39.3 0 71.2-31.9 71.2-71.2v-28.9c0-34.6-24.7-63.4-57.4-69.9zm436.4 0h48.4v434c0 39.3 31.9 71.2 71.2 71.2h89.1c39.3 0 71.2-31.9 71.2-71.2v-299.3c0-39.3-31.9-71.2-71.2-71.2h-7.3v-63.4h126.8c40.9 0 74.1 33.2 74.1 74.1v420.4c0 40.9-33.2 74.1-74.1 74.1H2741c-40.9 0-74.1-33.2-74.1-74.1v-420.4c0-40.9 33.2-74.1 74.1-74.1zm647.8 0h48.4v434c0 39.3 31.9 71.2 71.2 71.2h89.1c39.3 0 71.2-31.9 71.2-71.2v-299.3c0-39.3-31.9-71.2-71.2-71.2h-7.3v-63.4H3717c40.9 0 74.1 33.2 74.1 74.1v420.4c0 40.9-33.2 74.1-74.1 74.1h-328.2c-40.9 0-74.1-33.2-74.1-74.1v-420.4c0-40.9 33.2-74.1 74.1-74.1zm-1794.7 206.1v159.5h277v-159.5zm617.7 95.1c-39.3 0-71.3 32-71.3 71.3v61.399c0 39.3 32 71.3 71.3 71.3h90c39.3 0 71.3-31.9 71.3-71.3v-61.398c0-39.3-32-71.301-71.3-71.301zm0 47.9h90c12.9 0 23.4 10.5 23.4 23.4v61.399c0 12.9-10.5 23.4-23.4 23.4h-90c-12.9 0-23.4-10.5-23.4-23.4v-61.398c0-12.9 10.5-23.4 23.4-23.4m-898.2 131.6-101 137.1h298.3v-137.1Z" style="display:inline;fill:#fff"/></svg>