<!-- Created by ERK --><svg xmlns="http://www.w3.org/2000/svg" xml:space="preserve" width="3839" height="1109.063" viewBox="0 0 3839 1109.063"><path d="M1030.242.043c-78.499-.842-194.056 10.01-199.419 83.637-5.101 71.888 97.241 89.048 164.49 104.662 65.55 15.305 126.925 20.718 126.925 43.444 0 15.923-21.643 28.446-78.998 24.117-68.95-5.102-127.543-23.963-186.135-53.027L818.3 266.723c64.93 25.354 149.96 45.762 226.64 46.998 91.213 1.546 194.02-13.141 196.339-91.213 2.319-65.394-65.24-88.273-183.971-111.308-57.82-11.286-107.137-18.243-107.137-36.95 0-20.87 39.732-26.127 96.16-20.097 53.336 5.565 103.581 19.633 150.424 39.576l35.557-58.438c-37.876-14.377-115.948-32.93-186.908-34.94-4.86-.144-9.93-.252-15.162-.308m1335.897.108c-81.473 0-134.036 5.565-178.715 13.14v290.952h100.178V57.506c36.176-7.111 72.815-7.267 86.42-6.648 39.731 1.7 62.149 7.885 80.082 20.717 18.552 13.14 23.498 42.359-.465 62.611-17.933 15.15-54.417 26.899-136.045 14.531l-11.44 18.862 154.134 136.818h136.51l-136.973-118.576c32.929-4.329 82.863-17.469 106.826-48.698 23.808-31.228 20.716-77.144-25.2-103.425C2498.784 9.117 2417.157.15 2366.14.15m436.047.135c-81.627 0-134.655 5.567-179.334 13.142V304.38h100.18V197.708c31.074 5.101 69.878 8.193 103.426 7.884 82.09-.773 143-19.943 170.674-50.244 39.731-42.823 26.438-94.614-19.014-121.514C2937.304 9.717 2860.933.286 2802.186.286M1869.9 9.207l-179.795 295.126h76.68l36.795-60.448h207.315l35.71 60.448h122.442L1989.25 9.207Zm-592.77.037V304.37h100.178V185.793h194.02V304.37h100.18V9.244h-100.18V122.1h-194.02V9.244Zm1518.976 41.682c5.983-.038 10.872.068 14.273.223 40.041 1.7 63.385 8.503 80.7 20.717 17.933 12.367 23.963 42.822-.463 62.92-17.315 14.223-42.67 19.17-82.557 19.17-29.528-.155-59.983-5.566-84.719-11.131V57.797c27.016-5.333 54.816-6.755 72.766-6.87M1908.86 71.2l67.715 114.556h-137.592z" class="st0" style="fill:#d02026;stroke-width:1.54597"/><path d="M3237.782 447.99v659.687h213.487V447.99Zm387.73 0s-49.775 146.188-75.06 229.189c-6.63 11.345-18.88 18.639-32.46 18.659h-17.184v123.89h17.184c13.58.019 25.83 7.312 32.46 18.658 25.638 82.896 75.06 269.293 75.06 269.293H3839l-76.645-278.627c-9.553-29.086-22.753-52.682-49.537-71.27 25.37-15.929 41.042-43.46 49.537-71.27L3839 447.99zm-1569.044 1.287c-45.294 0-82.164 36.87-82.164 82.164v140.936c0 23.589 9.911 44.8 25.769 59.766-28.742 22.101-47.376 56.888-47.376 95.938v158.68c0 66.702 54.214 120.916 120.916 120.916h326.277c66.702 0 120.916-54.214 120.817-120.818V828.081c0-39.05-18.534-73.837-47.376-95.938 15.858-15.065 25.77-36.276 25.77-59.766V531.441c0-45.294-36.87-82.164-82.165-82.164h-180.184v157.785h33.698c12.687 0 23.092 10.309 23.092 23.094V658.8c0 12.686-10.306 23.092-23.092 23.092h-67.396c-12.785 0-23.192-10.307-23.192-23.092V449.278Zm660.182 0c-66.702 0-120.916 54.215-120.916 120.917V986.76c0 66.702 54.214 120.916 120.916 120.916h325.284c66.702 0 120.916-54.214 120.916-120.818V570.194c0-66.702-54.214-120.916-120.916-120.916h-173.147v157.784h54.61c12.686 0 23.094 10.309 23.094 23.094v296.642c0 12.686-10.309 23.092-23.094 23.092h-88.308c-12.687 0-23.094-10.306-23.094-23.092v-477.52ZM0 449.378v659.686h213.487V449.376Zm275.63 0v135.88h18.137c18.534 0 33.499 14.968 33.499 33.501v490.206h213.487V560.976c0-61.648-49.952-111.6-111.6-111.6zm308.138 0v135.88h37.265c18.534 0 33.5 14.968 33.5 33.501v490.206h213.488V560.976c0-61.648-49.954-111.6-111.602-111.6zm382.67 0v135.88h218.64l100.003-135.88zm385.445 0-383.96 521.625c-42.121 57.187-1.287 137.962 69.776 137.962h97.526l391.094-533.716c38.357-52.232.991-125.872-63.828-125.872zm932.244 47.277h132.81c19.227 0 34.787 15.659 34.787 34.787v140.936c0 19.228-15.66 34.788-34.788 34.788h-17.046v47.475c40.536 0 73.441 32.905 73.441 73.441v158.68c0 40.537-32.905 73.441-73.441 73.441h-326.277c-40.537 0-73.441-32.905-73.441-73.441V827.983c0-40.537 32.904-73.442 73.441-73.442v-47.275h-17.046c-19.228 0-34.788-15.661-34.788-34.79V531.54c0-19.227 15.66-34.788 34.788-34.788h75.919V658.8c0 38.95 31.618 70.567 70.568 70.567h67.396c38.951 0 70.567-31.616 70.567-70.567v-28.644c0-34.292-24.48-62.837-56.89-69.28zm432.523 0h47.97v430.144c0 38.951 31.616 70.567 70.567 70.567h88.308c38.951 0 70.57-31.616 70.57-70.567V630.156c0-38.95-31.619-70.566-70.57-70.566h-7.234v-62.838h125.673c40.536 0 73.443 32.905 73.443 73.442v416.665c0 40.537-32.907 73.442-73.443 73.442H2716.65c-40.537 0-73.441-32.905-73.441-73.442V570.194c0-40.537 32.905-73.442 73.441-73.442zM1579.938 700.922v158.083h274.54V700.922Zm612.214 94.255c-38.95 0-70.667 31.717-70.667 70.668v60.853c0 38.95 31.716 70.667 70.667 70.667h89.2c38.952 0 70.666-31.617 70.666-70.667v-60.853c0-38.951-31.714-70.668-70.665-70.668zm0 47.475h89.2c12.786 0 23.191 10.407 23.191 23.193v60.853c0 12.785-10.405 23.192-23.19 23.192h-89.2c-12.786 0-23.193-10.407-23.193-23.192v-60.853c0-12.786 10.407-23.193 23.192-23.193m-890.222 130.43-100.103 135.882h295.651V973.083Z" style="display:inline;fill:#fff;stroke-width:1"/></svg>