<!-- Created by ERK --><svg xmlns="http://www.w3.org/2000/svg" xml:space="preserve" id="Layer_1" x="0" y="0" viewBox="0 0 3839 561.7"><style id="style1" type="text/css">.st2{fill:#fff}.st3{fill:#c30207}</style><g id="g8"><g id="g5" style="fill:#fff"><path id="rect1" d="M2302.6 234.5h163.1v92.1h-163.1z" class="st2" style="fill:#fff"/><path id="path1" d="M2671 561.7c98.6 0 178.6-80 178.6-178.6 0-97-77.3-175.8-173.6-178.5l86.4-193.5h-120.9L2507 312.4c-9.4 21.7-14.6 45.6-14.6 70.7 0 98.7 80 178.6 178.6 178.6m0-246.7c37.6 0 68.2 30.5 68.2 68.2s-30.5 68.2-68.2 68.2c-37.6 0-68.2-30.5-68.2-68.2s30.5-68.2 68.2-68.2" class="st2" style="fill:#fff"/><path id="path2" d="M3476.8 11.2c-120.3 0-193.8 85.5-193.8 269.4S3356.5 550 3476.8 550s193.8-85.5 193.8-269.4-73.5-269.4-193.8-269.4m78 269.6c-.1 115.6-25.2 167.2-78 167.2s-77.9-51.6-78-167.2v-.6c.1-115.6 25.2-167.2 78-167.2s77.9 51.6 78 167.2z" class="st2" style="fill:#fff"/><path id="path3" d="M3066.3 11.2c-120.3 0-193.8 85.5-193.8 269.4S2946 550 3066.3 550s193.8-85.5 193.8-269.4-73.5-269.4-193.8-269.4m77.9 269.6c-.1 115.6-25.2 167.2-78 167.2s-77.9-51.6-78-167.2v-.6c.1-115.6 25.2-167.2 78-167.2s77.9 51.6 78 167.2z" class="st2" style="fill:#fff"/><path id="path4" d="M2305.1 431.4c-12.2 2.8-22.8 6.9-60.8 6.9-58.5 0-142.1-52.5-142.1-157.8s83.7-157.8 142.1-157.8c38 0 48.6 4.1 60.8 6.9V4.6C2289.5 2 2269.6 0 2240.3 0c-130.2 0-270.7 107.3-270.7 280.5S2110.1 561 2240.3 561c29.4 0 49.2-2 64.9-4.6v-125z" class="st2" style="fill:#fff"/><path id="rect4" d="M3719.8 11.2H3839v538.7h-119.2z" class="st2" style="fill:#fff"/><path id="path5" d="M1788.9 11.2h-182.8v538.7h119.2V125.3h54.1c32.2 0 58.3 26.1 58.3 58.3s-26.1 58.3-58.3 58.3h-23.6v113h33.1c94.9 0 176.8-77 176.8-171.9s-81.9-171.8-176.8-171.8" class="st2" style="fill:#fff"/></g><g id="g7" style="fill:#c30207;fill-opacity:1"><path id="polygon5" d="m468.4 149.3 95.3-54L447.3 27 387 314.5 133.2 31.1l-118.7 134 36.4 3.5 25.7 28.6L0 561.7l140.5-71.1-65.9-60.2 40-190.8 271.3 303.1z" class="st3" style="fill:#c30207;fill-opacity:1"/><path id="path6" d="M986.5 43H570.8c-3.6 0-4.5 5.1-1.1 6.3C602.6 61 628 78.8 624.6 94.6l-31.5 150.3c-3.9 18.4-35.1 26.4-63.9 29.8-4.6.6-4.7 7.2-.1 7.9 37 5.9 50.3 13.5 52.2 18.3l-34.7 165.2c-5.5 26.4-43.5 32.7-76.4 44.5-3.4 1.2-2.5 6.3 1.1 6.3h452.9L956 365.5c1-5.1-5.7-7.7-8.4-3.4-26.2 42-84.9 124.2-143.7 124.2h-105L740 290.1h26.7c41.1 0 69.9 63.4 79.5 87.8 1 2.7 5 2.3 5.5-.5l41.8-199.6c.6-3-3.2-4.9-5.2-2.4-19.2 24.6-70.1 84-117.1 84h-25l39-185.8h109.9c56.9 0 75.5 60.8 82.7 136 .6 6.2 9.3 6.6 10.6.6l35-167.2z" class="st3" style="fill:#c30207;fill-opacity:1"/><path id="path7" d="m1345.3 516.8 99.5-192c2.9-5.4-1.7-7.5-6.4-3.5-189.1 156.6-315.5 14.4-296.9-78.5C1162 141.1 1242.2 90.7 1316.4 74l77.6 99.9 69.8-34.1-53.3-116.4c-166.9-7.9-379.6 96.9-389.7 288.7-5 95.6 87.5 287.1 324.5 204.7" class="st3" style="fill:#c30207;fill-opacity:1"/></g></g></svg>