<!-- Created by ERK --><svg xmlns="http://www.w3.org/2000/svg" xml:space="preserve" width="1332.7" height="268" viewBox="0 0 1332.7 268"><path fill="#3a454b" d="M6 262h794V6H6z"/><path fill="#9c2249" d="M655.15 6H498.92L366.38 262h156.23z"/><g fill="#fff"><path d="M0 0v268h806V0zm6 6h794v256H6z" style="paint-order:fill markers stroke"/><path d="m63.445 46.282-25.382 192.37h37.406l3.3-37.405h17.446l3.301 37.405h37.407L111.54 46.282H64.781zm17.915 125.58 6.132-69.468 6.133 69.468zM270.52 46.28h-53.44l-10.69 76.95-10.69-76.95h-53.43v192.38h37.4v-96.19l13.36 96.19h26.72l13.36-96.19v96.19h37.41zm80.38 192.38c14.068 0 23.82-9.618 23.82-23.499v-62.668c-.16-18.877-53.437-40.078-53.437-40.078V80.354a5.343 5.343 0 1 1 10.688 0l.041 32.061h42.708V69.117c0-13.879-9.751-23.499-23.82-23.499h-48.547c-14.067 0-23.82 9.619-23.82 23.499v51.982c.173 18.865 53.437 40.078 53.437 40.078v42.752a5.34 5.34 0 0 1-5.344 5.342 5.343 5.343 0 0 1-5.344-5.342l-.04-42.752h-42.71v53.984c0 13.881 9.752 23.499 23.82 23.499zm47.87-160.32v160.32h42.75V78.34h18.7V46.28h-82.83v32.06zm139.16 66.8c14.066 0 23.818-9.619 23.818-23.499v-51.86c0-13.879-9.752-23.499-23.818-23.499h-72.369v192.37h42.752v-75.251h.147c9.39 0 10.539 6.452 10.539 15.777v59.474h42.75v-70.017c-.001-13.88-9.753-23.499-23.819-23.499zm-29.618-67.238h.147c9.39 0 10.539 6.453 10.539 15.777v17.422c0 9.326-1.31 15.923-10.686 15.923zm81.488-31.62-25.383 192.37h37.407l3.3-37.405h17.445l3.301 37.405h37.408l-25.387-192.37h-46.755zm17.914 125.58 6.133-69.468 6.133 69.468zm60.916 66.798h72.366c14.068 0 23.82-9.618 23.82-23.499V69.781c0-13.879-9.752-23.499-23.82-23.499H668.63zm42.749-31.621V77.909h.146c9.392 0 10.541 6.453 10.541 15.777v97.577c0 9.325-1.149 15.777-10.541 15.777z"/></g><path fill="#9c2249" d="M1070.2 77.404c-25.934.002-48.23 10-65.615 29.359 0 .003 0 .007-.01.01v.004c-17.349 19.191-26.107 42.75-26.107 69.82 0 19.504 4.747 34.967 14.953 45.527l.012.014.014.013c10.197 10.391 24.36 15.57 41.256 15.57 17.3 0 33.2-5.142 47.096-15.229 13.915-10.1 24.148-24.039 30.56-41.369l2.448-6.613h-34.002l-1.178 3.322c-3.497 9.847-8.7 17.212-15.65 22.545-6.893 5.155-14.964 7.725-24.887 7.725-9.837 0-15.97-2.59-20.033-7.486-3.989-5.11-6.441-13.618-6.441-25.85 0-12.203 2.056-23.367 6.123-33.61 4.16-10.13 10.278-18.24 18.496-24.622v-.006c8.2-6.394 17.419-9.504 28.373-9.504 8.8 0 14.882 1.999 19.027 5.508 4.163 3.523 6.195 8.054 6.195 15.002 0 1.354-.122 3.069-.38 5.09l-.71 5.546h33.281l.647-4.203c.454-2.953.681-5.916.681-8.877 0-13.825-4.83-25.73-14.314-34.52-9.624-8.919-23.227-13.167-39.824-13.168zm71.852 4.752 7.059 150.81h29.564l44.13-88.063 2.464 88.063h30.45l76.997-150.81h-34.604l-43.051 87.305-2.276-87.305h-32.192l-41.752 86.791-2.088-86.791zm-271.37.746-33.43 149.32h31.902l11.49-51.08h32.502c16.133 0 30.212-5.657 41.211-16.725 10.96-11.028 16.674-24.938 16.674-40.64 0-11.546-3.322-21.587-10.041-29.155-6.823-7.82-16.656-11.723-28.176-11.723zm25.359 28.867h29.373c6.315 0 10.238 1.485 12.576 3.723s3.729 5.647 3.729 11.504c0 7.263-2.257 12.983-7.166 18.168-4.683 4.946-11.111 7.52-20.432 7.52h-27.127z" style="paint-order:fill markers stroke"/></svg>