<!-- Created by ERK --><svg xmlns="http://www.w3.org/2000/svg" xml:space="preserve" width="1400mm" height="900mm" viewBox="0 0 1400 900"><g style="display:inline;stroke:none"><path d="M100.75 365.25v74h132v7h-22v12h-22v15h-22v12h-22v15h-22v13.501h-22v87.5h64v-11.5h22v-15.5h22v-12.5h22v-14.5h22v-12h13v66.5h86v-66.5h13v12h21.998v14.5h22v12.5h22v15.5h22v11.5h64v-87.5h-22v-13.5h-22v-15h-22v-12h-22v-15h-21.997v-12h-22v-7h131.998v-74z" style="display:inline;fill:#1593ed;fill-opacity:1;stroke:none;stroke-width:.944739;stroke-linecap:round;stroke-dasharray:none" transform="translate(99.75 49)"/><path d="M54.87 41.695v87.5h11v13.5h22v13.499h22v13.501h22v6.999h-22v13.501h-22v13.5h-22v13.5h-11v87.5h97v-12.5h13v12.5h196v-12.5h13.001v12.5h96.999v-87.5h-11v-13.5h-22v-13.5h-22v-13.501h-22v-6.999h22v-13.501h22v-13.5h22v-13.498h10.999v-87.5H417.87v13.498h-22v13.502h-22v13.5h-22v13.498h-46v-6.998h10.998v-47H230.87v27h-11v26.998h-46V82.195h-22V68.696h-22V55.194h-22V41.695Zm174 101h68v7h-33v14.5h-33v12.499h-2zm66 81h2v34h-68v-7h33v-11h33z" style="display:inline;fill:#1593ed;stroke:none;stroke-width:.944739;stroke-linecap:round" transform="translate(145.63 96.555)"/><path d="M585.25 90.25v81h-66.001v74.001h66v34h-10.998v27h-11.002v27h-10.998v27h-11.002v27H530.25v27h-11v47h86v-27h11.001v-27h11v-27h11v-27h11v-27h11v-27h11v-54h46v115h-11.002v14.5H695.25v12.5h-55.002v47h11.002v27h108v-12.5h10.999v-14.5h11.001v-27h10.999v-128H781.25v-27h-11.001v-27h-11v-27h-11v-27h-77V90.25Z" style="display:inline;fill:#1593ed;stroke:none;stroke-width:3.57117;stroke-linecap:round;stroke-dasharray:none" transform="translate(99.75 49)"/><path d="M780.75 115.75h10.999v27.001h11.001v27h10.999v27h11.001v27h10.999v27h11.001v74h-64v-37h-11v-28h-11v-28h-11v-27h-11v-27h-11.001v-15h-11v-27h-11V88.75h75z" style="display:inline;fill:#1593ed;fill-opacity:1;stroke:none;stroke-width:.944827;stroke-linecap:round" transform="translate(99.75 49)"/><path d="M2579.53-958.11v-279.69h200.31v279.69z" style="display:inline;fill:#1593ed;fill-opacity:1;stroke:none;stroke-width:3.57165;stroke-linecap:round;stroke-dasharray:none" transform="translate(200 465.25)scale(.26458)"/><path d="M904.25 89.75v47h10.998v7.001H827.25v74h109.998v7h-87.997v74h109.997v27h11.002v27h10.999v27h86v-47h-11v-27h-11v-7h55.001v-74h-77.001v-7h66v-74h-88v-27h-11V89.748Z" style="display:inline;fill:#1593ed;fill-opacity:1;stroke:none;stroke-width:.944827;stroke-linecap:round" transform="translate(99.75 49)"/><path d="M838.25 306.251v47h11v27h11v27h11v27h11v27h196v-74H935.251v-27H924.25v-27h-11v-27z" style="display:inline;fill:#1593ed;fill-opacity:1;stroke:none;stroke-width:.944739;stroke-linecap:round;stroke-dasharray:none" transform="translate(99.75 49)"/></g><g style="display:inline"><path d="M1203.78 512.126h-83.15v-54.803h-83.15v-45.354h-83.149v-56.693h-41.575v308.031H663.307V355.276h-41.575v56.693h-83.149v45.354h-83.15v54.803h-83.15v47.244h-83.149v58.583h-83.15v43.464H39.685V406.299h83.15v-51.023h83.149v-56.693h83.15v-45.355h83.149v-56.695h83.15v-45.352h83.15V49.134H39.685v-204.095H1536.38V49.134h-498.9V151.18h83.15v45.352h83.15v56.695h83.15v45.355h83.15v56.693h83.15v51.023h83.15v255.118h-166.3v-43.464h-83.15V559.37h-83.15z" style="display:inline;fill:#ffff1b;fill-opacity:1;stroke:#000;stroke-width:6.66667;stroke-linecap:round;stroke-dasharray:none" transform="translate(200 465.25)scale(.26458)"/><path d="M286.75 99.25v27.002h-11v26.999h-55v189h176v-189h-55v-27h11v-27Zm-22 81h88v27h-33v14.5h-33v12.5h-22zm66 81h22v54.001h-88v-27h33v-11h33zm-165-27v13.5h-22v13.5h-22v13.5h-11v67.5h77v-12.5h22v-95.5z" style="display:inline;fill:#ffff1b;fill-opacity:1;stroke:#000;stroke-width:1.76389;stroke-linecap:round;stroke-dasharray:none" transform="translate(99.75 49)"/><path d="M407.748 234.25v95.5h22v12.5h77.002v-67.5h-11.001v-13.5h-22v-13.5h-22v-13.5z" style="fill:#ffff1b;fill-opacity:1;stroke:#000;stroke-width:1.76389;stroke-linecap:round;stroke-dasharray:none" transform="translate(99.75 49)"/><path d="M110.75 99.25v67.501h11v13.5h22v13.5h22v13.5h22v13.5h22v-81h-22v-13.5h-22V112.75h-22v-13.5Z" style="display:inline;fill:#ffff1b;fill-opacity:1;stroke:#000;stroke-width:1.76389;stroke-linecap:round;stroke-dasharray:none" transform="translate(99.75 49)"/><path d="M473.749 99.25v13.5h-22v13.502h-22v13.499h-22v81h22v-13.5h22v-13.5h22v-13.5h22v-13.5h11v-67.5Z" style="fill:#ffff1b;fill-opacity:1;stroke:#000;stroke-width:1.76389;stroke-linecap:round;stroke-dasharray:none" transform="translate(99.75 49)"/><path d="M595.25 100.251v81h-66v54h66v54h-11v27h-11v27h-11v27h-11v27h-11v27h-11v27h66v-27h11v-27h11v-27h11v-27h11.001v-27h10.998v-27h11v-54h66v135h-11v14.5h-11v12.5h-55v27h11v27h88v-12.5h11v-14.5h11v-27h11.001v-108h-11.001v-27h-11v-27h-11v-27H738.25v-27h-77.002v-81zm120.5-1.5v27h10.998v27h11.002v15h10.999v27h11.001v27h10.999v28h11.001v28h10.999v37h44v-54H825.75v-27h-11v-27h-11v-27h-11.001v-27H781.75v-27h-11v-27Z" style="display:inline;fill:#ffff1b;fill-opacity:1;stroke:#000;stroke-width:1.76389;stroke-linecap:round;stroke-dasharray:none;stroke-opacity:1" transform="translate(99.75 49)"/><path d="M2658.9-1200h-41.58v204.094h41.58zm83.15 204.094V-1200h-41.58v204.094z" style="display:inline;fill:#ffff1b;fill-opacity:1;stroke:#000;stroke-width:6.66667;stroke-linecap:square;stroke-dasharray:none" transform="translate(200 465.25)scale(.26458)"/><path d="M848.25 316.25v27h11v27h11v27h11v27.001h11v27h176v-54h-143v-27h-11v-27h-11v-27z" style="display:inline;fill:#ffff1b;fill-opacity:1;stroke:#000;stroke-width:1.76389;stroke-linecap:round;stroke-dasharray:none;stroke-opacity:1" transform="translate(99.75 49)"/><path d="M914.25 99.75v27.002h11v26.999h-88v54h110v27h-88v54h110v27h10.998v27h11.002v27h66v-27h-11.001v-27h-10.999v-27h54.999v-54h-77v-27h66.002v-54H991.25v-27h-11.002v-27Z" style="display:inline;fill:#ffff1b;fill-opacity:1;stroke:#000;stroke-width:1.76389;stroke-linecap:round;stroke-dasharray:none;stroke-opacity:1" transform="translate(99.75 49)"/></g><path d="M1194 663.75H200v98.5h994z" style="display:inline;fill:#f1a9be;fill-opacity:1;stroke:none;stroke-width:.944827;stroke-linecap:round"/><path d="m1033.188 747.13-3.632-7.07-50.692 6.68-4.4-16.245 6.189-.47c11.126-13.69 14.851-31.555 18.811-48.244l16.125 5.516q-4.62 21.562-14.44 41.163l21.602-1.648-8.176-15.913 15.176-7.404 19.23 38.616zm-120.213-23.895v-18.96h65.995v18.96zm-3.516-33.695-5.38-11.031-6.707 3.272 5.38 11.03zm-17.339 5.473-4.778-11.26 7.088-3.008 4.779 11.259zm15.672 15.335h-14.518c-.017 7.751-1.558 16.259-5.933 22.752-5.28 7.839-14.69 12.743-22.507 17.334l-13.364-14.091c11.705-3.616 27.412-9.838 24.983-25.995h-13.084l-.048.064c-3.548 4.664-7.695 8.874-11.85 12.823l-11.177-12.887c10.53-6.574 17.032-18.21 19.215-30.203l16.032 3.609a63 63 0 0 1-3.415 11.259h35.666zm-82.774-21.91c-1.232 11.053-5.966 23.067-14.685 30.515-4.262 3.64-9.477 6.19-14.885 7.859-7.039 2.171-14.404 2.848-21.702 2.112l7.453 18.206c12.865-.92 23.973-4.196 33.353-10.787 14.413-10.129 24.743-28.087 27.089-45.37zm-47.946 6.136 9.477-12.27 21.138 16.324-9.475 12.271zm-26.012 50.063v-3.455h-43.272v-15.547h43.272V702.39h-43.272v-14.47h56.904v56.718zm-68.657-59.782c.847 9.486.837 21.332-4.261 30.13-6.734 11.617-22.343 17.918-34.804 18.926l10.771 14.756c14.508-1.974 28.834-10.581 36.831-23.032 7.466-11.624 9.416-26.597 9.104-40.013zm-37.089 28.739-8.794-25.675 15.838-4.74 8.794 25.675zm-21.167-32.817a9.197 9.197 0 0 1 10.03 7.081 9.197 9.197 0 0 1-17.269 6.007c3.752 15.83 9.009 31.472 18.22 44.952l-14.41 8.313q-18.057-28.14-20.703-60.997l14.296-4.28a374 374 0 0 0 1.705 8.126 9.2 9.2 0 0 1 8.131-9.202m4.093 9.137a3.025 3.025 0 1 0-6.05 0 3.025 3.025 0 0 0 6.05 0m-32.162-1.995-16.695-6.065c1.183 19.163-4.15 38.692-15.246 54.489l13.767 9.834c11.218-17.273 17.383-37.715 18.174-58.258m-48.588 19.54h14.356v-15.194H547.49v-11.976H533v11.976h-36.08v15.195h24.99l-10.384 12.354c-1.478 1.759-3.181 3.41-4.99 4.915-3.416 2.841-7.208 5.158-11.77 5.767l12.308 14.142c3.856-1.765 7.142-4.381 10.33-7.143 1.593-1.38 3.161-2.797 4.506-4.396l11.089-13.193v29.343h14.491zm-74.58 26.733c-11.081 7.572-24.732 10.847-37.693 12.938l-5.848-16.058c10.418-2.122 23.916-2.54 33.11-9.278 3.994-2.927 7.175-7.046 9.73-11.446 4.01-6.909 6.474-14.51 6.752-22.43l14.806 12.64c-1.06 13.904-9.643 25.97-20.858 33.634m-46.464-22.878 6.55-12.32 23.204 12.337-6.551 12.32zm7.31-18.232 6.956-13.08 23.063 12.263-6.955 13.08zm-44.172 37.413h8.968a5.77 5.77 0 0 0 5.767-5.767v-14.38h-8.94a83 83 0 0 1-3.493 12.54 45 45 0 0 1-23.074 25.276l-12.605-12.605a36.72 36.72 0 0 0 22.569-25.21h-18.663v-14.737h20.606q.091-2.02.091-4.046v-8.387h16.123v11.156q0 .639-.01 1.278h22.09v36.279c0 3.257-.983 5.906-2.7 8.015-4.377 5.374-13.517 7.24-19.966 6.686z" style="display:inline;fill:#fff;fill-opacity:1;stroke:none;stroke-width:.944827;stroke-linecap:round"/><g style="display:inline;fill:#fff"><path d="M527.25 492.75v107.5h25v-38h28.372c26.992 0 36.107 1.162 40.175-16.853 2.251-9.967 2.958-25.804 0-35.792-4.498-15.192-17.472-16.854-40.175-16.854zm25 20.5h35.724c5.15 0 7.786 1.792 8.533 4.885.124.513.196 1.062.262 1.61.608 5.076.669 10.09 0 15.107-.063.472-.132.945-.262 1.398-.923 3.236-4.9 5.5-8.532 5.5H552.25z" style="display:inline;fill:#fff;stroke:none;stroke-width:.944827;stroke-linecap:round" transform="translate(99.75 49)"/><path d="M690.408 600.25h-30.297l-39.008-107.5h28.308l25.675 71.831 26.633-71.83h26.86zm67.672-44.617h-36.67v-21.036h36.67zm57.452-17.173a9.12 9.12 0 0 0 7.589-6.59v-8.552a7.176 7.176 0 0 0-7.176-7.176h-15.492a9.1 9.1 0 0 0-9.101 9.102v6.938h-23.427v-15.596c0-2.755.269-5.567 1.036-8.246.934-3.261 2.606-6.324 4.904-8.85 2.052-2.257 4.603-4.085 7.407-5.181 3.24-1.268 6.816-1.558 10.33-1.558h32.922c4.235 0 7.967.813 11.057 2.86 2.92 1.933 5.265 4.969 6.899 8.3 1.457 2.972 2.348 6.179 2.348 9.34v25.21c.34 6.296-2.003 12.756-6.55 17.171-2.028 1.97-4.495 3.533-7.455 3.835l-28.268 2.885c-1.313.134-4.16.516-6.176.94-5.109 1.076-4.893 2.422-5.342 14.899h53.79v22.06h-76.901v-38.619c0-9.665 7.161-17.833 16.743-19.098zm47.638 58.931c-2.337-1.159-4.447-2.691-6.088-4.614-1.947-2.28-3.234-5.11-4.035-8.116-1.158-4.348-1.297-9.068-1.298-13.045v-50.23c0-3.977.14-8.697 1.298-13.046.8-3.006 2.088-5.835 4.035-8.116 1.641-1.922 3.751-3.455 6.088-4.614 3.972-1.97 8.602-2.86 12.665-2.86h30.329c5.176 0 8.919.907 12.664 2.86 2.203 1.15 4.408 2.662 6.088 4.614 1.993 2.317 3.248 5.254 4.035 8.116 1.138 4.14 1.297 8.126 1.298 13.045v50.231c0 4.92-.159 8.905-1.297 13.045-.787 2.863-2.042 5.8-4.036 8.116-1.68 1.953-3.884 3.465-6.087 4.614-3.745 1.954-7.488 2.86-12.665 2.86h-30.328c-4.064 0-8.694-.89-12.666-2.86m43.08-68.727c0-4.356-.459-9.2-3.43-11.456-1.532-1.163-3.73-1.639-5.84-1.963-4.097-.63-7.863-.687-11.96 0-2.112.354-4.31.905-5.84 1.963-3.005 2.078-3.43 6.109-3.43 11.6v35.385c0 5.492.425 9.523 3.43 11.6 1.53 1.059 3.728 1.61 5.839 1.964 4.097.687 7.863.63 11.96 0 2.11-.324 4.309-.8 5.84-1.963 2.972-2.257 3.43-7.1 3.43-11.456zm57.93 47.13c1.53 1.058 3.728 1.609 5.84 1.963 4.097.687 7.863.63 11.96 0 2.11-.324 4.308-.8 5.84-1.963 2.971-2.257 3.43-7.1 3.43-11.456v-35.674c0-4.356-.459-9.2-3.43-11.456-1.532-1.163-3.73-1.639-5.84-1.963-4.097-.63-7.863-.687-11.96 0-2.112.354-4.31.905-5.84 1.963-3.005 2.078-3.43 6.109-3.43 11.6v35.385c0 5.492.425 9.523 3.43 11.6m-3.344 24.457c-4.064 0-8.694-.89-12.666-2.86-2.337-1.159-4.447-2.691-6.088-4.614-1.947-2.28-3.235-5.11-4.035-8.116-1.158-4.348-1.297-9.068-1.298-13.045v-50.23c0-3.977.14-8.697 1.297-13.046.8-3.006 2.088-5.835 4.036-8.116 1.64-1.922 3.75-3.455 6.087-4.614 3.973-1.97 8.602-2.86 12.666-2.86h30.33c5.177 0 8.92.907 12.665 2.86 2.203 1.15 4.407 2.662 6.087 4.614 1.994 2.317 3.249 5.254 4.036 8.116 1.138 4.14 1.297 8.126 1.297 13.045v50.231c0 4.92-.159 8.905-1.297 13.045-.787 2.863-2.042 5.8-4.035 8.116-1.68 1.953-3.885 3.465-6.088 4.614-3.745 1.954-7.488 2.86-12.664 2.86zm115.414-71.586c0-4.356-.459-9.2-3.43-11.456-1.532-1.163-3.73-1.639-5.84-1.963-4.097-.63-7.863-.687-11.96 0-2.112.354-4.31.905-5.84 1.963-3.005 2.078-3.43 6.109-3.43 11.6v35.385c0 5.492.425 9.523 3.43 11.6 1.53 1.059 3.728 1.61 5.84 1.964 4.097.687 7.863.63 11.96 0 2.11-.324 4.308-.8 5.84-1.963 2.971-2.257 3.43-7.1 3.43-11.456zm22.703 55.997c-.787 2.863-2.042 5.8-4.036 8.116-1.68 1.953-3.884 3.465-6.087 4.614-3.745 1.954-7.488 2.86-12.665 2.86h-30.33c-4.063 0-8.693-.89-12.665-2.86-2.337-1.159-4.447-2.691-6.088-4.614-1.947-2.28-3.235-5.11-4.035-8.116-1.158-4.348-1.298-9.068-1.298-13.045v-50.23c0-3.977.14-8.697 1.297-13.046.8-3.006 2.088-5.835 4.036-8.116 1.64-1.922 3.75-3.455 6.087-4.614 3.973-1.97 8.602-2.86 12.666-2.86h30.33c5.177 0 8.92.907 12.665 2.86 2.203 1.15 4.407 2.662 6.087 4.614 1.994 2.317 3.249 5.254 4.036 8.116 1.138 4.14 1.297 8.126 1.297 13.045v50.231c0 4.92-.159 8.905-1.297 13.045" style="display:inline;fill:#fff;fill-opacity:1;stroke:none;stroke-width:.944827;stroke-linecap:round" transform="translate(99.75 49)"/></g><g style="display:inline;stroke-width:6.66667;stroke-dasharray:none"><path d="M726.11 59.166h-41.574m0 0v54.803m41.574 0V59.166m-41.574 54.803h41.574M1765.48-451.07v102.047m-41.57-102.047v102.047m41.57-102.047h-41.57m0 102.047h41.57m-41.57-102.047v102.047m-41.58-102.047v102.047m41.58-102.047h-41.58m0 102.047h41.58m-41.58-102.047v102.047m-41.57-102.047v102.047m41.57-102.047h-41.57m0 102.047h41.57m-83.15-102.047v102.047m-41.57-102.047v102.047m41.57-102.047h-41.57m0 102.047h41.57m-41.57-102.047v102.047m-41.58-102.047v102.047m41.58-102.047h-41.58m0 102.047h41.58m-124.73 0h41.58m0-102.047v102.047m-41.58-102.047v102.047m41.58-102.047h-41.58m0 0v102.047m-41.57-102.047v102.047m41.57-102.047h-41.57m0 102.047h41.57m-83.15 0h41.58m0-102.047v102.047m-41.58-102.047v102.047m41.58-102.047h-41.58m-41.57 102.047h41.57m0-102.047v102.047m-41.57-102.047v102.047m41.57-102.047h-41.57m83.15 306.142h-41.58m41.58 0v-102.048m-41.58 0v102.048m41.58-102.048h-41.58m0 0h-41.57m41.57 102.048h-41.57m41.57-102.048v102.048m-41.57-102.048v102.048m249.45 0h-41.58m41.58 102.047h-41.58m41.58 0v-102.047m-41.58 0v102.047m0 0h-41.57m41.57-102.047v102.047m-41.57-102.047v102.047m41.57-102.047h-41.57m249.45 204.094h-41.58m41.58 0V-42.88m-41.58 0V59.166m41.58-102.047h-41.58m0 0h-41.57m0 0V59.166m41.57 0h-41.57m41.57-102.047V59.166m-166.3 0v102.047m-41.57 0V59.166m41.57 0h-41.57m41.57 102.047h-41.57m83.15-102.047v102.047m-41.58-102.047v102.047m41.58-102.047h-41.58m41.58 102.047h-41.58M1391.31-42.881V59.166M1349.73-42.88V59.166m41.58-102.047h-41.58m41.58 102.047h-41.58m0-102.047V59.166m-41.57 0V-42.88m41.57 0h-41.57m41.57 102.047h-41.57M726.11-42.88V59.166m0 0h-41.574M726.11-42.88h-41.574m0 0V59.166M767.685-42.88V59.166m0-102.047H726.11m0 0V59.166m0 0h41.575m-207.874 0v102.047m0 0h-41.575m41.575-102.047h-41.575m0 0v102.047m83.15-102.047v102.047m0-102.047h-41.575m0 0v102.047m0 0h41.575M393.512 8.143v51.023m0 0h-41.575m0-51.023v51.023m0-51.023h41.575m41.575-51.024V59.166m0 0h-41.575m0 0V-42.88m0 0h41.575m124.724-56.693v56.693m0 0h-41.575m0-56.693v56.693m0-56.693h41.575m41.575-45.354V-42.88m0 0h-41.575m0 0v-102.047m0 0h41.575m124.724-56.695v56.695m0 0h-41.574m0-56.695v56.695m0-56.695h41.574m41.575-45.353v102.048m0 0H726.11m0 0v-102.048m0 0h41.575M351.937-349.023h-41.575m41.575-102.047v102.047m0-102.047h-41.575m0 102.047V-451.07m83.15 0v102.047m0-102.047h-41.575m0 0v102.047m41.575 0h-41.575m83.15-102.047v102.047m0-102.047h-41.575m0 0v102.047m41.575 0h-41.575m83.15-102.047v102.047m0-102.047h-41.575m0 0v102.047m41.575 0h-41.575m83.149-102.047v102.047m0-102.047h-41.574m0 0v102.047m41.574 0h-41.574m83.149-102.047v102.047m0-102.047h-41.575m0 0v102.047m41.575 0h-41.575m83.15-102.047v102.047m0-102.047h-41.575m0 0v102.047m41.575 0h-41.575m83.15-102.047v102.047m0-102.047h-41.575m0 0v102.047m41.575 0h-41.575m83.15-102.047v102.047m0-102.047h-41.575m0 0v102.047m41.575 0h-41.575M726.11-451.07v102.047m0-102.047h-41.574m0 0v102.047m41.574 0h-41.574m83.149-102.047v102.047m0-102.047H726.11m0 0v102.047m41.575 0H726.11m748.35 204.095h-41.58m0-56.695v56.695m41.58-56.695h-41.58m41.58 56.695v-56.695m-41.58 56.695h-41.57m41.57-56.695v56.695m-41.57-56.695v56.695m41.57-56.695h-41.57m249.45-249.447v102.047m-41.58-102.047v102.047m41.58-102.047h-41.58m0 102.047h41.58m-41.58 306.142h-41.57m41.57-56.693v56.693m-41.57-56.693v56.693m41.57-56.693h-41.57m207.87 158.74h-41.57m41.57-51.023v51.023m-41.57-51.023v51.023m41.57-51.023h-41.57m83.15 51.023h-41.58m0-51.023v51.023m41.58-51.023v51.023m0-51.023h-41.58m41.58 153.07h-41.58m0-102.047v102.047m41.58-102.047h-41.58m41.58 0v102.047m-124.73 0v102.048m-41.57 0V161.213m41.57 0h-41.57m0 102.048h41.57m41.58-102.048v102.048m-41.58-102.048v102.048m41.58-102.048h-41.58m0 102.048h41.58m41.57-102.048v102.048m-41.57-102.048v102.048m41.57-102.048h-41.57m0 102.048h41.57m-166.3-102.048v58.583m0-58.583h-41.57m41.57 58.583h-41.57m0 0v-58.583m83.15 0v58.583m-41.58-58.583v58.583m41.58-58.583h-41.58m41.58 58.583h-41.58m-124.72-160.63v54.803m-41.58-54.803v54.803m41.58-54.803h-41.58m41.58 54.803h-41.58m0-54.803v54.803m0-54.803h-41.57m41.57 54.803h-41.57m0 0V59.166M1308.16-42.88v56.693m-41.58-56.693v56.693m41.58-56.693h-41.58m41.58 56.693h-41.58m0-56.693v56.693m0-56.693h-41.57m41.57 56.693h-41.57m0 0V-42.88m0-102.047V-42.88m-41.58-102.047V-42.88m41.58-102.047h-41.58m0 102.047h41.58m-41.58 102.047h-41.57m0-102.047V59.166m41.57-102.047h-41.57m41.57 102.047V-42.88m0 204.094h-41.57m0-102.047v102.047m41.57-102.047h-41.57m41.57 102.047V59.166m0 204.095h-41.57m0-102.048v102.048m41.57-102.048h-41.57m41.57 102.048V161.213m-166.3 102.048v1.889m0-1.889h-41.571m0 0v1.889m0 0h41.571m-41.571-1.889v1.889m0-1.889h-41.574m0 1.889h41.574m-41.574-1.889v1.889m166.295-1.889v1.889m-41.57-1.889v1.889m41.57-1.889h-41.57m0 1.889h41.57m41.58-1.889v1.889m0-1.889h-41.58m0 0v1.889m0 0h41.58m-83.15-1.889v1.889m0-1.889h-41.58m0 0v1.889m0 0h41.58M975.559-42.881V59.166m0 0h-41.574M975.559-42.88h-41.574m0 0V59.166m41.574 204.095h-41.574m41.574-102.048v102.048m0-102.048h-41.574m0 0v102.048m41.574-204.095v102.047m0 0h-41.574m41.574-102.047h-41.574m0 0v102.047M892.41-144.928v102.047m0 0h-41.575m41.575-102.047h-41.575m0 0v102.047M809.26 59.166V-42.88m0 0h-41.575m0 0V59.166m0 0h41.575M850.835-42.88v56.693m0-56.693H809.26m0 0v56.693m0 0h41.575m-207.874 147.4V59.166m0 0h-41.575m0 0v102.047m0 0h41.575m41.575-102.047v54.803m0-54.803h-41.575m0 0v54.803m0 0h41.575m-166.3 47.244v58.583m-41.574-58.583v58.583m41.574-58.583h-41.574m0 58.583h41.574m-41.574 43.465V161.213m-41.575 0v102.048m41.575-102.048h-41.575m0 102.048h41.575m-41.575-102.048v102.048m-41.575-102.048v102.048m41.575-102.048h-41.575m0 102.048h41.575m-41.575-102.048v102.048m-41.575-102.048v102.048m41.575-102.048h-41.575m0 102.048h41.575m-41.575-102.048v102.048m0-102.048h-41.575m0 0v102.048m0 0h41.575m0-255.118v51.023m0 0h-41.575m0-51.023v51.023m0-51.023h41.575m0 51.023v102.047m0 0h-41.575m41.575-102.047h-41.575m0 0v102.047M518.236-99.574v56.693m0 0h-41.574m0-56.693h41.574m-41.574 56.693v-56.693m207.874-102.049v56.695m0 0h-41.575m0-56.695h41.575m-41.575 56.695v-56.695M351.937-553.117v102.047m0 0h-41.575m0 0v-102.047m0 0h41.575m41.575 0v102.047m0 0h-41.575m0-102.047v102.047m0-102.047h41.575m41.575 0v102.047m0 0h-41.575m0-102.047v102.047m0-102.047h41.575m41.575 0v102.047m0 0h-41.575m0-102.047v102.047m0-102.047h41.575m41.574 0v102.047m0 0h-41.574m0-102.047v102.047m0-102.047h41.574m41.575 0v102.047m0 0h-41.575m0-102.047v102.047m0-102.047h41.575m41.575 0v102.047m0 0h-41.575m0-102.047v102.047m0-102.047h41.575m41.575 0v102.047m0 0h-41.575m0-102.047v102.047m0-102.047h41.575m41.575 0v102.047m0 0h-41.575m0-102.047v102.047m0-102.047h41.575m41.574 0v102.047m0 0h-41.574m0-102.047v102.047m0-102.047h41.574m41.575 0v102.047m0 0H726.11m0-102.047v102.047m0-102.047h41.575m41.575 0v102.047m0 0h-41.575m0-102.047v102.047m0-102.047h41.575m41.575 0v102.047m0 0H809.26m0-102.047v102.047m0-102.047h41.575m41.575 0v102.047m0 0h-41.575m0-102.047v102.047m0-102.047h41.575m41.575 0v102.047m0 0H892.41m0-102.047v102.047m0-102.047h41.575m41.574 0v102.047m0 0h-41.574m0-102.047v102.047m0-102.047h41.574m41.571 0v102.047m0 0h-41.571m0-102.047v102.047m0-102.047h41.571m41.58 0v102.047m0 0h-41.58m0-102.047v102.047m0-102.047h41.58m706.77 102.047h-41.57m41.57-102.047v102.047m-41.57-102.047v102.047m0-102.047h41.57m-41.57 102.047h-41.58m41.58-102.047v102.047m-41.58-102.047v102.047m0-102.047h41.58m-41.58 102.047h-41.57m41.57-102.047v102.047m-41.57-102.047v102.047m0-102.047h41.57m-41.57 102.047h-41.58m41.58-102.047v102.047m-41.58-102.047v102.047m0-102.047h41.58m-41.58 102.047h-41.57m41.57-102.047v102.047m-41.57-102.047v102.047m0-102.047h41.57m-41.57 102.047h-41.58m41.58-102.047v102.047m-41.58-102.047v102.047m0-102.047h41.58m-41.58 102.047h-41.57m41.57-102.047v102.047m-41.57-102.047v102.047m0-102.047h41.57m-41.57 102.047h-41.58m41.58-102.047v102.047m-41.58-102.047v102.047m0-102.047h41.58m-41.58 102.047h-41.57m41.57-102.047v102.047m-41.57-102.047v102.047m0-102.047h41.57m-41.57 102.047h-41.58m41.58-102.047v102.047m-41.58-102.047v102.047m0-102.047h41.58m-83.15 102.047h-41.58m41.58-102.047v102.047m-41.58-102.047v102.047m0-102.047h41.58m-41.58 102.047h-41.57m41.57-102.047v102.047m-41.57-102.047v102.047m0-102.047h41.57m-41.57 102.047h-41.58m41.58-102.047v102.047m-41.58-102.047v102.047m0-102.047h41.58m-41.58 102.047h-41.57m41.57-102.047v102.047m-41.57-102.047v102.047m0-102.047h41.57m-83.15 0v102.047m0 0h-41.57m0-102.047v102.047m0-102.047h41.57m41.58 102.047h-41.58m41.58-102.047v102.047m-41.58-102.047v102.047m0-102.047h41.58m665.2 102.047h-41.58m0-102.047v102.047m41.58 0v-102.047m-41.58 0h41.58M393.512 59.166v102.047m0 0h-41.575m41.575-102.047h-41.575m0 0v102.047m83.15-102.047v102.047m0 0h-41.575m41.575-102.047h-41.575m0 0v102.047m83.15-204.094V59.166m0 0h-41.575m0-102.047V59.166m0-102.047h41.575m0 102.047v102.047m0 0h-41.575m41.575-102.047h-41.575m0 0v102.047m83.149-102.047v102.047m0 0h-41.574m41.574-102.047h-41.574m0 0v102.047m41.574-204.094V59.166m0 0h-41.574m0-102.047V59.166M518.236-42.88h-41.574m83.149 0V59.166m0 0h-41.575M559.811-42.88h-41.575m0 0V59.166m83.15-102.047V59.166m0 0h-41.575M601.386-42.88h-41.575m0 0V59.166m83.15-102.047h-41.575m41.575 0V59.166m0 0h-41.575m0-102.047V59.166m0-204.094v102.047m41.575-102.047v102.047m0 0h-41.575m0-102.047h41.575m41.575 102.047V59.166m0 0h-41.575M684.536-42.88h-41.575m0 0V59.166m0-204.094v102.047m41.575-102.047v102.047m0 0h-41.575m41.575-102.047h-41.575m83.149 0h-41.574m41.574 0v102.047m0 0h-41.574m0-102.047v102.047m83.149-102.047H726.11m41.575 0v102.047m0 0H726.11m0-102.047v102.047m41.575-408.189v102.047M809.26-451.07v102.047m0-102.047h-41.575m41.575 102.047h-41.575m83.15-102.047H809.26m41.575 0v102.047m0 0H809.26m0-102.047v102.047m0 204.095h-41.575m41.575 0v102.047m0 0h-41.575m0-102.047v102.047m41.575-204.095v102.048m0 0h-41.575m0-102.048v102.048m0-102.048h41.575m41.575-102.047v102.047m0 0H809.26m41.575-102.047H809.26m0 102.047v-102.047m83.15-102.047v102.047m0 0h-41.575M892.41-451.07h-41.575m0 0v102.047m83.15-102.047v102.047m0 0H892.41m41.575-102.047H892.41m0 0v102.047m83.149-102.047v102.047m0 0h-41.574m41.574-102.047h-41.574m0 0v102.047m-83.15 204.095v102.047m0 0H809.26m41.575-102.047H809.26m0 0v102.047m41.575-204.095v102.048m0 0H809.26m0-102.048v102.048m41.575-102.048H809.26m83.15-102.047v102.047m0 0h-41.575m41.575-102.047h-41.575m0 0v102.047m83.15-102.047v102.047m0 0H892.41m41.575-102.047H892.41m0 0v102.047m83.149-102.047v102.047m0 0h-41.574m41.574-102.047h-41.574m0 0v102.047m83.145-204.094v102.047m0 0h-41.571m41.571-102.047h-41.571m0 0v102.047m83.151-102.047v102.047m0 0h-41.58m41.58-102.047h-41.58m0 0v102.047m83.15-102.047v102.047m0 0h-41.57m0-102.047v102.047m41.57-102.047h-41.57m249.45 102.047h-41.58m41.58-102.047v102.047m-41.58-102.047v102.047m41.58-102.047h-41.58M892.41-246.976v102.048m0 0h-41.575m41.575-102.048h-41.575m0 0v102.048m83.15-102.048v102.048m0 0H892.41m41.575-102.048H892.41m0 0v102.048m374.17-204.095h-41.57m41.57-102.047v102.047m-41.57-102.047v102.047m41.57-102.047h-41.57m0 102.047h-41.58m41.58-102.047v102.047m-41.58-102.047v102.047m41.58-102.047h-41.58M975.559-246.976v102.048m0 0h-41.574m41.574-102.048h-41.574m0 0v102.048m83.145-204.095v102.047m0 0h-41.571m41.571-102.047h-41.571m0 0v102.047m83.151-102.047v102.047m0 0h-41.58m41.58-102.047h-41.58m0 0v102.047m83.15-102.047v102.047m0 0h-41.57m0-102.047v102.047m41.57-102.047h-41.57m124.72 0h-41.57m41.57-102.047v102.047m-41.57-102.047v102.047m41.57-102.047h-41.57m0 102.047h-41.58m41.58-102.047v102.047m-41.58-102.047v102.047m41.58-102.047h-41.58m207.88 204.094h-41.58m0-102.047v102.047m41.58-102.047h-41.58m41.58 102.047v-102.047m41.57-102.047h-41.57m41.57-102.047v102.047m-41.57-102.047v102.047m0-102.047h41.57M933.985-144.928v102.047m0-102.047H892.41m0 0v102.047m0 0h41.575m332.595-204.095h-41.57m41.57-102.047v102.047m-41.57-102.047v102.047m41.57-102.047h-41.57m0 102.047h-41.58m41.58-102.047v102.047m-41.58-102.047v102.047m41.58-102.047h-41.58M975.559-144.928v102.047m0 0h-41.574m41.574-102.047h-41.574m0 0v102.047m83.145-204.095v102.048m0 0h-41.571m41.571-102.048h-41.571m0 0v102.048m83.151-102.048v102.048m0 0h-41.58m41.58-102.048h-41.58m0 0v102.048m83.15-102.048v102.048m0 0h-41.57m0-102.048v102.048m41.57-102.048h-41.57m124.72 0h-41.57m41.57-102.047v102.047m-41.57-102.047v102.047m41.57-102.047h-41.57m0 102.047h-41.58m41.58-102.047v102.047m-41.58-102.047v102.047m41.58-102.047h-41.58m415.75-102.047v102.047m-41.57-102.047v102.047m41.57-102.047h-41.57m0 102.047h41.57m-207.87 204.095h-41.58m41.58-102.048v102.048m-41.58-102.048v102.048m41.58-102.048h-41.58m0 102.048h-41.57m41.57-102.048v102.048m-41.57-102.048v102.048m41.57-102.048h-41.57m0 102.048h-41.58m41.58-102.048v102.048m-41.58-102.048v102.048m41.58-102.048h-41.58m-166.3 102.048v102.047m0 0h-41.571m41.571-102.047h-41.571m0 0v102.047m83.151-102.047v102.047m0 0h-41.58m41.58-102.047h-41.58m0 0v102.047m83.15-102.047v102.047m0 0h-41.57m0-102.047v102.047m41.57-102.047h-41.57m124.72 0h-41.57m41.57-102.048v102.048m-41.57-102.048v102.048m41.57-102.048h-41.57m0 102.048h-41.58m41.58-102.048v102.048m-41.58-102.048v102.048m41.58-102.048h-41.58m374.18 204.095h-41.58m41.58-102.047v102.047m-41.58-102.047v102.047m41.58-102.047h-41.58m0 102.047h-41.57m41.57-102.047v102.047m-41.57-102.047v102.047m41.57-102.047h-41.57m0 102.047h-41.58m41.58-102.047v102.047m-41.58-102.047v102.047m41.58-102.047h-41.58m0 102.047h-41.57m41.57-102.047v102.047m-41.57-102.047v102.047m41.57-102.047h-41.57m0 102.047h-41.58m41.58-102.047v102.047m-41.58-102.047v102.047m41.58-102.047h-41.58m0 102.047h-41.57m41.57-102.047v102.047m-41.57-102.047v102.047m41.57-102.047h-41.57m-41.58 102.047h-41.57m41.57-102.047v102.047m-41.57-102.047v102.047m41.57-102.047h-41.57m0 102.047h-41.58m41.58-102.047v102.047m-41.58-102.047v102.047m41.58-102.047h-41.58m-83.15 102.047V59.166m0 0h-41.571M1017.13-42.88h-41.571m0 0V59.166M1058.71-42.88V59.166m0 0h-41.58m41.58-102.047h-41.58m0 0V59.166m83.15-102.047V59.166m0 0h-41.57m0-102.047V59.166m41.57-102.047h-41.57m83.15 102.047h-41.58m41.58-102.047V59.166M1100.28-42.88V59.166m41.58-102.047h-41.58m498.9 102.047h-41.57m41.57-102.047V59.166M1557.61-42.88V59.166m41.57-102.047h-41.57m0 102.047h-41.58m41.58-102.047V59.166M1516.03-42.88V59.166m41.58-102.047h-41.58m0 102.047h-41.57m41.57-102.047V59.166M1474.46-42.88V59.166m41.57-102.047h-41.57m0 102.047h-41.58m41.58-102.047V59.166M1432.88-42.88V59.166m41.58-102.047h-41.58m0 102.047h-41.57m41.57-102.047V59.166M1391.31-42.88V59.166m41.57-102.047h-41.57m-249.45 204.094h-41.58m41.58-102.047v102.047m-41.58-102.047v102.047m41.58-102.047h-41.58m0 0v102.047m0 0h-41.57m0-102.047v102.047m41.57-102.047h-41.57M1640.76-42.88h-41.58m0-56.693v56.693m41.58-56.693h-41.58m41.58 56.693v-56.693m0 158.74h-41.58m41.58-102.047V59.166M1599.18-42.88V59.166m41.58-102.047h-41.58m0 204.094h-41.57m41.57-102.047v102.047m-41.57-102.047v102.047m41.57-102.047h-41.57m83.15 102.047h-41.58m41.58-102.047v102.047m-41.58-102.047v102.047m41.58-102.047h-41.58m83.15 102.047h-41.57m41.57-102.047v102.047m-41.57-102.047v102.047m41.57-102.047h-41.57m83.15 102.047h-41.58m41.58-102.047v102.047m-41.58-102.047v102.047m41.58-102.047h-41.58m83.15 102.047h-41.57m41.57-102.047v102.047m-41.57-102.047v102.047m41.57-102.047h-41.57m-582.05 204.095h-41.58m41.58-102.048v102.048m-41.58-102.048v102.048m41.58-102.048h-41.58m-41.57 0v102.048m0 0h-41.58m41.58-102.048h-41.58m0 0v102.048m0-204.095v102.047m0 0h-41.571m41.571-102.047h-41.571m0 0v102.047m41.571 102.048h-41.571m41.571-102.048v102.048m-41.571-102.048v102.048m41.571-102.048h-41.571m83.151-102.047v102.047m0 0h-41.58m41.58-102.047h-41.58m0 0v102.047m83.15 0v102.048m0 0h-41.57m41.57-102.048h-41.57m0 0v102.048M518.236 161.213v58.583m41.575-58.583h-41.575m0 58.583h41.575m0 0v-58.583M1765.48-451.07v102.047m41.58-102.047h-41.58m0 102.047h41.58m0 0V-451.07m-41.58 612.283v102.048m41.58-102.048h-41.58m41.58 0v102.048m-41.58 0h41.58m-623.63 0h-41.57m0 0v1.889m41.57 0v-1.889m-41.57 1.889h41.57M892.41-42.881h-41.575m0 0v56.693m41.575 0v-56.693m-41.575 56.693h41.575M684.536-725.086v-54.803m-41.575 0h41.575m-41.575 54.803v-54.803m41.575 54.803h-41.575M1765.48-1596.27h-41.57m0 0h-41.58m124.73 0h-41.58m-1413.543 0h-41.575m83.15 0h-41.575m83.15 0h-41.575m582.047 0h41.571m0 0h41.58m0 0h41.57m0 0h41.58m0 0h41.57m-249.445 102.05h41.574m-498.897-51.02h-41.575m83.149 51.02h41.575m-41.575-51.02h-41.574m83.149 51.02h41.575m914.644 0h41.58m83.15-51.02h41.57m-83.15 0h41.58m-83.15 51.02h41.57m-415.75-102.05h41.58m-41.58 102.05h41.58m-914.648-102.05v102.05m914.648 0v-102.05m-249.451 102.05v-102.05m332.601 204.1h41.57m-83.15 0h41.58m-83.15 0h41.57m-83.15 0h41.58m124.72 0h41.58m-207.88-102.05v102.05m-291.02 0h41.575m-207.875 0h41.575m83.15 0h41.575m-83.15 0h41.575m-83.15 0h41.575m124.725-102.05v102.05m831.495-102.05v-102.05m-41.57 102.05h41.57m-41.57 0v-102.05m0 102.05v-102.05m-41.58 102.05h41.58m-41.58 0v-102.05m83.15 102.05h41.58m0 0v-102.05m-41.58 102.05v-102.05m41.58 204.1v-102.05m-41.58 102.05h41.58m-41.58-102.05h41.58m-41.58 102.05v-102.05m0 816.378v-102.047m-41.57 102.047h41.57m-41.57 0v-102.047m0 0h41.57m-83.15 102.047h41.58m0 0v-102.047m-41.58 102.047v-102.047m0 0h41.58m-83.15 102.047h41.57m0 0v-102.047m-41.57 102.047v-102.047m0 0h41.57m-83.15 102.047h41.58m0 0v-102.047m-41.58 102.047v-102.047m0 0h41.58m-83.15 102.047h41.57m0 0v-102.047m-41.57 102.047v-102.047m0 0h41.57m-41.57 102.047v-102.047m-41.58 102.047h41.58m-41.58 0v-102.047m0 0h41.58M310.362-881.936h41.575m0 0v-51.024m-41.575 0v51.024m0-51.024h41.575m-41.575 153.071h41.575m0 0v-102.047m-41.575 0v102.047m0-102.047h41.575M1807.06-1341.15v-51.02m-41.58 0h41.58m-41.58 51.02v-51.02m0 51.02h41.58m0 459.214v-51.024m-41.58 51.024h41.58m-41.58 0v-51.024m41.58 0h-41.58m41.58 153.071v-102.047m-41.58 102.047h41.58m-41.58-102.047h41.58m-41.58 102.047v-102.047m0 204.094h41.58m0 0v-102.047m-41.58 102.047v-102.047m0 0h41.58M351.937-677.842v-102.047m-41.575 102.047h41.575m-41.575-102.047v102.047m0-102.047h41.575m-41.575-714.331h41.575m0 0v-102.05m-41.575 204.1h41.575m0 0v-102.05m-41.575 0v102.05m0-102.05h41.575m-41.575 102.05v51.02m41.575 0v-51.02m-41.575 0h41.575m0 51.02h-41.575m83.15-153.07v-102.05m-41.575 102.05h41.575m-41.575 0v-102.05m0 918.428h41.575m0 0v-102.047m-41.575 102.047v-102.047m0 0h41.575m41.575-714.331v-102.05m-41.575 102.05h41.575m-41.575 0v-102.05m41.575 918.428v-102.047m-41.575 102.047h41.575m-41.575 0v-102.047m0 0h41.575m41.575 102.047v-102.047m-41.575 102.047h41.575m-41.575 0v-102.047m0 0h41.575m41.574 102.047v-102.047m-41.574 102.047h41.574m-41.574 0v-102.047m0 0h41.574m0 102.047h41.575m0 0v-102.047m-41.575 102.047v-102.047m0 0h41.575m0 102.047h41.575m0 0v-102.047m-41.575 102.047v-102.047m0 0h41.575m665.194-102.047h-41.57m41.57-102.047v102.047m0-102.047h-41.57m0 102.047v-102.047m-41.58-102.047v102.047m-41.57-102.047v102.047m41.57-102.047h-41.57m41.57 102.047h-41.57m-41.58 0v60.472m-41.57-60.472v60.472m41.57-60.472h-41.57m41.57 60.472h-41.57m0-60.472v60.472m-41.58-60.472v60.472m41.58-60.472h-41.58m41.58 60.472h-41.58m-41.571-60.472v102.047m-41.574-102.047v102.047m41.574-102.047h-41.574m41.574 102.047h-41.574m0-102.047v102.047M892.41-983.983v102.047m41.575-102.047H892.41m41.575 102.047H892.41m291.02-510.234v102.04m0-102.04h-41.57m0 0v102.04m41.57 0h-41.57m0-102.04v102.04m0-102.04h-41.58m0 0v102.04m41.58 0h-41.58m0-102.04v102.04m0-102.04h-41.57m0 0v102.04m41.57 0h-41.57m0-102.04v102.04m0-102.04h-41.58m0 0v102.04m41.58 0h-41.58m0-102.04v102.04m0-102.04h-41.571m0 0v102.04m41.571 0h-41.571m0-102.04v102.04m-41.574-102.04v102.04m41.574-102.04h-41.574m41.574 102.04h-41.574m0-102.04v102.04m-41.575-102.04v102.04m41.575 0H892.41m0 102.05h-41.575m41.575-102.05h-41.575m0 0v102.05m41.575-102.05v102.05m41.575 204.097H892.41m41.575-102.047v102.047M892.41-1086.03v102.047m0-102.047h41.575m124.725 0h-41.58m0-47.24v47.24m0-47.24h41.58m0 0v47.24m-83.151-47.24h41.571m0 47.24h-41.571m41.571-47.24v47.24m-41.571 0v-47.24m166.301-54.81v102.05m41.57 0h-41.57m41.57-102.05v102.05m-41.57-102.05h41.57m-41.57 102.05h-41.58m41.58-102.05v102.05m-41.58 0v-102.05m0 0h41.58m166.3-204.09v102.04m41.57-102.04v102.04m0 0h-41.57m-41.58-102.04v102.04m41.58-102.04v102.04m0 0h-41.58m-41.57-102.04v102.04m41.57-102.04v102.04m0 0h-41.57m0-102.04v102.04m-41.58-102.04v102.04m41.58 0h-41.58m207.88 0v102.05m-41.58-102.05v102.05m41.58 0h-41.58m41.58-102.05h-41.58m0 102.05v102.05m41.58 0h-41.58m41.58-102.05h-41.58m41.58 0v102.05m0 102.047h-41.58m0-102.047v102.047m41.58-102.047h-41.58m41.58 0v102.047m0 102.047h-41.58m0-102.047v102.047m41.58-102.047h-41.58m41.58 0v102.047m0-408.194h-41.58m41.58-102.04v102.04m-41.58-102.04v102.04m41.58 408.194v102.047m0-102.047h-41.58m41.58 102.047h-41.58m0-102.047v102.047M726.11-677.842h41.575m0-102.047v102.047m0-102.047H726.11m0 0v102.047m83.15-102.047v102.047m-41.575-102.047v102.047m41.575-102.047h-41.575m0 102.047h41.575m41.575-102.047H809.26m41.575 0v102.047M809.26-779.889v102.047m0 0h41.575m41.575-102.047v102.047m-41.575-102.047v102.047m41.575-102.047h-41.575m0 102.047h41.575m0 0h41.575M892.41-779.889h41.575m-41.575 0v102.047m41.575-102.047v102.047m0 0h41.574m0-102.047v102.047m-41.574-102.047h41.574m-41.574 0v102.047m41.574 0h41.571m0-102.047v102.047m-41.571-102.047v102.047m0-102.047h41.571m0 102.047h41.58m0-102.047v102.047m-41.58-102.047v102.047m0-102.047h41.58m0 102.047h41.57m-41.57-102.047h41.57m0 0v102.047m-41.57-102.047v102.047m83.15-102.047v102.047m-41.58-102.047v102.047m0-102.047h41.58m-41.58 102.047h41.58m0 0h41.57m0-102.047v102.047m-41.57-102.047v102.047m0-102.047h41.57m0 102.047h41.58m0-102.047v102.047m-41.58-102.047h41.58m-41.58 0v102.047m83.15-102.047v102.047m0-102.047h-41.57m0 0v102.047m0 0h41.57m0 0h41.58m0-102.047v102.047m-41.58-102.047v102.047m41.58-102.047h-41.58m41.58 102.047h41.57m0-102.047v102.047m-41.57-102.047v102.047m41.57-102.047h-41.57M726.11-1290.13v102.05m41.575-102.05v102.05m0 0H726.11m41.575-102.05H726.11m0 102.05v102.05m41.575-102.05v102.05m0 0H726.11m41.575-102.05H726.11m0 102.05v102.047m41.575 0H726.11m41.575-102.047v102.047m0-102.047H726.11m0 102.047v102.047m41.575 0H726.11m41.575-102.047v102.047m0-102.047H726.11m0-408.187v102.04m41.575-102.04v102.04m0 0H726.11m0 408.194v102.047m41.575 0H726.11m41.575-102.047v102.047m0-102.047H726.11m166.3-510.234v102.04m0 0h-41.575m0-102.04v102.04m0-102.04v102.04m0 0H809.26m0-102.04v102.04m0 0h-41.575m41.575-102.04v102.04m-41.575-102.04v102.04m249.445-204.09h-41.571m41.571-102.05v102.05m41.58-102.05v102.05m0 0h-41.58m0-102.05v102.05m83.15-102.05v102.05m0 0h-41.57m0-102.05v102.05m41.57-102.05v102.05m41.58-102.05v102.05m0 0h-41.58m83.15-102.05v102.05m0 0h-41.57m0-102.05v102.05m-291.025 306.14H809.26m41.575-102.05v102.05m0-102.05H809.26m0 0v102.05m0 0h-41.575m41.575-102.05v102.05m0-102.05h-41.575m0 0v102.05m291.025 54.81h41.57m-41.57 0v47.24m41.57 0h-41.57m41.57-47.24v47.24m41.58 0h-41.58m0 0v102.047m41.58 0h-41.58m41.58-102.047v102.047m-41.58-102.047h-41.57m0 0v102.047m41.57 0h-41.57m41.57-102.047v102.047m-41.57-102.047h-41.58m0 0v102.047m41.58 0h-41.58m41.58-102.047v102.047m-41.58 0h-41.571m41.571-102.047v102.047m-41.571-102.047v102.047m41.571-102.047h-41.571m-41.574 0v102.047m41.574 0h-41.574m41.574-102.047v102.047m-41.574-102.047h41.574m41.571 102.047h-41.571m41.571 0v102.047m-41.571-102.047v102.047m41.571 0h-41.571m374.171-408.194v102.05m0 0h-41.57m41.57-102.05h-41.57m0 0v102.05m0 102.05h-41.58m41.58-102.05v102.05m-41.58-102.05v102.05m41.58-102.05h-41.58m-41.57 102.05v102.047m41.57 0h-41.57m41.57-102.047v102.047m0-102.047h-41.57m0 0h-41.58m41.58 0v102.047m-41.58-102.047v102.047m41.58 0h-41.58m83.15-102.047h-41.57m41.57-102.05v102.05m-41.57-102.05v102.05m41.57-102.05h-41.57m83.15-102.05h-41.58m0 0v102.05m41.58 0h-41.58m41.58-102.05v102.05m-83.15 0v102.05m0 0h-41.58m0-102.05v102.05m0-102.05h41.58m41.57-102.05h-41.57m41.57 0v102.05m0 0h-41.57m0 0v-102.05m-41.58-102.04h-41.57m41.57-102.05h-41.57m0 0v102.05m207.87 306.14h-41.57m41.57-102.05v102.05m-41.57-102.05v102.05m41.57-102.05h-41.57m-41.58 102.05v102.047m41.58 0h-41.58m41.58-102.047v102.047m0-102.047h-41.58m-457.32 0h-41.575m41.575-102.05v102.05m0-102.05h-41.575m0 0v102.05m41.575 0h-41.575m0 0v102.047m41.575 0h-41.575m41.575-102.047v102.047m41.575-204.097v102.05m0 0H809.26m41.575-102.05H809.26m0 0v102.05m0 0v102.047m41.575 0H809.26m41.575-102.047v102.047m0-102.047H809.26m-41.575 102.047v102.047m41.575 0h-41.575m41.575-102.047v102.047m0-102.047h-41.575M892.41-1086.03h-41.575m41.575-102.05h-41.575m0 0v102.05m41.575-102.05v102.05m0 102.047h-41.575m41.575-102.047v102.047m-41.575-102.047v102.047m41.575-102.047h-41.575m0 102.047v102.047m0 0H809.26m0-102.047v102.047m41.575-102.047H809.26m0 204.094h-41.575m41.575-102.047v102.047m-41.575-102.047v102.047m41.575-102.047h-41.575M892.41-983.983v102.047m0 0h-41.575m0-102.047v102.047m41.575-102.047h-41.575m0 102.047v102.047m0-102.047H809.26m0 0v102.047m41.575 0H809.26m83.15-102.047h-41.575m41.575 102.047h-41.575m0-102.047v102.047m41.575-102.047v102.047m415.75-306.141v102.047m41.57 0h-41.57m41.57-102.047v102.047m0-102.047h-41.57m-41.58 102.047v102.047m41.58 0h-41.58m41.58-102.047v102.047m0-102.047h-41.58m0 102.047h-41.57m41.57 102.047h-41.57m41.57-102.047v102.047m-41.57 0v-102.047m83.15-102.047v102.047m41.57 0h-41.57m41.57-102.047v102.047m0-102.047h-41.57m-41.58 102.047v102.047m41.58 0h-41.58m41.58-102.047v102.047m0-102.047h-41.58m83.15 102.047h-41.57m41.57-102.047v102.047m-41.57-102.047v102.047m41.57-102.047h-41.57M975.559-1392.17h-41.574m41.574-102.05v102.05m41.571-102.05v102.05m0 0h-41.571m0-102.05v102.05m41.571-102.05h-41.571m83.151 0v102.05m0 0h-41.58m41.58-102.05h-41.58m0 0v102.05m83.15-102.05h-41.57m41.57 0v102.05m0 0h-41.57m0-102.05v102.05m83.15-102.05h-41.58m41.58 0v102.05m0 0h-41.58m0-102.05v102.05M642.961-881.936h41.575m-41.575 102.047h41.575m0 0v-102.047m-41.575 102.047v-102.047m0-102.047h41.575m-41.575 102.047h41.575m0 0v-102.047m-41.575 102.047v-102.047m0 0v-102.047m41.575 102.047v-102.047m-41.575 102.047h41.575m-41.575-102.047h41.575m-41.575 360.944h-41.575m0 0v-54.803m41.575 54.803v-54.803m-41.575 0h41.575M351.937-881.936v-102.047m0 0h41.575m0 102.047v-102.047m-41.575 102.047h41.575m41.575-102.047v-51.027m0 51.027h41.575m0 0v-51.027m0 0h-41.575m166.299 51.027v-102.047m41.575 102.047v-102.047m-41.575 102.047h41.575m-41.575-102.047h41.575m-83.15 102.047v-102.047m41.575 102.047v-102.047m-41.575 102.047h41.575m-41.575-102.047h41.575m-83.15 102.047v-102.047m0 0h41.575m0 102.047v-102.047m-41.575 102.047h41.575M393.512-779.889v-102.047m0 0h41.575m-41.575 102.047h41.575m0 0v-102.047m-83.15 0h41.575m-41.575 102.047h41.575m0 0v-102.047m-41.575 102.047v-102.047m41.575 0v-102.047m41.575 102.047v-102.047m-41.575 102.047h41.575m-41.575-102.047h41.575m166.299 102.047h41.575m-41.575 102.047h41.575m0 0v-102.047m-41.575 102.047v-102.047m-166.299 0h41.575m-41.575 102.047h41.575m0 0v-102.047m-41.575 102.047v-102.047m0 0v-102.047m0 102.047h41.575m0 0v-102.047m-41.575 0h41.575m83.149 102.047h41.575m-41.575 102.047v-102.047m0 102.047h41.575m0 0v-102.047m0 0v-102.047m0 102.047h41.575m0 0v-102.047m-41.575 0h41.575M518.236-881.936h41.575m-41.575 102.047h41.575m0 0v-102.047m-41.575 102.047v-102.047m83.15 0v-102.047m-41.575 102.047h41.575m-41.575 0v-102.047m0 0h41.575M476.662-881.936h41.574m-41.574 102.047v-102.047m0 102.047h41.574m0 0v-102.047m0 0v-102.047m0 102.047h41.575m0 0v-102.047m-41.575 0h41.575m-83.149 102.047v-102.047m0 102.047h41.574m0 0v-102.047m-41.574 0h41.574m-41.574 0v-51.027m0 51.027h41.574m0 0v-51.027m0 0h-41.574m166.299-357.16v-51.03m0 51.03h41.575m0 0v-51.03m0 0h-41.575m0 51.03h41.575m-41.575 102.04v-102.04m0 102.04h41.575m0 0v-102.04m-41.575 102.04h41.575m-41.575 102.05v-102.05m0 102.05h41.575m0 0v-102.05m-83.15 153.08v-51.03m0 0h41.575m0 51.03h-41.575m41.575 0v-51.03m-124.725-102.05h41.575m-41.575 102.05h41.575m0 0v-102.05m-41.575 102.05v-102.05m-83.149 51.03v-51.03m41.575 51.03v-51.03m-41.575 0h41.575m0 51.03h-41.575m-83.15-51.03h41.575m0 0v-102.04m-41.575 0h41.575m-41.575 102.04v-102.04m83.15-102.05v-51.02m0 51.02h41.575m0 0v-51.02m41.574 153.07v-102.05m41.575 102.05v-102.05m-41.575 102.05h41.575m41.575 0v-51.03m0 51.03h41.575m0 0v-51.03m0 0h-41.575m-249.449 51.03v-102.05m0 102.05h41.575m0 0v-102.05m-41.575 0h41.575m0 102.05v-102.05m0 102.05h41.575m0 0v-102.05m-41.575 0h41.575m41.575 0h41.574m0 0v-51.02m-41.574 51.02v-51.02m-41.575 153.07h41.575m0 0v-102.05m-41.575 102.05v-102.05m0 0h41.575m-83.15 204.09h41.575m0 0v-102.04m-41.575 0h41.575m-41.575 102.04v-102.04m83.15-102.05h41.574m-41.574 102.05v-102.05m0 102.05h41.574m0 0v-102.05m-83.149 102.05h41.575m-41.575 102.04v-102.04m0 102.04h41.575m0 0v-102.04m0 102.04h41.574m0 0v-102.04m-41.574 102.04v-102.04m0 0h41.574m83.15 0v-102.05m-41.575 102.05h41.575m-41.575 0v-102.05m-41.575 204.09h41.575m0 0v-102.04m-41.575 102.04v-102.04m0 0h41.575m-83.149 102.04h41.574m-41.574 51.03v-51.03m41.574 51.03h-41.574m41.574 0v-51.03m41.575 0h41.575m0 0v-102.04m-41.575 0h41.575m-41.575 102.04v-102.04m41.575 102.04h41.575m-41.575 102.05v-102.05m0 102.05h41.575m0 0v-102.05m-41.575 0h41.575m0 0v-102.04m-41.575 102.04v-102.04m0 0h41.575m-83.15 204.09h41.575m0 0v-102.05m-41.575 102.05v-102.05m0 0h41.575m831.494 565.044h41.58m0 0v-54.803m-41.58 0h41.58m-41.58 54.803v-54.803m0 0h41.58m0 0v-102.047m-41.58 0h41.58m-41.58 102.047v-102.047m0 0v-102.047m0 102.047h41.58m0 0v-102.047m-41.58 0h41.58m0 0v-102.047m-41.58 102.047h41.58m-41.58 0v-102.047m0 0h41.58m41.57 102.047v-102.047m-41.57 102.047h41.57m-41.57 0v-102.047m0 0h41.57m41.58 102.047v-102.047m-41.58 102.047h41.58m-41.58 0v-102.047m0 0h41.58m41.57 102.047h41.58m0 0v-51.027m-41.58 51.027v-51.027m0 0h41.58m83.15 153.074v-102.047m-41.58 102.047h41.58m-41.58 0v-102.047m0 0h41.58m-41.58 204.094h41.58m0 0v-102.047m-41.58 102.047v-102.047m0 0h41.58m-83.15 102.047h41.57m0 0v-102.047m-41.57 102.047v-102.047m0 0h41.57m-166.3 156.85v-54.803m-41.57 54.803v-54.803m0 0h41.57m-41.57 54.803h41.57m0-54.803h41.58m0 0v-102.047m-41.58 102.047v-102.047m0 0h41.58m166.3 102.047h41.57m0 0v-102.047m-41.57 102.047v-102.047m0 0h41.57m-41.57 0h41.57m0 0v-102.047m-41.57 102.047v-102.047m0 0h41.57m-291.02 204.094v-102.047m0 102.047h41.57m0 0v-102.047m-41.57 0h41.57m41.58 0v-102.047m-41.58 102.047h41.58m-41.58 0v-102.047m0 0h41.58m-41.58 102.047v-102.047m-41.57 102.047h41.57m-41.57 0v-102.047m0 0h41.57m83.15 102.047h41.58m0 0v-102.047m-41.58 102.047v-102.047m0 0h41.58m-83.15 204.094h41.57m0 0v-102.047m-41.57 102.047v-102.047m0 0h41.57m0 0v-102.047m-41.57 102.047h41.57m-41.57 0v-102.047m0 0h41.57m0 0v-102.047m-41.57 102.047h41.57m-41.57 0v-102.047m0 0h41.57m0 306.141h41.58m0 0v-102.047m-41.58 102.047v-102.047m0 0h41.58m0-102.047h41.57m-41.57 102.047v-102.047m0 102.047h41.57m0 0v-102.047m-41.57 0h41.57m0 0v-51.027m-41.57 51.027v-51.027m0 0h41.57m-249.45-153.07v-102.05m0 102.05h41.58m0 0v-102.05m-41.58 0h41.58m-41.58 0h41.58m0 0v-102.04m-41.58 0h41.58m-41.58 102.04v-102.04m0 0v-51.03m41.58 51.03v-51.03m-41.58 51.03h41.58m-41.58-51.03h41.58m-41.58 306.15h41.58m0 0v-51.03m-41.58 0h41.58m-41.58 51.03v-51.03m41.58 0h41.57m0 0v-102.05m-41.57 102.05v-102.05m0 0h41.57m-41.57-102.04h41.57m-41.57 102.04v-102.04m0 102.04h41.57m0 0v-102.04m0 204.09h41.58m0 0v-102.05m-41.58 102.05v-102.05m0 0h41.58m-41.58 0h41.58m0 0v-102.04m-41.58 0h41.58m-41.58 102.04v-102.04m41.58 102.04h41.57m0 0v-102.04m-41.57 0h41.57m-41.57 102.04v-102.04m0 0v-102.05m-41.58 102.05h41.58m-41.58 0v-102.05m41.58 306.14h41.57m0 0v-102.05m-41.57 102.05v-102.05m0 0h41.57m0 0h41.58m0 0v-102.04m-41.58 102.04v-102.04m0 0h41.58m-41.58-102.05h41.58m-41.58 102.05v-102.05m0 102.05h41.58m0 0v-102.05m83.15 204.09h41.57m0 0v-102.04m-41.57 102.04v-102.04m0 0h41.57m-124.72 153.07v-51.03m-41.58 0h41.58m-41.58 51.03v-51.03m0 51.03h41.58m0-51.03h41.57m0 0v-102.04m-41.57 102.04v-102.04m0 0h41.57m0 0h41.58m0 0v-102.05m-41.58 0h41.58m-41.58 102.05v-102.05m0 102.05v-102.05m-41.57 102.05h41.57m-41.57 0v-102.05m0 0h41.57m-41.57 0h41.57m0 0v-51.02m-41.57 51.02v-51.02m-41.58 51.02v-51.02m0 51.02h41.58m0 0v-51.02m-41.58 153.07v-102.05m-41.57 102.05h41.57m-41.57 0v-102.05m-83.15 102.05v-51.03m0 51.03h41.57m0 0v-51.03m-41.57 0h41.57m166.3 153.07h41.58m0 0v-102.04m-41.58 102.04v-102.04m0 0h41.58m0 0h41.57m0 0v-102.05m-41.57 0h41.57m-41.57 102.05v-102.05m-374.18 816.378h41.58m-41.58-102.047v102.047m41.58-102.047h-41.58m41.58 0v102.047m-207.88-918.428v102.05m-41.57 510.237v60.472m-41.58-60.472v60.472m41.58-60.472h-41.58m41.58 60.472h-41.58m540.48-315.589h41.57m0 0v-51.03m-41.57 0h41.57m-41.57 51.03v-51.03m-166.3 102.05h41.57m-41.57 51.03v-51.03m0 51.03h41.57m0 0v-51.03m-831.494 51.03h-41.575m41.575 0v-51.03m-41.575 0h41.575m-41.575 51.03v-51.03m1249.129 3.78h41.58m0 0v-102.05m-41.58 0h41.58m-41.58 0v102.05m540.48 918.427h41.57m0 0V-367.92m-41.57 0h41.57m-41.57 102.047V-367.92m41.57 102.047h41.58m0 0V-367.92m-41.58 0h41.58m-41.58 102.047V-367.92m41.58 102.047h41.57m0 0V-367.92m-41.57 0h41.57m-41.57 102.047V-367.92m41.57 102.047V-367.92m-41.57 0h41.57m0 0v-102.048m-41.57 0h41.57m-41.57 102.048v-102.048m-41.58 102.048h41.58m0 0v-102.048m-41.58 0h41.58m-41.58 102.048v-102.048m-41.57 102.048h41.57m0 0v-102.048m-41.57 0h41.57m-41.57 102.048v-102.048m-41.58 0h41.58m-41.58 102.048h41.58m0 0v-102.048m-41.58 102.048v-102.048m166.3-612.282v-102.05m-41.57 102.05h41.57m0 0v-102.05m-41.57 0h41.57m-41.57 102.05v-102.05m-41.58 102.05h41.58m0 0v-102.05m-41.58 0h41.58m-41.58 102.05v-102.05m-41.57 102.05h41.57m0 0v-102.05m-41.57 0h41.57m-41.57 102.05v-102.05m-83.15 204.096h41.57m-41.57 102.047v-102.047m0 102.047h41.57m0-102.047v102.047m-374.17 612.284h-41.58m0 0V-367.92m0 0h41.58m0 102.047V-367.92m41.57 102.047h-41.57m0 0V-367.92m0 0h41.57m0 102.047V-367.92m41.58 102.047h-41.58m0-102.047h41.58m-41.58 102.047V-367.92m41.58 102.047V-367.92m-124.73 102.047h-41.57m0-102.047h41.57m-41.57 102.047V-367.92m41.57 102.047V-367.92m166.3 102.047h-41.57m0-102.047h41.57m-41.57 102.047V-367.92m41.57 0v102.047m0-714.331v102.047m0 0h41.58m0 0v-102.047m-41.58 0h41.58m-83.15-102.046h41.57m0 0v-102.05m-41.57 0h41.57m-41.57 102.05v-102.05m-41.58 102.05h41.58m0 0v-102.05m-41.58 0h41.58m-41.58 102.05v-102.05m-41.57 102.05h41.57m0 0v-102.05m-41.57 0h41.57m-41.57 102.05v-102.05m-41.58 102.05h41.58m0 0v-102.05m-41.58 0h41.58m-41.58 102.05v-102.05m-41.57 102.05h41.57m0 0v-102.05m-41.57 0h41.57m-41.57 102.05v-102.05m-41.58 0v102.05m0 0h41.58m-41.58-102.05h41.58m0 102.05v-102.05m166.3 0h41.57m0 0v-102.05m-41.57 0h41.57m-41.57 102.05v-102.05m-41.58 102.05h41.58m0 0v-102.05m-41.58 0h41.58m-41.58 102.05v-102.05m-41.57 102.05h41.57m0 0v-102.05m-41.57 0h41.57m-41.57 102.05v-102.05m-41.58 102.05h41.58m0 0v-102.05m-41.58 0h41.58m-41.58 102.05v-102.05m-41.57 102.05h41.57m0 0v-102.05m-41.57 0h41.57m-41.57 102.05v-102.05m207.87 0h41.58m0 0v-102.04m-41.58 0h41.58m-41.58 0v102.04m0-204.09v102.05m0 0h41.58m0 0v-102.05m-41.58 0h41.58m166.3-102.05h41.57m-41.57 102.05v-102.05m0 102.05h41.57m0-102.05v102.05m-83.15-102.05h41.58m0 102.05v-102.05m-41.58 102.05v-102.05m0 102.05h41.58m-83.15 0v-102.05m0 102.05h41.57m0 0v-102.05m-41.57 0h41.57m-41.57 102.05v-102.05m-41.58 102.05v-102.05m0 102.05h41.58m-41.58-102.05h41.58m-83.15 0h41.57m0 102.05v-102.05m-41.57 102.05v-102.05m0 102.05h41.57m124.73 204.09v-102.04m0 102.04h41.57m0-102.04v102.04m-41.57-102.04h41.57m-41.57 0v-102.05m0 102.05h41.57m0-102.05v102.05m-41.57-102.05h41.57m166.3 306.14v-102.05m-41.57 102.05h41.57m0 0v-102.05m-41.57 0h41.57m-41.57 102.05v-102.05m-41.58 102.05h41.58m0 0v-102.05m-41.58 0h41.58m-41.58 102.05v-102.05m-41.57 102.05h41.57m0 0v-102.05m-41.57 0h41.57m-41.57 102.05v-102.05m124.72 918.43v-102.048m-166.3 204.095h41.58m0 0V-367.92m-41.58 0h41.58m-41.58 0v102.047m-41.57-918.427h41.57m-41.57 102.05v-102.05m0 102.05h41.57m0 0v-102.05m0 0h41.58m0 0v-102.05m-41.58 0h41.58m-41.58 102.05v-102.05m-41.57 102.05v-102.05m0 102.05h41.57m0 0v-102.05m-41.57 0h41.57m41.58 204.1v-102.05m-41.58 102.05h41.58m-41.58-102.05h41.58m-41.58 102.05v-102.05m0 102.05v102.046m-41.57 0h41.57m-41.57-102.046h41.57m-41.57 102.046v-102.046m-41.58 102.046h41.58m-41.58 102.047v-102.047m0 102.047h41.58m0 0v-102.047m0 0v-102.046m-41.58 102.046h41.58m-41.58-102.046h41.58m-41.58 102.046v-102.046m0 0v-102.05m0 102.05h41.58m0 0v-102.05m-41.58 0h41.58m-41.58 0v-102.05m0 102.05h41.58m0 0v-102.05m-41.58 0h41.58m-83.15 408.193h41.57m-41.57 102.048v-102.048m0 102.048h41.57m0 0v-102.048m-41.57 0h41.57m0 0v-102.047m-41.57 102.047v-102.047m0 0h41.57m-41.57 0h41.57m0 0v-102.046m-41.57 0h41.57m-41.57 102.046v-102.046m0 0v-102.05m0 102.05h41.57m0 0v-102.05m-41.57 0h41.57m-41.57 0h41.57m0 0v-102.05m-41.57 0h41.57m-41.57 102.05v-102.05m41.57 0h41.58m0 0v-102.04m-41.58 0h41.58m-41.58 102.04v-102.04m-41.57 102.04v-102.04m0 102.04h41.57m0 0v-102.04m-41.57 0h41.57m-83.15 204.09h41.58m0 0v-102.05m-41.58 0h41.58m-41.58 102.05v-102.05m0 510.241h41.58m-41.58 102.047v-102.047m0 102.047h41.58m0 0v-102.047m-41.58 0h41.58m-41.58 0v-102.048m41.58 102.048v-102.048m-41.58 0h41.58m0 0v-102.047m-41.58 102.047h41.58m-41.58-102.047h41.58m-41.58 102.047v-102.047m0-102.046h41.58m-41.58 102.046v-102.046m0 102.046h41.58m0 0v-102.046m-41.58 0v-102.05m0 102.05h41.58m0 0v-102.05m-41.58 0h41.58m83.15 408.191h-41.58m0-102.048h41.58m-41.58 102.048v-102.048m41.58 0v102.048m-83.15 0h41.57m-41.57 102.047v-102.047m41.57 102.047h-41.57m41.57-102.047v102.047m-83.15 0h41.58m-41.58 102.047v-102.047m41.58 102.047h-41.58m41.58-102.047v102.047m-41.58 102.047h-41.57m0-102.047h41.57m-41.57 102.047v-102.047m41.57 0v102.047m-41.57-102.047h41.57m0 0v-102.047m-41.57 0h41.57m-41.57 102.047v-102.047m0 0v-102.047m0 102.047h41.57m0 0v-102.047m-41.57 0h41.57m-41.57 0v-102.048m0 102.048h41.57m0 0v-102.048m-41.57 0h41.57m-41.57-204.093h41.57m0 0v-102.05m-41.57 0h41.57m-41.57 102.05v-102.05m0 0h41.57m-41.57 0v-102.05m41.57 102.05v-102.05m-41.57 0h41.57m0 0v-102.04m0 102.04h41.58m0 0v-102.04m-41.58 0h41.58m-83.15 102.04v-102.04m0 102.04h41.57m0 0v-102.04m-41.57 0h41.57m-83.15 918.422h41.58m-41.58 102.048v-102.048m41.58 102.048h-41.58m41.58-102.048v102.048m-41.58-102.048v-102.047m0 102.047h41.58m0 0v-102.047m-41.58 0h41.58m-41.58 0h41.58m0 0v-102.047m-41.58 0h41.58m-41.58 102.047v-102.047m0 0v-102.047m0 102.047h41.58m0 0v-102.047m-41.58 0h41.58m-41.58 0h41.58m0 0v-102.048m-41.58 0h41.58m-41.58 102.048v-102.048m41.58 0h41.57m0 0v-102.047m-41.57 0h41.57m-41.57 102.047v-102.047m0 0v-102.046m0 102.046h41.57m0 0v-102.046m-41.57 0h41.57m-83.15 0h41.58m0 0v-102.05m-41.58 0h41.58m-41.58 102.05v-102.05m0 0v-102.05m0 102.05h41.58m0 0v-102.05m-41.58 0h41.58m-83.15 918.43v-102.048m0 102.048h41.57m0 0v-102.048m-41.57 0h41.57m-41.57 0h41.57m0 0v-102.047m-41.57 0h41.57m-41.57 102.047v-102.047m0 0h41.57m-41.57 0v-102.047m41.57 102.047v-102.047m-41.57 0h41.57m-41.57 0v-102.047m0 102.047h41.57m0 0v-102.047m-41.57 0h41.57m0-306.141v102.046m0 0h41.58m0 0v-102.046m-41.58 0h41.58m-124.73 714.33h41.58m0 0v-102.048m-41.58 0h41.58m-41.58 102.048v-102.048m0 0v-102.047m0 102.047h41.58m0 0v-102.047m-41.58 0h41.58m-41.58 0v-102.047m0 102.047h41.58m0 0v-102.047m-41.58 0h41.58m-83.15 306.142v-102.048m0 102.048h41.57m0 0v-102.048m-41.57 0h41.57m-41.57 0h41.57m-41.57 0v-102.047m41.57 102.047v-102.047m-41.57 0h41.57m124.73-816.375h41.57m-41.57-102.05h41.57m-41.57 102.05v-102.05m41.57 102.05v-102.05m0 102.05v-102.05m0 102.05h41.58m0 0v-102.05m-41.58 0h41.58m0 102.05h41.57m-41.57 0v-102.05m41.57 102.05v-102.05m-41.57 0h41.57m0 102.05h41.58m-41.58-102.05h41.58m-41.58 102.05v-102.05m41.58 102.05v-102.05M1975.24-367.92h41.58m-41.58 0v-102.048m41.58 102.048v-102.048m-41.58 0h41.58m124.72-1122.522h41.58m-41.58 102.05h41.58m0 0v-102.05m-41.58 0v102.05m207.88 1020.472v102.048m41.57 0v-102.048m-41.57 0h41.57m-41.57 102.048h41.57m166.3-102.048v-47.244m-623.62 251.339h-41.58m41.58 0V-367.92m0 0h-41.58m0 0v102.047m41.58-102.047h41.57m0 0v-102.048m0 0h-41.57m0 0v102.048m41.57-102.048h41.58m0 0v-102.047m0 0h-41.58m0 0v102.047m41.58-204.094v102.047m0 0h41.57m0 0v-102.047m0 0h-41.57m41.57 0h41.58m0 0v-102.047m0 0h-41.58m0 0v102.047m41.58-204.095v102.048m0 0h41.57m0 0v-102.048m0 0h-41.57m706.77 204.095h41.58m-41.58 0h41.58m-41.58 102.047v-102.047m0 102.047h41.58m0-102.047v102.047m-41.58 0h41.58m-41.58 102.047v-102.047m0 102.047h41.58m0-102.047v102.047m-291.03 204.095h41.58m0 0V-367.92m-41.58 0h41.58m0 102.047h41.57m0 0V-367.92m-41.57 0h41.57m-41.57 102.047V-367.92m41.57 102.047h41.58m0 0V-367.92m-41.58 0h41.58m-41.58 102.047V-367.92m41.58 102.047h41.57m0-102.047v102.047m-41.57-102.047h41.57m-41.57 102.047V-367.92m-41.58-204.095h41.58m0 0v-102.047m-41.58 0h41.58m-41.58 0v102.047m0-102.047h41.58m83.15 204.094h41.57m-41.57 102.048v-102.048m0 102.048h41.57m0-102.048v102.048m-41.57-102.048h41.57m0 0v-102.047m-41.57 0h41.57m-41.57 102.047v-102.047m0 0v-102.047m0 102.047h41.57m0 0v-102.047m-41.57 0h41.57m-41.57 0h41.57m-83.15 306.142h41.58m-41.58 54.803v-54.803m0 54.803h41.58m0-54.803v54.803m-41.58-54.803v-102.048m0 102.048h41.58m0 0v-102.048m-41.58 0h41.58m-41.58 0h41.58m0 0v-102.047m-41.58 0h41.58m-41.58 102.047v-102.047m0 0v-102.047m0 102.047h41.58m0 0v-102.047m-41.58 0h41.58m-41.58 0h41.58m-83.15 306.142h41.57m0 0v-102.048m-41.57 0h41.57m-41.57 102.048v-102.048m0 0v-102.047m0 102.047h41.57m0 0v-102.047m-41.57 0h41.57m-41.57 0v-102.047m0 102.047h41.57m0 0v-102.047m-41.57 0h41.57m-41.57 0h41.57m-83.15 306.142v-102.048m0 102.048h41.58m0 0v-102.048m-41.58 0h41.58m-41.58 0v-102.047m0 102.047h41.58m0 0v-102.047m-41.58 0h41.58m-83.15 204.095v-102.048m0 102.048h41.57m0 0v-102.048m-41.57 0h41.57m-41.57 0h41.57m0 0v-102.047m0 0h-41.57m0 0v102.047m-41.58 102.048h41.58m0 0v-102.048m-41.58 0h41.58m-41.58 0h41.58m0 0v-47.244m0 0h-41.58m249.45-156.85v-102.047m41.58 0v102.047m-41.58-102.047h41.58m-207.88 0v102.047m41.58 0v-102.047m-41.58 0h41.58m-41.58-102.048v102.048m0 0h41.58m0 0v-102.048m-41.58 0h41.58m-41.58 0h41.58m166.3 0v102.048m-41.58 0h41.58m-41.58-102.048h41.58m-41.58 102.048v-102.048m-41.57 102.048h41.57m0 0v-102.048m-41.57 0h41.57m-41.57 102.048v-102.048m0 204.095v-102.047m41.57 102.047v-102.047m-41.57 0h41.57m-41.57 102.047v-102.047m-41.58 0h41.58m-41.58 102.047v-102.047m0 0v-102.048m0 102.048h41.58m0 0v-102.048m-41.58 0h41.58m0 0h41.57m-83.15 0h41.58m-41.58 204.095v-102.047m-41.57 0h41.57m-41.57 102.047v-102.047m0 0v-102.048m0 102.048h41.57m0 0v-102.048m-41.57 0h41.57m-41.57 0h41.57m-83.15-102.047v102.047m41.58 0v-102.047m-41.58 0h41.58m83.15 0h41.57m-41.57 102.047v-102.047m41.57 0v102.047m-83.15 0v-102.047m41.58 102.047v-102.047m-41.58 0h41.58m-41.58 102.047v-102.047m-41.57 0h41.57m-41.57 102.047v-102.047m41.57 0h41.58m-83.15 0h41.57m-83.15 0h41.58m-83.15-102.046h41.57m0 0v-102.05m-41.57 0h41.57m-41.57 102.05v-102.05m-41.58 102.05h41.58m0 0v-102.05m-41.58 0h41.58m83.15-102.05v102.05m-41.58 0v-102.05m0 102.05h41.58m-41.58-102.05h41.58m-83.15 102.05h41.57m-41.57-102.05h41.57m0 102.05v-102.05m-41.57 102.05v-102.05m-41.58 102.05h41.58m0 0v-102.05m-41.58 0h41.58m83.15 204.1v-102.05m-41.58 102.05h41.58m0 0v-102.05m-41.58 0h41.58m-41.58 102.05v-102.05m0 102.05h41.58m41.57 102.046v-102.046m41.58 0v102.046m-41.58-102.046h41.58m-83.15 102.046v-102.046m41.57 102.046v-102.046m-41.57 0h41.57m-41.57 0h41.57m-83.15 0v102.046m41.58 0v-102.046m41.57-102.05v102.05m-41.57-102.05h41.57M2888-781.779h41.58M2888-883.826v102.047m41.58 0v-102.047m0 0H2888m0-37.795v-64.252m124.72 204.094v-102.047m41.58 0h-41.58m0 102.047h41.58m0 0v-102.047m-124.72 102.047h41.57m-41.57 0v-102.047m41.57 102.047v-102.047m0 0h-41.57m41.57 102.047h41.57m-41.57 0v-102.047m41.57 102.047v-102.047m0 0h-41.57M2888-985.873v-102.047m41.58 102.047v-102.047m0 0H2888m41.58 102.047H2888m0 0v-102.047m41.58 204.094H2888m41.58 0v-102.047m0 0H2888m0 0v102.047m83.15 0v-102.047m0 0h-41.57m0 102.047v-102.047m41.57 102.047h-41.57M2888-1087.92v-102.05m0 0v-102.04m41.58 204.09H2888m41.58 0v-102.05m0 0H2888m0 102.05v-102.05m83.15 204.097v-102.047m0 0h-41.57m41.57 102.047h-41.57m0 0v-102.047m83.14 204.094v-102.047m0 0h-41.57m41.57 102.047h-41.57m0 0v-102.047M2888-1292.01v-102.05m166.3 510.234h-41.58m0 0v-102.047m41.58 0h-41.58m41.58 102.047v-102.047m-41.58 0h-41.57m0 0v-102.047m41.57 102.047v-102.047m0 0h-41.57m0 0h-41.57m0 0v-102.05m41.57 102.05v-102.05m0 0h-41.57m0 0H2888m0 0v-102.04m41.58 102.04v-102.04m0 0H2888m-124.72-306.15h-41.58m41.58 102.05h-41.58m41.58 0v-102.05m-41.58 102.05v-102.05m0 0h-41.57m41.57 102.05h-41.57m41.57 0v-102.05m-41.57 102.05v-102.05m-83.15 0v102.05m41.57-102.05h-41.57m0 102.05h41.57m0 0v-102.05m41.58 0h-41.58m41.58 102.05h-41.58m0 0v-102.05m41.58 102.05v-102.05m0 204.1v56.69m41.57-56.69h-41.57m41.57 56.69v-56.69m-41.57 56.69h41.57m-83.15-56.69h41.58m0-102.05h-41.58m41.58 102.05v-102.05m-41.58 0v102.05m83.15-102.05h-41.57m41.57 102.05v-102.05m0 102.05h-41.57m0 0v-102.05m83.15 0h-41.58m0 102.05v-102.05m41.58 102.05v-102.05m0 102.05h-41.58m83.15 0v-102.05m0 0h-41.57m0 102.05v-102.05m41.57 102.05h-41.57m83.15 0h-41.58m0 0h-41.57m0 0h-41.58m124.73 0h-41.58m0 0v-102.05m41.58 102.05v-102.05m0 0h-41.58m-41.57 0v-102.05m41.57 102.05h-41.57m41.57 0v-102.05m0 0h-41.57m124.72 204.1h-41.57m0 102.05v-102.05m-124.73 102.05v56.69m0 0h41.58m0-56.69h-41.58m41.58 56.69v-56.69m83.15 0h-41.58m83.15 0h-41.57m0 0h-41.58m0 0v-102.05m-41.57 102.05v-102.05m41.57 102.05h-41.57m41.57 0v-102.05m-41.57 102.05v-102.05m-41.58 0v102.05m41.58 0h-41.58m83.15 0h-41.57m83.15 0v-102.05m41.57 102.05h-41.57m-83.15 102.04v56.7m0 0h41.57m0-56.7h-41.57m41.57 56.7v-56.7m41.58 0h-41.58m83.15 0h-41.57m0 0v-102.04m0 102.04h-41.58m0 0v-102.04m41.58 102.04v-102.04m41.57 102.04h-41.57m-83.15-102.04v102.04m41.57 0h-41.57m41.57 0v-102.04m0 204.09v60.47m0 0h41.58m0 0v-60.47m0 0h-41.58m83.15 0h-41.57m0 0h-41.58m41.58 0v-102.05m-41.58 0v102.05m41.58 0v-102.05m41.57 102.05h-41.57m0 102.047v64.252m0 0H2888m0-64.252h-41.57m0-102.047v102.047m41.57 0h-41.57M2888-1496.11v-102.05m41.58 102.05H2888m41.58 0v-102.05m0 0H2888m41.58 204.1H2888m0 0v-102.05m41.58 102.05v-102.05m0 0H2888m124.72 0h-41.57m41.57 0v-102.05m0 0h-41.57m0 102.05v-102.05m41.57 204.1h-41.57m41.57 0v-102.05m0 0h-41.57m0 102.05v-102.05m833.39 718.111h41.57m-41.57 0v102.047m0 0h41.57m0-102.047v102.047m-166.3 0v102.047m-41.57-102.047h41.57m-41.57 0v102.047m0 0h41.57m41.58-102.047v102.047m-41.58-102.047v102.047m0-102.047h41.58m-41.58 102.047h41.58m41.57-102.047v102.047m-41.57-102.047h41.57m-41.57 0v102.047m0 0h41.57m41.58-102.047v102.047m-41.58-102.047v102.047m0-102.047h41.58m-41.58 102.047h41.58m0-102.047v102.047m0-102.047h41.57m-41.57 102.047h41.57m0-102.047v102.047m-291.02-306.141v102.047m0 0h41.57m0-102.047v102.047m0-102.047v102.047m0 0h41.58m0-102.047v102.047m-41.58 0h41.58m0 0v102.047m-41.58 0h41.58m-41.58-102.047v102.047m41.58-102.047h41.57m0-102.047v102.047m-41.57-102.047v102.047m41.57-102.047v102.047m41.58-102.047v102.047m-41.58 0h41.58m-41.58 0h41.58m-41.58 0v102.047m0 0h41.58m0-102.047v102.047m0-204.094v102.047m0 0h41.57m0-102.047v102.047m41.58-102.047v102.047m-41.58-102.047v102.047m0 0h41.58m-41.58 102.047h41.58m0-102.047v102.047m-41.58-102.047h41.58m-41.58 0v102.047m-41.57 0h41.57m0-102.047v102.047m-41.57-102.047h41.57m-41.57 0v102.047m-83.15 0h41.57m0-102.047v102.047m-41.57-102.047h41.57m-41.57 0v102.047m249.45 0v102.047m-41.58-102.047v102.047m0 0h41.58m-41.58-102.047h41.58m-249.45-714.328v102.04m0-102.04h41.57m0 0v102.04m-41.57 0h41.57m0-102.04h41.58m-41.58 0v102.04m41.58-102.04v102.04m-41.58 0h41.58m0-102.04h41.57m-41.57 102.04h41.57m0-102.04v102.04m-41.57-102.04v102.04m41.57-102.04h41.58m-41.58 0v102.04m0 0h41.58m0-102.04v102.04m0-102.04h41.57m-41.57 102.04h41.57m-41.57-102.04v102.04m41.57-102.04v102.04m0-102.04h41.58m-41.58 102.04h41.58m-41.58-102.04v102.04m41.58-102.04v102.04m0-102.04v102.04m0-102.04h41.57m-41.57 102.04h41.57m0-102.04v102.04m41.57 0v102.05m-41.57-102.05h41.57m-41.57 0v102.05m0 0h41.57m-249.44 0h41.57m-41.57-102.05h41.57m0 0v102.05m-41.57-102.05v102.05m41.57 0h41.58m-41.58-102.05v102.05m41.58-102.05v102.05m-41.58-102.05h41.58m0 102.05h41.57m-41.57-102.05h41.57m-41.57 0v102.05m41.57-102.05v102.05m0-102.05h41.58m-41.58 102.05h41.58m0-102.05v102.05m-41.58-102.05v102.05m41.58 0h41.57m-41.57-102.05h41.57m-41.57 0v102.05m41.57-102.05v102.05m-873.07-102.05h41.57m-41.57 0v102.05m0 0h41.57m0-102.05v102.05m0 0h41.58m-41.58-102.05h41.58m-41.58 0v102.05m41.58-102.05v102.05m0 0h41.57m-41.57-102.05v102.05m0-102.05h41.57m0 0v102.05m0 0h41.58m-41.58-102.05v102.05m0-102.05h41.58m0 0v102.05m0 0h41.57m0-102.05v102.05m-41.57-102.05h41.57m-41.57 0v102.05m41.57 0h41.58m0-102.05v102.05m-41.58-102.05h41.58m-41.58 0v102.05m41.58 0h41.57m-41.57-102.05h41.57m-41.57 0v102.05m41.57-102.05v102.05m0 0h41.58m0-102.05v102.05m-41.58-102.05h41.58m-41.58 0v102.05m41.58 0h41.57m-41.57-102.05h41.57m0 0v102.05m-41.57-102.05v102.05m-291.03-204.09v102.04m-41.57 0h41.57m-41.57-102.04v102.04m0-102.04h41.57m0 0h41.58m-41.58 0v102.04m41.58-102.04v102.04m-41.58 0h41.58m0-102.04h41.57m-41.57 0v102.04m0 0h41.57m0-102.04v102.04m0-102.04h41.58m-41.58 0v102.04m0 0h41.58m0-102.04v102.04m0-102.04h41.57m-41.57 0v102.04m41.57-102.04v102.04m-41.57 0h41.57m0-102.04h41.58m-41.58 0v102.04m41.58-102.04v102.04m-41.58 0h41.58m0-102.04v102.04m0 0h41.57m-41.57-102.04h41.57m0 0v102.04m166.3-306.14h41.58m0 0v102.05m-41.58-102.05v102.05m0 0h41.58m-83.15-102.05h41.57m-41.57 0v102.05m41.57-102.05v102.05m-41.57 0h41.57m-83.15-102.05h41.58m0 0v102.05m-41.58-102.05v102.05m0 0h41.58m-83.15-102.05h41.57m0 0v102.05m-41.57 0h41.57m-41.57-102.05v102.05m-41.58-102.05h41.58m-41.58 102.05h41.58m0-102.05v102.05m-41.58-102.05v102.05m41.58 102.05h41.57m-41.57-102.05h41.57m0 0v102.05m-41.57-102.05v102.05m0 102.04h41.57m-41.57-102.04h41.57m-41.57 0v102.04m41.57-102.04v102.04m-83.15-102.04v102.04m41.58-102.04v102.04m-41.58 0h41.58m-41.58-102.04h41.58m41.57 102.04h41.58m-41.58-102.04h41.58m-41.58 0v102.04m41.58-102.04v102.04m-41.58 0v102.05m41.58-102.05v102.05m-41.58-102.05h41.58m-41.58 102.05h41.58m0 0h41.57m-83.15-204.09h41.58m0-102.05v102.05m-41.58-102.05h41.58m-41.58 0v102.05m41.58 102.04h41.57m-41.57-102.04h41.57m-41.57 0v102.04m41.57-102.04v102.04m-41.57 0v102.05m0-102.05h41.57m-41.57 102.05h41.57m0-102.05v102.05m-41.57-204.09h41.57m-41.57-102.05h41.57m0 0v102.05m-41.57-102.05v102.05m41.57 102.04h41.58m-41.58-102.04h41.58m-41.58 0v102.04m41.58-102.04v102.04m-41.58 102.05h41.58m-41.58-102.05h41.58m-41.58 0v102.05m41.58-102.05v102.05m-41.58 0h41.58m0 0h41.57m-41.57-102.05h41.57m-41.57 0v102.05m41.57-102.05v102.05m-41.57 0h41.57m-83.15-204.09h41.58m-41.58-102.05h41.58m-41.58 0v102.05m41.58-102.05v102.05m0 102.04h41.57m-41.57-102.04h41.57m-41.57 0v102.04m41.57-102.04v102.04m0 102.05h41.58m-41.58-102.05h41.58m-41.58 0v102.05m41.58-102.05v102.05m-41.58 0h41.58m-83.15-204.09h41.57m0-102.05v102.05m-41.57-102.05h41.57m-41.57 0v102.05m41.57 102.04h41.58m-41.58-102.04h41.58m-41.58 0v102.04m41.58-102.04v102.04m0 102.05h41.57m0-102.05v102.05m-41.57-102.05h41.57m-41.57 0v102.05m0 0h41.57m0-102.05h41.58m0 0v102.05m-41.58 0h41.58m-41.58-102.05v102.05m0 0h41.58m-166.3-408.19h41.57m-41.57 0v102.05m0 0h41.57m0-102.05v102.05m0 0h41.58m-41.58 0v102.05m0 0h41.58m0-102.05v102.05m332.59 0v102.04m-41.57-102.04h41.57m-41.57 0v102.04m0 0h41.57m-249.44 204.1h41.57m-41.57 102.046h41.57m-41.57-102.046v102.046m41.57-102.046v102.046m0-102.046h41.58m-41.58 102.046h41.58m-41.58-102.046v102.046m41.58-102.046v102.046m0-102.046h41.57m-41.57 102.046h41.57m-41.57-102.046v102.046m41.57-102.046v102.046m0 0h41.58m0-102.046v102.046m-41.58-102.046v102.046m0-102.046h41.58m0 0h41.57m-41.57 102.046h41.57m0-102.046v102.046m-41.57-102.046v102.046m41.57-102.046h41.57m-41.57 102.046h41.57m0-102.046v102.046m-41.57-102.046v102.046m41.57 0h41.58m-41.58 0v102.048m0 0h41.58m0-102.048v102.048m-207.87 0h41.57m-41.57-102.048h41.57m0 0v102.048m-41.57-102.048v102.048m41.57 0h41.58m-41.58-102.048v102.048m41.58-102.048v102.048m-41.58-102.048h41.58m0 0v102.048m0 0h41.57m0-102.048v102.048m-41.57-102.048h41.57m0 102.048h41.57m-41.57-102.048v102.048m41.57-102.048v102.048m-41.57-102.048h41.57m-831.49 0h41.57m-41.57 0v102.048m0 0h41.57m0-102.048v102.048m0 0h41.58m-41.58-102.048h41.58m-41.58 0v102.048m41.58-102.048v102.048m0 0h41.57m-41.57-102.048v102.048m41.57-102.048v102.048m-41.57-102.048h41.57m0 102.048h41.58m-41.58-102.048v102.048m41.58-102.048v102.048m-41.58-102.048h41.58m0 102.048h41.57m-41.57-102.048h41.57m-41.57 0v102.048m41.57-102.048v102.048m0 0h41.58m-41.58-102.048h41.58m-41.58 0v102.048m41.58-102.048v102.048m0 0h41.57m-41.57-102.048v102.048m41.57-102.048v102.048m-41.57-102.048h41.57m0 102.048h41.58m-41.58-102.048v102.048m41.58-102.048v102.048m-41.58-102.048h41.58m0 102.048h41.57m-41.57-102.048h41.57m-41.57 0v102.048m41.57-102.048v102.048m-374.17-204.094v102.046m0 0h41.57m0-102.046v102.046m-41.57-102.046h41.57m0 0h41.58m-41.58 102.046h41.58m-41.58-102.046v102.046m41.58-102.046v102.046m0-102.046h41.57m-41.57 0v102.046m41.57-102.046v102.046m-41.57 0h41.57m0-102.046h41.58m-41.58 102.046h41.58m-41.58-102.046v102.046m41.58-102.046v102.046m0-102.046h41.57m-41.57 102.046h41.57m0-102.046v102.046m-41.57-102.046v102.046m41.57-102.046h41.58m-41.58 0v102.046m41.58-102.046v102.046m-41.58 0h41.58m0-102.046h41.57m0 0v102.046m-41.57 0h41.57m-41.57-102.046v102.046m83.15-102.046h41.57m-41.57 102.046h41.57m0-102.046v102.046m-41.57-102.046h41.57m-41.57 0v102.046m-41.58-102.046v102.046m0 0h41.58m-41.58-102.046h41.58m0 0v102.046m41.57 0v102.048m41.58-102.048v102.048m-41.58 0h41.58m-41.58-102.048h41.58m-41.58-102.046h41.58m-41.58 102.046h41.58m-41.58-102.046h41.58m-41.58 0v102.046m41.58-102.046v102.046m0-102.046h41.57m-41.57 0h41.57m-41.57 102.046h41.57m-41.57-102.046v102.046m41.57-102.046v102.046m-41.57 0v102.048m0-102.048h41.57m-41.57 102.048h41.57m0-102.048v102.048m-41.57 0h41.57m0-204.094h41.58m-41.58 102.046h41.58m-41.58-102.046h41.58m-41.58 0v102.046m41.58-102.046v102.046m-41.58 102.048h41.58m-41.58-102.048h41.58m0 0v102.048m-41.58-102.048v102.048m0 0h41.58m0 0h41.57m-41.57-204.094h41.57m-41.57 102.046h41.57m0-102.046v102.046m-41.57-102.046h41.57m-41.57 0v102.046m0 0h41.57m-41.57 0v102.048m0 0h41.57m0-102.048v102.048m0-102.048h41.58m0 0v102.048m-41.58 0h41.58m-41.58-102.048v102.048m0 0h41.58m-41.58-204.094h41.58m-41.58 102.046h41.58m0-102.046v102.046m-41.58-102.046h41.58m-41.58 0v102.046m41.58 0h41.57m0 0v102.048m-41.57 0h41.57m-41.57-102.048v102.048m0 0h41.57m0-102.048h41.58m0 0v102.048m-41.58 0h41.58m-41.58-102.048v102.048m0 0h41.58m207.87-204.094v102.046m-41.58-102.046v102.046m0 0h41.58m-41.58-102.046h41.58m-498.9-102.05v102.05m-41.57-102.05v102.05m41.57-102.05v102.05m41.58-102.05v102.05m0-102.05v102.05m41.57-102.05v102.05m0-102.05v102.05m41.58-102.05v102.05m41.57-102.05v102.05m-41.57-102.05v102.05m41.57-102.05v102.05m41.58-102.05v102.05m-623.63 308.031h41.58m0 102.047v-102.047m-41.58 102.047h41.58m-41.58-102.047v102.047m831.5 204.094v102.048m-41.57 0v-102.048m0 102.048h41.57m-41.57-102.048h41.57m-83.15 0h41.58m0 102.048v-102.048m-41.58 102.048v-102.048m0 102.048h41.58m-83.15-102.048h41.57m0 102.048v-102.048m-41.57 102.048v-102.048m0 102.048h41.57m-41.57 0v-102.048m-41.58 0h41.58m-41.58 102.048v-102.048m0 102.048h41.58m-83.15 0v-102.048m0 102.048h41.57m0 0v-102.048m-41.57 0h41.57m-83.15 102.048v-102.048m0 102.048h41.58m0 0v-102.048m-41.58 0h41.58m-41.58 102.048v-102.048m-41.57 102.048v-102.048m0 102.048h41.57m-41.57-102.048h41.57m-41.57 102.048v-102.048m-41.58 102.048v-102.048m0 102.048h41.58m-41.58-102.048h41.58m-41.58 102.048v-102.048m-41.57 102.048v-102.048m0 102.048h41.57m-41.57-102.048h41.57m-83.15 102.048v-102.048m0 102.048h41.58m0 0v-102.048m-41.58 0h41.58m-83.15 0h41.57m-41.57 102.048v-102.048m0 102.048h41.57m0 0v-102.048m-41.57 102.048v-102.048m-41.58 102.048v-102.048m0 102.048h41.58m-41.58-102.048h41.58m457.32 102.048v102.047m-41.57 0V-367.92m41.57 102.047h-41.57m0-102.047h41.57m-41.57 102.047h-41.58m41.58 0V-367.92m-41.58 0h41.58m-41.58 102.047V-367.92m0 102.047h-41.57m41.57 0V-367.92m-41.57 0h41.57m-41.57 102.047V-367.92m0 102.047h-41.58m41.58 0V-367.92m-41.58 0h41.58m-41.58 102.047V-367.92m0 102.047h-41.57m0-102.047h41.57m-41.57 102.047V-367.92m41.57 102.047V-367.92m-41.57 102.047h-41.58m41.58 0V-367.92m-41.58 0h41.58m-41.58 102.047V-367.92m0 102.047h-41.57m41.57 0V-367.92m-41.57 0h41.57m-41.57 102.047V-367.92m0 102.047h-41.58m41.58 0V-367.92m-41.58 0h41.58m-41.58 102.047V-367.92m0 102.047h-41.57m0-102.047h41.57m-41.57 102.047V-367.92m41.57 102.047V-367.92m-41.57 102.047h-41.58m41.58 0V-367.92m-41.58 0h41.58m-41.58 102.047V-367.92m0 102.047h-41.57m41.57 0V-367.92m-41.57 0h41.57m-41.57 102.047V-367.92m0 102.047h-41.58m41.58 0V-367.92m-41.58 0h41.58m-41.58 102.047V-367.92m0 102.047h-41.57m41.57 0V-367.92m-41.57 0h41.57m-41.57 102.047V-367.92m0 102.047h-41.58m0-102.047h41.58m-41.58 102.047V-367.92m41.58 102.047V-367.92m-41.58 102.047h-41.57m0-102.047h41.57m-41.57 102.047V-367.92m41.57 102.047V-367.92m-207.87-408.189h41.57m-41.57 102.047v-102.047m0 102.047h41.57m0 0v-102.047m0 0h41.58m0 102.047v-102.047m-41.58 102.047v-102.047m0 102.047h41.58m0-102.047h41.57m-41.57 102.047v-102.047m41.57 102.047v-102.047m-41.57 102.047h41.57m0-102.047h41.58m-41.58 102.047v-102.047m0 102.047h41.58m0-102.047v102.047m0 102.047h41.57m-41.57 102.047v-102.047m0 102.047h41.57m0 0v-102.047m0 102.047h41.58m-41.58 0v-102.047m41.58 0v102.047m-41.58-102.047h41.58m-83.15 204.095h41.57m-41.57-102.048h41.57m-41.57 102.048v-102.048m41.57 102.048v-102.048m-83.15-102.047h41.58m-41.58 0v-102.047m0 0h41.58m0 102.047v-102.047m0 102.047v-102.047m0 102.047h41.57m0-102.047v102.047m-41.57-102.047h41.57m-83.15 102.047h41.58m-41.58 102.047h41.58m-41.58 0v-102.047m41.58 102.047v-102.047m-83.15 0h41.57m0 0v-102.047m-41.57 0h41.57m-41.57 102.047v-102.047m0 102.047h41.57m-41.57 102.047v-102.047m0 102.047h41.57m0 0v-102.047m0 102.047h41.58m-41.58 102.048v-102.048m0 102.048h41.58m0 0v-102.048m41.57 102.048v-102.048m0 102.048h41.58m0 0v-102.048m-41.58 0h41.58m0 0h41.57m0 102.048v-102.048m-41.57 102.048v-102.048m0 102.048h41.57m-249.45-204.095h41.58m0 0v-102.047m-41.58 0h41.58m-41.58 102.047v-102.047m0 102.047v102.047m0-102.047h41.58m-41.58 102.047h41.58m0 0v-102.047m0 102.047v102.048m41.57 0v-102.048m-41.57 102.048h41.57m-41.57-102.048h41.57m41.58 204.095h-41.58m41.58 0V-367.92m-41.58 0h41.58m-41.58 0v102.047m-124.72-306.142h41.57m0 0v-102.047m-41.57 0v102.047m0-102.047h41.57" style="display:inline;fill:none;stroke:#000;stroke-width:6.66667;stroke-linecap:round;stroke-dasharray:none" transform="translate(128.384 570.595)scale(.26458)"/></g><g style="display:inline"><path d="M375.57 358.531a52.5 78 68 0 0-144.64 58.44 52.5 78 68 0 0 144.64-58.44" style="display:inline;fill:#1596f2;fill-opacity:1;stroke:none;stroke-width:.944827;stroke-linecap:round" transform="translate(99.75 49)"/><path d="M277.481 386.179q-10.59-.96-20.12 3.568l-5.144-10.237q12.18-4.386 25.264-4.23zm-14.114 33.975-11.15-23.989 9.699-4.508 4.649 10.002c3.483-4.861 7.37-10.323 12.735-13.344 3.143-1.77 6.791-2.702 10.518-2.7 4.138.002 8.371 1.156 11.473 3.712 2.146 1.769 3.75 4.21 4.78 6.838.94 2.394 1.403 4.943 1.294 7.486-.213 4.98-2.623 9.936-6.046 13.596-3.303 3.531-7.55 5.855-11.937 7.984-4.756 2.308-9.676 4.386-14.362 6.012l-7.53-7.529c6.73-2.437 13.125-5.64 19.274-9.272 2.451-1.448 4.864-2.965 6.82-5.134 1.603-1.778 2.899-3.993 2.912-6.36.01-2.091-.98-4.3-2.664-5.575-1.504-1.14-3.56-1.534-5.382-1.208-2.125.38-3.93 1.74-5.594 3.181-4.618 3.996-8.161 8.609-10.823 14.078l1.033 2.222zm66.145-26.233c-6.443-1.556-13.158-2.022-19.752-2.264l-5.397-8.088c7.09-11.383 15.46-22.56 17.574-36.255l10.932 4.428c-2.305 10.56-8.196 19.8-13.34 29.123 11.169 1.84 22.41 3.81 32.851 8.462l-4.408 10.881c-6.094-2.19-12.146-4.762-18.46-6.287" style="display:inline;fill:#fff;fill-opacity:1;stroke:none;stroke-width:.944827;stroke-linecap:round" transform="translate(99.75 49)"/></g></svg>