<!-- Created by ERK --><svg xmlns="http://www.w3.org/2000/svg" xml:space="preserve" width="720mm" height="350mm" viewBox="0 0 720 350"><g style="fill:#fff;fill-opacity:1;stroke:none"><path d="M.472 235.138v8h508.001v-8zm324.97-42.498v34.499h8.502v-20.5h1.891l5.684 20.5h5.876l5.686-20.5h1.892v20.5h8.5v-34.5h-13l-4.824 18h-2.384l-4.821-18zm-27.643 0-16.827 34.499h26.5l-4.053-8.31h-9.036l6.92-14.19h2.118l9.089 22.5h9.964l-15.724-34.5zm-47.326 0v8.5l15.193-.001a8.807 8.807 0 1 1 0 17.613h-6.195v-13.113h-8.998v21.5h15.75c9.527 0 17.25-7.723 17.25-17.25s-7.723-17.25-17.25-17.25zm-39.001 0v34.499h9v-20.5h.688l13.313 20.5h10.999v-34.5h-9v22h-.713l-14.287-22zm-36.499 0v22.784a12 12 0 0 0 9.401 11.715h10.098c6.628 0 12-5.373 12-12v-22.5h-9v22a5 5 0 0 1-5 5h-3.5a5 5 0 0 1-5-5v-22zm-22.25 0c-9.527 0-17.25 7.722-17.25 17.25 0 9.526 7.723 17.249 17.25 17.249h17.25v-20.5h-14v7.5h5.484v5h-7.484a9 9 0 0 1-8.998-9 9 9 0 0 1 8.998-9h16v-8.5zM.472 177.139v8h508.001v-8zm.501-127v116h33v-88h29c6.073.002 10.996 4.926 10.996 11s-4.923 10.998-10.997 11h-21v23l32.403 43h60l28.52-39.984 27.48 39.984h42.5l-49.288-63.086 42.85-52.914h-43l-21.03 28.585-19.434-28.585h-42.5l40.827 52.257-37.44 47.069-25.128-28.906c17.56-4.291 29.145-21.023 26.984-38.97S88.328 50.14 70.252 50.14Z" style="fill:#fff;fill-opacity:1;stroke:none;stroke-width:.944827;stroke-linecap:round" transform="translate(101.513 53.43)"/><path d="M218.473 93.639v28h50v-28Zm61.001-43.5v28.5h72.043l-68.363 87.5h42.288l61.03-84v-32Zm174.498-7.5c-12.618 0-25.235 2.2-37.27 6.599a27 27 0 0 0 .52 50.9 33 33 0 0 0-26.131 29.512c-1.234 14.53 7.216 28.147 20.783 33.494a114.83 114.83 0 0 0 84.197 0c13.567-5.347 22.017-18.964 20.783-33.494s-11.857-26.528-26.131-29.511a27 27 0 0 0 .52-50.901 108.6 108.6 0 0 0-37.27-6.599m0 22.062c4.772 0 9.544.93 14.039 2.79 9.033 3.738 9.648 16.301 1.022 20.903a23 23 0 0 1-10.06 2.692v23.066a40.1 40.1 0 0 1 13.505 3.699c10.618 5.033 10.176 20.29-.715 24.701a47.4 47.4 0 0 1-35.58 0c-10.892-4.41-11.333-19.668-.715-24.701a40.1 40.1 0 0 1 13.505-3.7V91.087a23 23 0 0 1-10.06-2.692c-8.626-4.602-8.012-17.165 1.021-20.903a36.7 36.7 0 0 1 14.038-2.79" style="fill:#fff;fill-opacity:1;stroke:none;stroke-width:.944827;stroke-linecap:round" transform="translate(101.513 53.43)"/><path d="M4.554 16.057h7.65q3.985 0 5.556-1.263 1.594-1.263 1.594-4.33 0-2.954-1.571-4.24-1.571-1.285-5.237-1.285H4.554ZM0 34.075V.857h12.34q3.006 0 4.577.293t2.8.97q2.05 1.105 3.143 3.27t1.093 5.074q0 2.774-1.093 4.894t-3.188 3.382q-1.206.722-2.846 1.038-1.616.293-5.35.293H4.554v14.004zm29.372 0V.857h23.907v4.127H33.88v9.923H51.8v3.878H33.88v11.14h19.786v4.15zM63.639 4.758v11.254h7.787q4.212 0 5.943-1.353 1.753-1.354 1.753-4.51 0-2.955-1.64-4.173t-6.056-1.218ZM59.176.857h13.001q3.165 0 4.645.27 1.503.271 2.687.903 2.118 1.15 3.21 3.202 1.116 2.052 1.116 4.826 0 2.684-1.161 4.6-1.161 1.895-3.461 2.977 1.958.542 2.778 1.827.842 1.285 1.047 4.352l.387 5.48q.114 1.76.456 2.639.364.857 1.07 1.218v.924h-5.26q-.637-1.037-.888-4.442v-.136l-.273-4.33q-.228-3.337-1.434-4.33-1.207-.992-6.034-.992h-7.377v14.23h-4.509Zm29.418 22.28h4.394q.069 3.61 2.414 5.752 2.368 2.142 6.307 2.142 3.893 0 6.125-1.624 2.254-1.623 2.254-4.42 0-3.811-8.425-5.796-.5-.112-.774-.18-6.83-1.601-9.04-3.563-2.185-1.985-2.185-5.616 0-4.442 3.279-7.126Q96.22 0 101.663 0q5.556 0 8.743 2.841 3.188 2.82 3.234 7.758l-4.35.023q-.227-3.338-2.299-5.12-2.05-1.781-5.624-1.781-3.347 0-5.35 1.466-2.004 1.443-2.004 3.856 0 3.856 8.288 5.75l1.89.452.478.113q5.419 1.285 7.195 2.773 1.343 1.128 2.049 2.752.706 1.6.706 3.585 0 4.804-3.484 7.645-3.46 2.842-9.38 2.842-6.103 0-9.518-3.045-3.393-3.067-3.643-8.772M123.52 17.5q0 6.382 2.96 9.99 2.983 3.586 8.243 3.586 5.236 0 8.174-3.586 2.96-3.608 2.96-9.99 0-6.405-2.96-9.99-2.938-3.586-8.174-3.586-5.26 0-8.243 3.586-2.96 3.585-2.96 9.99m-4.713 0q0-8.231 4.212-12.854Q127.255 0 134.724 0q7.445 0 11.634 4.623 4.213 4.623 4.213 12.877 0 8.231-4.213 12.877Q142.17 35 134.724 35q-7.469 0-11.704-4.623-4.212-4.646-4.212-12.877m37.455 16.575V.857h4.986l15.665 24.13q.524.79.911 1.489t.615 1.308V.857h4.349v33.218h-4.941L161.84 9.607q-.364-.564-.683-1.173-.296-.609-.569-1.285v26.926Zm39.64-13.801h10.451l-5.19-14.659Zm-9.699 13.801L198.659.857h5.032l12.5 33.218h-4.941l-3.552-9.922h-13.206l-3.575 9.922zm33.448 0V.857h4.599v29.024h16.712v4.194zm61.18-12.335h4.417q-.296 6.066-4.19 9.674Q277.19 35 271.041 35q-7.081 0-11.111-4.78-4.008-4.782-4.008-13.239 0-7.803 4.213-12.38Q264.347 0 271.496 0q5.692 0 9.313 2.91 3.643 2.908 4.212 7.937h-4.463q-.637-3.292-3.028-5.051-2.39-1.782-6.216-1.782-5.1 0-7.923 3.54-2.801 3.541-2.801 9.991 0 6.089 2.914 9.765 2.938 3.676 7.765 3.676 4.12 0 6.74-2.526 2.64-2.548 2.822-6.72m13.046-4.24q0 6.382 2.96 9.99 2.983 3.586 8.242 3.586 5.237 0 8.174-3.586 2.96-3.608 2.96-9.99 0-6.405-2.96-9.99-2.937-3.586-8.174-3.586-5.26 0-8.242 3.586-2.96 3.585-2.96 9.99m-4.713 0q0-8.231 4.212-12.854Q297.612 0 305.08 0q7.446 0 11.635 4.623 4.213 4.623 4.213 12.877 0 8.231-4.213 12.877Q312.525 35 305.08 35q-7.468 0-11.703-4.623-4.212-4.646-4.212-12.877m41.69-11.727v28.302h-4.19V.857h6.512l8.31 25.416q.365 1.082.525 1.69.182.587.273 1.038.182-.834.364-1.488t.387-1.24L351.643.857h6.534v33.218h-4.417V5.773q-.16.722-.364 1.466-.205.722-.433 1.443l-8.63 25.393h-4.302l-8.425-25.393q-.228-.631-.41-1.353-.182-.721-.341-1.556m39.071 10.284h7.65q3.985 0 5.556-1.263 1.594-1.263 1.594-4.33 0-2.954-1.571-4.24-1.571-1.285-5.237-1.285h-7.992zm-4.554 18.018V.857h12.341q3.006 0 4.577.293 1.57.293 2.8.97 2.05 1.105 3.142 3.27t1.093 5.074q0 2.774-1.093 4.894t-3.187 3.382q-1.207.722-2.846 1.038-1.617.293-5.351.293h-6.922v14.004Zm29.19-12.606V.857h4.554v20.657q0 4.668 2.072 6.901 2.095 2.233 6.466 2.233 4.326 0 6.444-2.256 2.14-2.277 2.14-6.878V.857h4.577v20.612q0 6.675-3.484 10.103Q413.87 35 407.13 35q-6.285 0-9.427-3.383t-3.142-10.148m40.642 12.606V4.894h-10.587V.857h25.752v4.037H439.78v29.181zm19.217 0V.857h23.908v4.127h-19.4v9.923h17.92v3.878h-17.92v11.14h19.787v4.15zm34.27-29.317v11.254h7.787q4.212 0 5.942-1.353 1.753-1.354 1.753-4.51 0-2.955-1.639-4.173t-6.056-1.218zM484.226.857h13.001q3.165 0 4.645.27 1.503.271 2.687.903 2.117 1.15 3.21 3.202 1.116 2.052 1.116 4.826 0 2.684-1.162 4.6-1.16 1.895-3.46 2.977 1.958.542 2.777 1.827.843 1.285 1.048 4.352l.387 5.48q.114 1.76.455 2.639.364.857 1.07 1.218v.924h-5.26q-.637-1.037-.887-4.442v-.136l-.274-4.33q-.227-3.337-1.434-4.33t-6.034-.992h-7.377v14.23h-4.508z" aria-label="PERSONAL COMPUTER" style="font-size:46.4076px;line-height:0;font-family:&quot;Swis721 BT&quot;;-inkscape-font-specification:&quot;Swis721 BT&quot;;letter-spacing:0;word-spacing:0;fill:#fff;fill-opacity:1;stroke:none;stroke-width:14.0318;stroke-linecap:square;stroke-miterlimit:60;paint-order:fill markers stroke" transform="translate(101.513 53.43)"/></g></svg>