<!-- Created by ERK --><svg xmlns="http://www.w3.org/2000/svg" xml:space="preserve" width="6242.369" height="1711.026" viewBox="0 0 1651.627 452.709"><g style="display:inline"><path d="M3310.44 117.166a187.09 187.09 0 0 0-149.019 73.974L2455.9 1120.63h353.5l467.45-615.841v360.723h-195.51l-193.65 255.119h670.741V117.166Z" style="fill:#303030;stroke:#000;stroke-width:3.571;stroke-linecap:round" transform="translate(-648.838 155.736)scale(.26458)"/><path d="M3651.02 117.166V1120.63h283.47V117.166Z" style="display:inline;fill:#303030;stroke:#000;stroke-width:3.571;stroke-linecap:round" transform="translate(-648.838 155.736)scale(.26458)"/><path d="M4242.519 459.213c-88.714 0-160.63 71.917-160.63 160.63V960c0 88.713 71.916 160.63 160.63 160.63h493.23v-39.788a160.62 160.62 0 0 0 105.825 39.789h372.285c38.93 0 76.537-14.14 105.828-39.79v39.79h914.64V917.48h73.23a229.13 229.13 0 0 0 174.331-80.436V960c0 88.713 71.915 160.63 160.629 160.63H6922.2c88.715 0 160.63-71.917 160.628-160.63V714.332h141.74v406.299h249.452v-406.3h143.619v406.3h1073.94l-130.36-225.8c96.352-46.35 147.84-153.177 124.07-257.423s-116.479-178.195-223.4-178.195H6827.72v406.299h-90.71v-406.3h-255.12v80.436a229.13 229.13 0 0 0-174.33-80.435h-328.35v41.468a160.62 160.62 0 0 0-107.713-41.468H5319.69v39.789a160.64 160.64 0 0 0-105.828-39.79h-372.287c-38.93 0-76.536 14.14-105.825 39.79v-39.79zm94.49 255.119h343.932v151.18h-343.932zm600.89 0h180.41v151.18H4937.9z" style="fill:#303030;stroke:#000;stroke-width:3.571;stroke-linecap:round" transform="translate(-648.838 155.736)scale(.26458)"/></g><g style="display:inline"><path d="M3310.44 171.969a132.29 132.29 0 0 0-105.368 52.304L2566.3 1065.83h215.9l459.56-605.46a112.85 112.85 0 0 1 89.89-44.622v504.566h-223.11l-110.45 145.516h505.53V171.969Zm395.39 0v893.86h173.86V171.97Zm536.69 342.046c-58.446 0-105.828 47.382-105.83 105.829V960c0 58.446 47.384 105.826 105.83 105.828h438.42V920.314H4282.2V659.527h398.74V514.015Z" style="fill:#fff;stroke-width:3.571;stroke-linecap:round" transform="translate(-648.838 155.736)scale(.26458)"/><path d="M4841.572 514.015c-58.444 0-105.824 47.382-105.823 105.829V960c0 58.446 47.379 105.826 105.823 105.828h372.287c58.445 0 105.825-47.382 105.828-105.828V619.844c0-58.447-47.383-105.829-105.828-105.829zm41.517 145.512h290.022v260.787h-290.022z" style="display:inline;fill:#fff;stroke-width:3.571;stroke-linecap:round" transform="translate(-648.838 155.736)scale(.26458)"/><path d="M5603.74 717.166h145.51v348.664h-145.51z" style="fill:#fff;stroke-width:3.571;stroke-linecap:round" transform="translate(-648.838 155.736)scale(.26458)"/><path d="M5374.49 514.015v551.815H5520V659.527h312.99v406.303h144.33V619.844c0-58.447-47.38-105.829-105.824-105.829z" style="fill:#fff;stroke-width:3.571;stroke-linecap:round" transform="translate(-648.838 155.736)scale(.26458)"/><path d="M6034.02 514.015v145.512h296.69v57.639h-296.69v348.664h145.51V862.678h128.03c96.263-.023 174.289-78.069 174.289-174.332 0-96.264-78.026-174.308-174.29-174.33zm502.67 0V960c0 58.446 47.382 105.826 105.829 105.828h279.683c58.45 0 105.83-47.382 105.829-105.828V514.015h-145.51v406.3H6682.2v-406.3Zm548.03 0v145.512h194.65v406.303h139.84V659.527h194.65V514.015Zm587.72 203.151h447.87v145.512h-306.14v57.636h306.14v145.516h-447.87zm0-203.151v145.512h447.87V514.015Zm506.46 0v145.512h304.25v57.639H8178.9v348.664h145.51V889.076l102.05 176.754h170.2l-117.768-203.984c92.53-9.068 161.66-89.152 157.121-182.012-4.54-92.86-81.152-165.819-174.123-165.819z" style="display:inline;fill:#fff;stroke-width:3.571;stroke-linecap:round" transform="translate(-648.838 155.736)scale(.26458)"/></g><g style="display:inline"><path d="M1320.952-835.583c-59.5 0-108.9 39-123.3 92.5L1047.75-303.284v-322.7h-226.1v80.1h148v217.8h-185c-45.3 0-80.1-37-80.1-80.1v-256.9c0-45.3 37-80.1 80.1-80.1h265.1v-80h-267.2c-88.3 0-160.3 72-160.3 160.3v256.9c0 88.3 72 160.3 160.3 160.3h330.801l166.5-482.9c6.2-18.5 22.6-30.8 43.2-30.8s36.999 12.3 43.199 30.8l135.7 402.8h-213.7v79.9h324.7l-166.7-493.2c-16.4-53.4-65.8-94.5-125.3-94.5m-1461.2 10.3c-104.8 0-189 84.3-189 189s84.3 189 189 189h65.8c6.2 0 10.2 4.1 10.2 10.2.1 6.2-4.1 10.4-8.3 10.4h-256.7v80.1h256.8c49.2 0 90.4-41.2 90.4-90.4s-41.2-90.4-90.4-90.4h-65.8c-59.6 0-108.899-49.2-108.899-108.9s49.299-108.9 108.899-108.9h254.9v-80.1zm456.3 0c-88.3 0-160.3 72-160.3 160.3v256.9c0 88.3 72 160.3 160.3 160.3h275.301v-80.1h-275.3c-45.3 0-80.1-37-80.1-80.1v-257c0-45.3 37-80.1 80.1-80.1h275.3v-80.2zm1006.801 82.1c-10.2 0-20.6 8.3-24.7 16.4l-164.401 478.9h94.5l57.601-170.5v72l2.1-.1h187l-127.4-378.2c-4.1-10.2-12.3-18.5-24.7-18.5m-1463.101 16.5c-49.2 0-90.399 41.2-90.399 90.4s41.199 90.4 90.399 90.4h65.8c59.6 0 108.9 49.2 108.9 108.9s-49.2 108.9-108.9 108.9h-254.8v80.1h256.8c104.8 0 189-84.3 189-189s-84.3-189-189-189h-65.8c-6.2 0-10.2-4.1-10.2-10.2-.1-4.2 4.1-8.3 8.2-8.3h256.9v-82.2zm456.2 0c-35 0-61.7 26.8-61.7 61.7v119.2h279.5v-80.2h-199.2c0-10.2 8.3-18.5 18.5-18.5h236.301v-82.2zm466.5 0c-35 0-61.7 26.8-61.7 61.7v256.9c0 35 26.8 61.7 61.7 61.7h166.5v-181h-127.4v80.1h47.301v18.5h-47.3c-10.2 0-18.5-8.3-18.5-18.5v-180.7c0-10.2 8.3-18.5 18.5-18.5h228.1v-80.1zm-528.099 201.4v119.2c0 35 26.8 61.7 61.7 61.7h275.3v-80.2h-238.4c-10.3-2.1-18.4-10.3-18.4-20.6h199.3v-80.1zm1066.6 6.2 26.799 82.2h-55.5z" class="st1" style="display:inline;fill:#034693" transform="translate(647.077 245.857)scale(.27847)"/></g></svg>