<!-- Created by ERK --><svg xmlns="http://www.w3.org/2000/svg" width="220mm" height="80mm" viewBox="0 0 220 80"><path d="M71.567 72.495c-.582-.254-1.645-1.112-2.362-1.906l-1.304-1.445-.41-1.52-.41-1.518.152-2.823.153-2.822.56-1.058c.307-.582.861-1.374 1.23-1.759l.672-.7-1.154-1.513-1.155-1.512-.23-1.224c-.125-.673-.17-2.406-.096-3.85l.132-2.627.808-1.739 1.329-1.304 1.441-1.1 1.703-.664h10.23l1.876.708L86 43.175l1.074 1.14 1.074 1.922v7.288l-1.169 1.658-1.169 1.658.711.756c.391.417.957 1.345 1.257 2.064l.546 1.307v6.395l-.546 1.307c-.728 1.743-1.803 2.86-3.51 3.648l-1.412.651-5.115-.006-5.115-.006zm9.278-6.284.424-.423v-5.362l-.424-.424-.423-.423h-5.009l-.424.423-.423.424v5.362l.423.423.424.424h5.009zm-.36-13.178.784-.55v-3.96l-.584-.646-.584-.645h-4.72l-.603.666-.602.666.107 2.06.107 2.059.882.444.881.445 1.774.005 1.774.005zm13.66 19.399c-.582-.302-1.578-1.05-2.214-1.664l-1.156-1.115-.365-1.244-.366-1.245.11-10.64.11-10.639 1.092-1.355c.601-.745 1.712-1.71 2.47-2.143l1.377-.788 5.181-.006 5.18-.006.887.337c.488.185 1.531.92 2.319 1.631l1.171 1.294.813 1.898.551 1.897-.113 9.613-.114 9.612-.587 1.058c-.788 1.42-2.713 3.223-3.933 3.683l-.993.374-5.181-.002-5.18-.002zm9.278-6.22.424-.424V48.784l-.424-.423-.423-.424h-5.01l-.423.424-.423.423v17.004l.423.423.423.424H103zm13.3 6.2c-1.651-.891-2.682-1.95-3.39-3.484l-.652-1.411-.008-10.154-.008-10.154.546-1.307c.7-1.675 1.756-2.796 3.456-3.667l1.355-.695 5.551.112 5.551.112 1.429.946 1.211.947 1.143 1.857.925 1.856v19.832l-.925 1.857-1.056 1.64-1.298 1.163-1.429.946-5.671.087-5.672.087zm9.409-6.361.645-.584v-16.24l-.584-.644-.584-.646h-4.779l-.554.555-.554.554v16.48l.554.554.554.555h4.657zm13.064 6.183-1.472-1.011-1.165-1.145c-.538-.529-.693-1.337-.914-1.997l-.401-1.199V47.37l.925-1.856 1.012-1.596 1.342-1.208 1.429-.946 5.671-.095 5.672-.096 1.397.804 1.31.978 1.159 1.352 1.073 1.526.11 10.289.11 10.29-.383 1.306c-.5 1.7-1.88 3.314-3.571 4.177l-1.353.69h-10.435zm9.605-6.154.554-.554v-16.48l-.554-.554-.555-.555h-4.656l-.646.584-.645.584v16.24l.584.645.584.645h4.78zM17.063 36.472v-3.351h11.994l-3.263-4.256c-1.794-2.34-4.718-6.175-6.497-8.523l-3.235-4.267-.225-1.2-.225-1.2.415-1.302c.472-1.478 1.821-3.07 3.224-3.802l.952-.497h15.205v6.35H29.41c-3.298 0-5.997.086-5.997.193 0 .106 2.58 3.557 5.733 7.669s6.09 8.18 6.526 9.04l.794 1.562v2.48l-.488 1.544-.923 1.37-1.197.988-1.545.554h-15.25zm28.399 2.978c-.582-.17-2.269-.58-3.247-1.337l-1.668-1.288-1.555-1.673-1.034-1.76-.744-1.72-.395-1.807V14.424h2.47l2.733-.001.265-.001.176 8.09.177 8.09.727.974c.94 1.257 2.2 2.16 3.418 2.45l.97.23V24.4c0-11.442-.373-10.18 2.968-10.035l2.676.116v25.344l-3.44-.032c-1.891-.017-3.915-.17-4.497-.341zm9.701-12.326v-12.7h7.585l2.353.814 2.004 1.248 1.645 1.426 1.21 1.514.916 1.874.7 1.918.42 2.637.202 2.68H61.836L61.81 25.8l-.07-2.865 1.98.023c.92-.059 1.762-.1 1.762-.249 0-.71-2.728-2.642-3.768-2.642h-.553v19.756h-5.997ZM78.27 39.16a8.4 8.4 0 0 1-4.1-4.1l-.647-1.411-.008-9.554c-.009-11.362-1.22-9.869 7.9-9.747l7.615.101v5.618h-9.924l.111 6.205.111 6.205.99.85.99.851h7.722v5.645l-4.675-.008-4.674-.008zm12.524-12.067v-12.73l4.145.118 4.145.118 1.676.825c.921.454 2.4 1.53 3.287 2.392l1.612 1.566 1.103 1.847.667 2.02.2 2.642.2 2.643h-1.815c-.998 0-1.815.065-1.815.144 0 .08 1.268 2.363 2.818 5.075s2.919 5.194 3.042 5.514l.224.583-3.26-.102-3.258-.102-3.134-5.644-3.134-5.645-.086-2.646.001-2.82 1.937.067c.921-.059 1.675-.056 1.675-.205 0-.71-2.64-2.686-3.68-2.686h-.553v19.756h-5.997zm30.868 12.318c-2.642-1.461-2.869-1.97-7.739-17.333-2.263-7.14-4.203-13.213-4.311-13.494l-.197-.511 3.478.002 3.477.002 3.704 11.79 3.704 11.792.231-.24c.127-.131 1.865-5.438 3.861-11.792l3.63-11.554h6.864l-.8 2.558c-8.692 27.785-8.497 27.285-11.21 28.697l-.953.495-1.517-.01c-.834-.006-1.834-.187-2.222-.401zm14.993-12.23c0-6.952.065-12.707.145-12.788s1.35-.095 2.823-.03l2.676.115v25.345h-5.644zm7.055 9.829v-2.813l5.12-.098 5.12-.097-3.59-4.94c-1.976-2.715-4.28-5.94-5.121-7.165l-1.529-2.227.001-.948.001-.948.428-1.39.82-1 1.056-.545 1.186-.416h14.146v5.644h-5.115c-2.813 0-5.115.074-5.115.165 0 .09 2.116 3.067 4.703 6.615 5.486 7.522 5.527 7.592 5.527 9.284v1.293l-.895 1.33-1.503 1.069h-15.24zm18.698-9.873V14.424h6.006l-.093 12.611-.092 12.612-2.91.103-2.911.102zm10.96 12.068c-.664-.34-1.696-1.227-2.292-1.972l-1.084-1.355-.109-7.817c-.06-4.3-.013-8.337.106-8.972l.215-1.154 1.093-1.245c.601-.685 1.538-1.475 2.082-1.756l.988-.511h8.537l.952.495c1.319.686 2.408 1.923 3.053 3.467l.546 1.307v14.862l-.543 1.298c-.7 1.676-1.442 2.477-3.059 3.303l-1.309.668-3.983-.001h-3.983zm7.913-12.082v-6.88h-5.291l-.097 6.515c-.053 3.584-.016 6.726.083 6.983l.18.468 2.562-.103 2.563-.104zm7.232.93v-11.77l.777-1.125 1.039-.69 1.032-.227c.568-.125 1.487-.128 2.042-.005l1.008.221.962.823.788 1.083 2.261 5.255 2.262 5.256.096-6.226.097-6.225h5.628v23.513l-.87.818-.871.817-1.667.47-1.755-.14-.956-.833-.956-.833-2.632-5.997-2.632-5.997-.004 6.79-.004 6.792h-5.645zm-107.95-2.342V22.89h8.467v5.645h-8.467z" style="display:inline;fill:#000;fill-opacity:1;stroke-width:.352778"/><path d="M70.509 71.966c-.582-.254-1.645-1.112-2.362-1.906l-1.304-1.445-.41-1.52-.41-1.519.152-2.822.153-2.822.56-1.058c.307-.582.86-1.374 1.23-1.76l.672-.7-1.154-1.512-1.155-1.513-.23-1.223c-.126-.673-.17-2.406-.096-3.85l.132-2.627.808-1.739 1.329-1.304 1.441-1.1 1.702-.664h10.231l1.876.708 1.268 1.056 1.074 1.14 1.074 1.922v7.288l-1.17 1.658-1.168 1.657.711.757c.391.416.957 1.345 1.257 2.064l.546 1.306v6.396l-.546 1.307c-.728 1.743-1.803 2.86-3.511 3.648l-1.411.651-5.115-.006-5.116-.006zm9.278-6.284.423-.423v-5.362l-.423-.424-.423-.423h-5.01l-.423.423-.423.424v5.362l.423.423.423.424h5.01zm-.36-13.178.783-.55v-3.961l-.583-.645-.584-.645h-4.72l-.603.666-.603.666.107 2.059.107 2.06.882.444.882.444 1.774.005 1.773.005zm13.66 19.399c-.582-.302-1.579-1.05-2.214-1.664l-1.156-1.115-.366-1.245-.365-1.244.11-10.64.11-10.64 1.092-1.354c.6-.745 1.712-1.71 2.47-2.143l1.377-.788 5.18-.006 5.181-.006.887.337c.487.185 1.53.92 2.318 1.631l1.172 1.294.812 1.897.552 1.898-.113 9.612-.114 9.613-.587 1.058c-.788 1.42-2.713 3.223-3.934 3.683l-.993.374-5.18-.002-5.18-.002zm9.278-6.22.423-.424V48.255l-.423-.423-.423-.424h-5.01l-.423.424-.424.423v17.004l.424.423.423.424h5.01zm13.3 6.199c-1.652-.89-2.683-1.95-3.39-3.483l-.652-1.412-.008-10.153-.008-10.154.546-1.307c.7-1.676 1.756-2.796 3.456-3.667l1.355-.695 5.551.112 5.551.112 1.429.946 1.21.947 1.144 1.856.925 1.857v19.832l-.925 1.856-1.056 1.64-1.298 1.164-1.429.946-5.672.087-5.672.087zm9.409-6.36.645-.584v-16.24l-.584-.645-.584-.645h-4.78l-.553.555-.555.554v16.48l.555.554.554.555h4.656zm13.064 6.183-1.472-1.011-1.165-1.145c-.538-.53-.693-1.337-.914-1.997l-.402-1.199V46.841l.926-1.857 1.012-1.596 1.342-1.207 1.428-.946 5.672-.095 5.672-.096 1.396.804 1.31.978 1.16 1.352 1.073 1.526.11 10.289.11 10.289-.384 1.307c-.5 1.7-1.88 3.314-3.57 4.176l-1.353.69h-10.436zm9.604-6.154.555-.554v-16.48l-.555-.554-.554-.555h-4.657l-.645.584-.645.584v16.24l.584.644.584.646h4.779zM16.005 35.943v-3.351h11.994l-3.263-4.256a2257 2257 0 0 1-6.498-8.523l-3.234-4.268-.225-1.2-.225-1.2.415-1.301c.472-1.478 1.82-3.07 3.223-3.802l.953-.498h15.204v6.35h-5.997c-3.298 0-5.997.087-5.997.193s2.58 3.558 5.732 7.67 6.09 8.18 6.527 9.039l.794 1.562v2.48l-.489 1.545-.923 1.37-1.197.988-1.544.553h-15.25zm28.398 2.978c-.582-.17-2.268-.58-3.247-1.337l-1.667-1.288-1.556-1.673-1.033-1.76-.744-1.72-.396-1.807V13.895h2.47l2.734-.002h.264l.177 8.09.176 8.09.728.974c.94 1.257 2.2 2.16 3.417 2.45l.97.23V23.87c0-11.442-.373-10.18 2.968-10.035l2.677.116v25.344l-3.44-.032c-1.891-.017-3.915-.17-4.498-.341zm9.702-12.327v-12.7h3.792l3.793.001 2.352.813 2.005 1.248 1.644 1.427 1.21 1.514.917 1.874.7 1.918.42 2.636.202 2.68H60.778l-.027-2.733-.071-2.865 1.98.023c.921-.06 1.762-.1 1.762-.25 0-.71-2.727-2.641-3.768-2.641h-.552v19.755h-5.997zm23.107 12.038a8.4 8.4 0 0 1-4.1-4.1l-.647-1.411-.008-9.555c-.01-11.361-1.22-9.868 7.9-9.746l7.614.101v5.618h-9.923l.111 6.205.11 6.205.99.85.99.851h7.722v5.644l-4.674-.008-4.674-.008zm12.523-12.067v-12.73l4.146.118 4.145.118 1.675.825c.922.454 2.401 1.53 3.288 2.392l1.612 1.566 1.102 1.847.668 2.02.2 2.642.2 2.643h-1.815c-.998 0-1.815.064-1.815.144s1.268 2.363 2.818 5.075 2.919 5.193 3.042 5.514l.223.583-3.258-.102-3.26-.102-3.133-5.644-3.134-5.645-.086-2.646v-2.82l1.937.067c.922-.06 1.676-.056 1.676-.206 0-.71-2.64-2.685-3.681-2.685h-.552v19.755h-5.998zm30.868 12.318c-2.641-1.461-2.868-1.97-7.738-17.333-2.263-7.14-4.204-13.213-4.312-13.494l-.196-.512 3.477.002 3.478.002 3.704 11.791 3.704 11.791.23-.239c.128-.131 1.865-5.438 3.862-11.792l3.63-11.554h6.864l-.8 2.558c-8.693 27.785-8.497 27.285-11.21 28.697l-.953.495-1.517-.01c-.834-.006-1.834-.187-2.223-.401zm14.994-12.23c0-6.952.065-12.707.145-12.788s1.35-.095 2.822-.03l2.677.115v25.344h-5.644zm7.055 9.829v-2.813l5.12-.098 5.12-.097-3.591-4.94c-1.976-2.716-4.28-5.94-5.12-7.165l-1.529-2.227.001-.948.001-.948.428-1.39.819-1 1.056-.546 1.187-.416h14.146v5.645h-5.115c-2.814 0-5.115.074-5.115.165 0 .09 2.116 3.067 4.703 6.614 5.485 7.523 5.527 7.593 5.527 9.284v1.294l-.895 1.33-1.504 1.068h-15.24zm18.697-9.873V13.894h6.006l-.092 12.612-.093 12.612-2.91.102-2.91.103zm10.962 12.068c-.666-.34-1.698-1.227-2.294-1.972l-1.083-1.355-.11-7.817c-.06-4.3-.012-8.337.106-8.972l.215-1.154 1.094-1.245c.6-.685 1.538-1.475 2.081-1.756l.989-.512h8.536l.953.496c1.319.686 2.407 1.923 3.053 3.467l.546 1.306v14.862l-.543 1.3c-.7 1.675-1.443 2.476-3.06 3.301l-1.308.668h-7.966zm7.912-12.083v-6.879h-5.292l-.096 6.515c-.053 3.584-.016 6.726.083 6.983l.18.468 2.562-.104 2.563-.103zm7.232.93v-11.77l.777-1.125 1.038-.69 1.033-.227c.568-.124 1.486-.127 2.041-.005l1.009.222.961.823.788 1.083 2.262 5.255 2.262 5.255.096-6.225.096-6.225h5.628v23.513l-.87.818-.87.817-1.668.469-1.754-.14-.956-.832-.956-.833-2.632-5.997-2.633-5.997-.004 6.79-.004 6.792h-5.644zm-107.95-2.34V22.36h8.467v5.645h-8.467z" style="display:inline;fill:#aaa;fill-opacity:1;stroke-width:.352778"/></svg>