<!-- Created by ERK --><svg xmlns="http://www.w3.org/2000/svg" xml:space="preserve" width="1894" height="384"><linearGradient id="a" x1="948.806" x2="948.806" y1="43.098" y2="337.083" gradientUnits="userSpaceOnUse"><stop offset=".004" style="stop-color:#e2e3e4"/><stop offset="1" style="stop-color:#b3b5b8"/></linearGradient><path fill="url(#a)" d="M36.907 37.907h1823.796v303.966H36.907z"/><path d="M29.5 349.279V30.5h1838.607v318.779zm1831.203-7.407v-7.405zM44.312 334.467h1808.984V45.313H44.312z"/><path fill="#807f7f" d="M697.277 190.185c-7.363 0-13.332 5.969-13.332 13.333 0 7.362 5.969 13.332 13.332 13.332 7.361 0 13.332-5.97 13.332-13.332 0-7.364-5.969-13.333-13.332-13.333m-463.948 0c-7.362 0-13.332 5.969-13.332 13.333 0 7.362 5.97 13.332 13.332 13.332s13.333-5.97 13.333-13.332c0-7.364-5.97-13.333-13.333-13.333m77.325 13.333c0 7.362 5.969 13.332 13.332 13.332 7.362 0 13.332-5.97 13.332-13.332s-5.97-13.333-13.332-13.333-13.332 5.969-13.332 13.333m135.985-13.333c-7.362 0-13.332 5.969-13.332 13.333 0 7.362 5.97 13.332 13.332 13.332s13.332-5.97 13.332-13.332c0-7.364-5.97-13.333-13.332-13.333M914.438 62.199H85.493c-14.071 0-25.479 11.407-25.479 25.479V287.36c0 14.07 11.408 25.479 25.479 25.479h828.944c14.071 0 25.479-11.406 25.479-25.479V87.678c.001-14.072-11.406-25.479-25.478-25.479M172.002 232.848l-15.999-26.664v26.664h-31.997V131.524h47.995c15.998 0 31.997 10.666 31.997 31.997s-15.999 26.664-21.331 26.664l26.664 42.663zm53.328 0c-10.665 0-21.331-10.666-21.331-26.664 0-18.175 15.998-21.332 21.331-21.263 1.944.026 9.087-.069 10.666-.069 10.666 0 5.333-10.666 0-10.666h-21.331v-21.331h42.662c10.666 0 14.665 10.666 14.665 21.331 0 10.666 1.333 58.66 1.333 58.66H225.33zm138.65 0h-42.661c-31.997 0-37.329-26.664-37.329-42.663 0-9.809 5.332-37.329 37.329-37.329h10.666v-21.332h31.997v101.324zm37.331 0h-26.664v-79.992h26.664zm45.328 0c-22.089 0-39.996-17.906-39.996-39.996 0-22.088 17.906-39.996 39.996-39.996s39.995 17.906 39.995 39.996c0 22.087-17.905 39.996-39.995 39.996m135.984-69.327q-15.998 0-15.998 15.998v21.331c0 21.332-5.333 31.998-47.995 31.998V200.85c10.666 0 21.331 0 21.331-15.998v-26.664c0-10.666 5.333-26.664 42.662-26.664zm79.991 69.327h-31.996v-47.996c0-5.333-10.666-5.333-10.666 0v47.996h-26.664V131.524h26.664v26.664c10.666-10.666 42.662-5.333 42.662 15.998zm26.664 0c-10.666 0-21.331-10.666-21.331-26.664 0-18.175 15.998-21.332 21.331-21.263 1.942.026 9.087-.069 10.666-.069 10.666 0 5.333-10.666 0-10.666h-21.332v-21.331h42.662c10.666 0 14.665 10.666 14.665 21.331 0 10.666 1.332 58.66 1.332 58.66h-47.993zm133.086-35.66-28.041-.027c-2.259-4.155-6.661-6.976-11.722-6.976-7.362 0-13.332 5.968-13.332 13.332s5.969 13.332 13.332 13.332c5.137 0 9.596-2.906 11.821-7.164l24.47-.002c-6.354 13.68-20.216 23.164-36.291 23.164-22.09 0-39.996-17.906-39.996-39.994s17.906-39.997 39.996-39.997c22.088 0 39.995 17.906 39.995 39.997a40 40 0 0 1-.232 4.335m42.895 35.66-10.666-31.998h-5.333v31.998h-21.331V131.524h21.331v42.663h5.333l10.666-15.998h26.664l-15.999 26.664 21.332 47.995zM158.67 168.854c-7.363 0-13.332 5.969-13.332 13.332 0 7.362 5.969 13.332 13.332 13.332s13.332-5.969 13.332-13.332-5.968-13.332-13.332-13.332m847.266 45.546h239.976v53.328h-239.976zm261.304 0h239.974v53.328H1267.24zm261.305 0h239.975v53.328h-239.975zm-389.883-104.378h78.117v15.623h-31.247v54.681h-15.623v-54.681h-31.247zm113.068 42.964v27.34h-15.623v-70.304h54.683q23.436 0 23.435 21.403 0 10.157-3.357 14.92 3.357 5.547 3.357 14.452v19.529h-15.621v-19.529q0-7.811-7.813-7.812zm0-15.623h46.871v-11.718h-46.871zm177.495 15.623v-11.718h26.99v11.718zm122.19-27.34h-62.024v11.718h39.06q23.434 0 23.434 21.48 0 21.483-23.434 21.482h-31.246q-19.842 0-22.89-15.623h61.946v-11.718h-39.058q-23.437 0-23.436-21.17 0-21.794 23.436-21.794h31.246q19.998.002 22.966 15.625m-77.101 39.058q-.548-2.812-.547-6.171-.001-8.28 3.592-13.358 5.624 7.813 19.844 7.812h-7.813v11.718zm73.899-19.53q3.67-5.155 3.67-13.67.002-3.125-.468-5.859h-15.154v11.718h-7.812q14.138.001 19.764 7.811m16.283 11.718v-23.435q0-23.435 23.436-23.435h23.436q23.436 0 23.436 23.435v23.435q0 23.435-23.436 23.435h-23.436q-23.435 0-23.436-23.435m46.87 7.812q7.812 0 7.813-7.812v-23.435q0-7.811-7.813-7.812h-23.436q-7.813 0-7.812 7.812v23.435q0 7.812 7.812 7.812zm-280.61-7.715h20.17c0 5.042 2.836 8.51 6.776 8.51h36.323c2.839 0 3.783-2.049 3.783-4.886 0-2.836 1.26-8.982-4.412-8.982h-44.362c-5.515 0-18.438-4.57-18.438-20.013s10.084-21.116 17.177-21.116h53.576c6.461 0 12.449 2.994 12.449 19.541h-19.066c0-3.625-1.892-6.184-8.509-6.184h-28.446c-4.729 0-6.462.353-6.462 7.759s4.255 6.814 7.406 6.814h44.992c7.721 0 14.969 7.841 14.969 19.975 0 12.133-5.829 22.458-18.276 22.458h-53.421c-6.304 0-16.229-3.075-16.229-23.876"/><path fill="#e5e5e5" d="M314.505 207.665c0 7.362 5.969 13.332 13.332 13.332s13.332-5.97 13.332-13.332-5.969-13.332-13.332-13.332-13.332 5.969-13.332 13.332m135.985-13.332c-7.363 0-13.332 5.969-13.332 13.332 0 7.362 5.969 13.332 13.332 13.332s13.332-5.97 13.332-13.332-5.968-13.332-13.332-13.332m250.638 0c-7.363 0-13.332 5.969-13.332 13.332 0 7.362 5.969 13.332 13.332 13.332s13.332-5.97 13.332-13.332-5.969-13.332-13.332-13.332m-538.606-21.331c-7.363 0-13.332 5.969-13.332 13.332 0 7.361 5.969 13.332 13.332 13.332s13.332-5.969 13.332-13.332-5.969-13.332-13.332-13.332m74.658 21.331c-7.363 0-13.332 5.969-13.332 13.332 0 7.362 5.969 13.332 13.332 13.332s13.332-5.97 13.332-13.332-5.969-13.332-13.332-13.332M918.29 66.347H89.345c-14.071 0-25.479 11.408-25.479 25.479v199.681c0 14.071 11.407 25.479 25.479 25.479H918.29c14.071 0 25.479-11.407 25.479-25.479V91.826c.001-14.072-11.408-25.479-25.479-25.479M175.854 236.994l-15.998-26.663v26.663h-31.997V135.672h47.994c15.999 0 31.997 10.666 31.997 31.997s-15.998 26.664-21.331 26.664l26.664 42.662zm53.327 0c-10.665 0-21.331-10.665-21.331-26.663 0-18.174 15.999-21.332 21.331-21.262 1.944.025 9.087-.069 10.666-.069 10.666 0 5.333-10.665 0-10.665h-21.331v-21.331h42.662c10.665 0 14.665 10.666 14.665 21.331s1.333 58.66 1.333 58.66zm138.651 0h-42.661c-31.997 0-37.33-26.663-37.33-42.662 0-9.808 5.333-37.329 37.33-37.329h10.665v-21.331h31.996zm37.33 0h-26.664v-79.991h26.664zm45.328 0c-22.089 0-39.996-17.906-39.996-39.995s17.907-39.996 39.996-39.996 39.996 17.907 39.996 39.996-17.907 39.995-39.996 39.995m135.985-69.325q-15.999 0-15.999 15.998v21.331c0 21.331-5.333 31.996-47.995 31.996v-31.996c10.666 0 21.332 0 21.332-15.999v-26.664c0-10.665 5.334-26.664 42.662-26.664zm79.991 69.325h-31.997V189c0-5.333-10.666-5.333-10.666 0v47.995H597.14V135.672h26.664v26.664c10.666-10.665 42.662-5.333 42.662 15.999zm26.663 0c-10.665 0-21.331-10.665-21.331-26.663 0-18.174 15.999-21.332 21.331-21.262 1.943.025 9.087-.069 10.666-.069 10.666 0 5.333-10.665 0-10.665h-21.331v-21.331h42.662c10.666 0 14.665 10.666 14.665 21.331s1.333 58.66 1.333 58.66zm133.086-35.658-28.041-.027a13.33 13.33 0 0 0-11.723-6.977c-7.362 0-13.332 5.969-13.332 13.332 0 7.361 5.969 13.332 13.332 13.332a13.33 13.33 0 0 0 11.822-7.164l24.47-.002c-6.355 13.679-20.216 23.164-36.292 23.164-22.088 0-39.995-17.906-39.995-39.995s17.907-39.996 39.995-39.996c22.089 0 39.996 17.907 39.996 39.996a40 40 0 0 1-.232 4.337m42.895 35.658-10.666-31.996h-5.333v31.996H831.78V135.672h21.331v42.663h5.333l10.666-15.999h26.663L879.775 189l21.33 47.995zm140.677-18.446h239.975v53.328h-239.975zm261.305 0h239.975v53.328h-239.975zm261.304 0h239.973v53.328h-239.973zM1142.514 114.17h78.116v15.623h-31.246v54.682h-15.624v-54.682h-31.246zm113.069 42.964v27.341h-15.622V114.17h54.68q23.437 0 23.437 21.403 0 10.156-3.357 14.92 3.356 5.547 3.357 14.451v19.529h-15.623v-19.529q0-7.811-7.813-7.812h-39.058zm0-15.623h46.87v-11.718h-46.87zm177.493 15.623v-11.717h26.988v11.717zm122.19-27.341h-62.023v11.718h39.06q23.435 0 23.436 21.482 0 21.482-23.436 21.482h-31.247c-13.229 0-20.855-5.207-22.888-15.624h61.944v-11.717h-39.058q-23.436 0-23.435-21.169 0-21.794 23.435-21.794h31.247q19.996-.001 22.965 15.622m-77.1 39.058q-.548-2.812-.547-6.17c0-5.52 1.195-9.973 3.593-13.358q5.624 7.812 19.843 7.812h-7.813v11.717zm73.898-19.529q3.669-5.156 3.67-13.67.001-3.124-.469-5.859h-15.154v11.718h-7.812q14.141 0 19.765 7.811m16.284 11.718v-23.435q0-23.435 23.437-23.435h23.437q23.434 0 23.434 23.435v23.435q0 23.435-23.434 23.435h-23.437q-23.437 0-23.437-23.435m46.871 7.811q7.81 0 7.812-7.811v-23.435q0-7.812-7.812-7.812h-23.436q-7.813 0-7.813 7.812v23.435q0 7.811 7.813 7.811zm-280.614-7.714h20.172c0 5.042 2.836 8.509 6.774 8.509h36.325c2.837 0 3.782-2.049 3.782-4.886 0-2.836 1.261-8.981-4.412-8.981h-44.362c-5.516 0-18.437-4.57-18.437-20.013s10.084-21.116 17.177-21.116h53.576c6.461 0 12.447 2.994 12.447 19.54h-19.065c0-3.625-1.892-6.183-8.509-6.183h-28.447c-4.726 0-6.46.353-6.46 7.759s4.255 6.813 7.405 6.813h44.992c7.721 0 14.97 7.841 14.97 19.975 0 12.133-5.83 22.458-18.278 22.458h-53.42c-6.303 0-16.23-3.074-16.23-23.875"/><path d="M313.024 205.889c0 7.362 5.969 13.331 13.331 13.331 7.363 0 13.332-5.969 13.332-13.331 0-7.363-5.969-13.332-13.332-13.332-7.362 0-13.331 5.968-13.331 13.332m386.622-13.332c-7.361 0-13.332 5.969-13.332 13.332 0 7.362 5.97 13.331 13.332 13.331s13.332-5.969 13.332-13.331c.001-7.364-5.968-13.332-13.332-13.332m-463.947 0c-7.363 0-13.332 5.969-13.332 13.332 0 7.362 5.969 13.331 13.332 13.331s13.332-5.969 13.332-13.331c0-7.364-5.969-13.332-13.332-13.332M916.809 64.57H87.864c-14.071 0-25.479 11.408-25.479 25.479V289.73c0 14.071 11.407 25.479 25.479 25.479h828.944c14.071 0 25.479-11.406 25.479-25.479V90.049c0-14.071-11.407-25.479-25.478-25.479M174.373 235.219l-15.999-26.664v26.664h-31.997V133.896h47.995c15.998 0 31.996 10.666 31.996 31.997s-15.998 26.664-21.331 26.664l26.664 42.663zm53.327 0c-10.666 0-21.331-10.666-21.331-26.664 0-18.174 15.998-21.331 21.331-21.262 1.943.025 9.087-.069 10.666-.069 10.665 0 5.333-10.666 0-10.666h-21.331v-21.332h42.662c10.666 0 14.665 10.666 14.665 21.332s1.333 58.661 1.333 58.661zm138.652 0h-42.661c-31.998 0-37.33-26.664-37.33-42.662 0-9.81 5.333-37.331 37.33-37.331h10.666v-21.331h31.997v101.324zm37.329 0h-26.664v-79.992h26.664zm45.328 0c-22.089 0-39.996-17.906-39.996-39.996 0-22.089 17.907-39.996 39.996-39.996s39.996 17.907 39.996 39.996-17.907 39.996-39.996 39.996m135.985-69.326q-15.999 0-15.999 15.999v21.331c0 21.331-5.332 31.997-47.994 31.997v-31.997c10.666 0 21.331 0 21.331-15.998v-26.664c0-10.665 5.333-26.664 42.662-26.664zm79.99 69.326h-31.996v-47.995c0-5.333-10.666-5.333-10.666 0v47.995h-26.664V133.896h26.664v26.664c10.666-10.665 42.662-5.333 42.662 15.999zm26.664 0c-10.666 0-21.331-10.666-21.331-26.664 0-18.174 15.999-21.331 21.331-21.262 1.942.025 9.087-.069 10.666-.069 10.666 0 5.332-10.666 0-10.666h-21.331v-21.332h42.661c10.666 0 14.666 10.666 14.666 21.332s1.332 58.661 1.332 58.661zm133.086-35.658-28.041-.028a13.33 13.33 0 0 0-11.723-6.976c-7.362 0-13.332 5.969-13.332 13.332 0 7.362 5.97 13.331 13.332 13.331 5.138 0 9.597-2.905 11.822-7.163l24.47-.002c-6.354 13.678-20.216 23.164-36.292 23.164-22.089 0-39.996-17.906-39.996-39.996 0-22.089 17.906-39.996 39.996-39.996 22.088 0 39.996 17.907 39.996 39.996a40 40 0 0 1-.232 4.338m42.895 35.658-10.666-31.996h-5.333v31.996H830.3V133.896h21.331v42.663h5.333l10.666-15.999h26.664l-15.999 26.664 21.331 47.995zm-706.588-63.994c-7.363 0-13.332 5.969-13.332 13.332s5.969 13.332 13.332 13.332c7.362 0 13.332-5.969 13.332-13.332s-5.97-13.332-13.332-13.332m287.968 21.332c-7.362 0-13.332 5.969-13.332 13.332 0 7.362 5.97 13.331 13.332 13.331s13.332-5.969 13.332-13.331c0-7.364-5.969-13.332-13.332-13.332"/><path fill="#ce2027" d="M1008.307 216.771h239.975v53.328h-239.975z"/><path fill="#0f7c3e" d="M1269.61 216.771h239.974v53.328H1269.61z"/><path fill="#233d98" d="M1530.915 216.771h239.974v53.328h-239.974z"/><path d="M1141.032 112.394h78.116v15.623h-31.246v54.682h-15.624v-54.682h-31.246zm113.072 42.963v27.341h-15.623v-70.305h54.681q23.436 0 23.436 21.404 0 10.156-3.358 14.92 3.358 5.547 3.358 14.452v19.529h-15.623v-19.529q0-7.812-7.813-7.812zm0-15.623h46.869v-11.718h-46.869zm177.492 15.623V143.64h26.988v11.717zm122.189-27.34h-62.025v11.718h39.061q23.435 0 23.435 21.482 0 21.483-23.435 21.482h-31.247q-19.841 0-22.888-15.624h61.945v-11.717h-39.059q-23.435 0-23.436-21.169 0-21.795 23.436-21.794h31.247q19.998-.001 22.966 15.622m-77.099 39.058q-.548-2.812-.547-6.171-.001-8.28 3.592-13.358 5.624 7.812 19.843 7.812h-7.813v11.717zm73.897-19.529q3.67-5.155 3.671-13.67 0-3.124-.469-5.859h-15.154v11.718h-7.813q14.14-.001 19.765 7.811m16.284 11.718v-23.435q0-23.436 23.435-23.435h23.437q23.435 0 23.435 23.435v23.435q0 23.435-23.435 23.435h-23.437q-23.435-.001-23.435-23.435m46.87 7.811c5.204 0 7.811-2.603 7.811-7.811v-23.435q0-7.812-7.811-7.812H1590.3q-7.813 0-7.812 7.812v23.435q0 7.811 7.812 7.811zm-280.612-7.715h20.171c0 5.042 2.837 8.51 6.775 8.51h36.327c2.836 0 3.781-2.049 3.781-4.886 0-2.836 1.26-8.981-4.412-8.981h-44.363c-5.515 0-18.437-4.57-18.437-20.013s10.085-21.116 17.177-21.116h53.576c6.461 0 12.447 2.994 12.447 19.54h-19.064c0-3.624-1.893-6.183-8.511-6.183h-28.445c-4.728 0-6.46.353-6.46 7.759s4.254 6.813 7.404 6.813h44.992c7.721 0 14.971 7.841 14.971 19.975 0 12.133-5.832 22.458-18.278 22.458h-53.421c-6.301.001-16.23-3.075-16.23-23.876"/></svg>