<!-- Created by ERK --><svg xmlns="http://www.w3.org/2000/svg" width="499.76" height="91.636"><g aria-label="VIDEOTON" style="font-weight:700;font-size:96px;font-family:&quot;Century Gothic&quot;;-inkscape-font-specification:&quot;Century Gothic Bold&quot;;fill:#333;stroke-width:3.75685"><path d="M11.902 12.525h13.5L42.746 61.51l17.578-48.984h13.5L48.98 81.478H36.324zm71.531 0h13.032v68.953H83.433zm27.844 0h15.563q15.047 0 22.36 3.75 7.312 3.703 12.046 12.094t4.734 19.594q0 7.968-2.672 14.671-2.625 6.657-7.312 11.063-4.64 4.406-10.078 6.094-5.438 1.687-18.844 1.687h-15.797zm13.078 12.656v43.453h6.094q9 0 13.031-2.062 4.078-2.063 6.657-6.938t2.578-12q0-10.968-6.14-17.015-5.532-5.438-17.767-5.438zm54.141-12.656h37.64V25.37h-24.609v12.469h24.61v12.609h-24.61v18.14h24.61v12.891h-37.641zm82.454-1.735q14.624 0 25.124 10.594 10.547 10.594 10.547 25.829 0 15.093-10.406 25.546-10.36 10.454-25.172 10.454-15.516 0-25.781-10.735-10.266-10.734-10.266-25.5 0-9.89 4.781-18.187t13.125-13.125q8.39-4.875 18.047-4.875zm-.142 12.844q-9.562 0-16.078 6.657-6.515 6.656-6.515 16.922 0 11.437 8.203 18.093 6.375 5.203 14.625 5.203 9.328 0 15.89-6.75t6.563-16.64q0-9.844-6.61-16.64-6.609-6.845-16.078-6.845z" style="fill:none;stroke:#fff" transform="translate(-1.014 -.757)scale(.99445)"/><path d="M317.784 81.478V24.384h-20.391V12.76h54.61v11.625h-20.344v57.094z" style="font-family:Arial;-inkscape-font-specification:&quot;Arial Bold&quot;;fill:#fff" transform="translate(-1.014 -.757)scale(.99445)"/><path d="M388.634 10.377q14.625 0 25.125 10.594 10.547 10.594 10.547 25.828 0 15.094-10.407 25.547-10.359 10.453-25.171 10.453-15.516 0-25.782-10.734t-10.265-25.5q0-9.891 4.781-18.188t13.125-13.125q8.39-4.875 18.047-4.875m-.14 12.844q-9.563 0-16.079 6.656T365.9 46.8q0 11.438 8.204 18.094 6.375 5.203 14.625 5.203 9.328 0 15.89-6.75t6.563-16.64q0-9.844-6.61-16.641-6.609-6.844-16.078-6.844m48.234-11.11h12.562l29.578 45.375V12.112h13.125v68.953h-12.61l-29.53-45.235v45.235h-13.125z" style="fill:#fff" transform="translate(-1.014 -.757)scale(.99445)"/></g></svg>