<?xml version="1.0" encoding="UTF-8" standalone="no"?>
<!-- Uploaded to: SVG Repo, www.svgrepo.com, Transformed by: SVG Repo Mixer Tools -->

<svg
   xmlns:dc="http://purl.org/dc/elements/1.1/"
   xmlns:cc="http://creativecommons.org/ns#"
   xmlns:rdf="http://www.w3.org/1999/02/22-rdf-syntax-ns#"
   xmlns:svg="http://www.w3.org/2000/svg"
   xmlns="http://www.w3.org/2000/svg"
   xmlns:sodipodi="http://sodipodi.sourceforge.net/DTD/sodipodi-0.dtd"
   xmlns:inkscape="http://www.inkscape.org/namespaces/inkscape"
   fill="#ffffff"
   version="1.1"
   id="Capa_1"
   width="800px"
   height="800px"
   viewBox="0 0 114 114"
   xml:space="preserve"
   stroke="#ffffff"
   sodipodi:docname="auto-lightgun.svg"
   inkscape:version="0.92.4 (5da689c313, 2019-01-14)"><metadata
   id="metadata26"><rdf:RDF><cc:Work
       rdf:about=""><dc:format>image/svg+xml</dc:format><dc:type
         rdf:resource="http://purl.org/dc/dcmitype/StillImage" /></cc:Work></rdf:RDF></metadata><defs
   id="defs24" /><sodipodi:namedview
   pagecolor="#ffffff"
   bordercolor="#666666"
   borderopacity="1"
   objecttolerance="10"
   gridtolerance="10"
   guidetolerance="10"
   inkscape:pageopacity="0"
   inkscape:pageshadow="2"
   inkscape:window-width="1920"
   inkscape:window-height="1017"
   id="namedview22"
   showgrid="false"
   inkscape:zoom="0.59"
   inkscape:cx="767.18782"
   inkscape:cy="268.51903"
   inkscape:window-x="1912"
   inkscape:window-y="-8"
   inkscape:window-maximized="1"
   inkscape:current-layer="Capa_1" />

<g
   id="SVGRepo_bgCarrier"
   stroke-width="0" />

<g
   id="SVGRepo_tracerCarrier"
   stroke-linecap="round"
   stroke-linejoin="round" />

<g
   id="SVGRepo_iconCarrier"
   style="fill:#000000"
   transform="matrix(0.86138541,0,0,0.86138541,8.1425571,8.625608)"> <g
   id="g18"
   style="fill:#000000"> <g
   id="g16"
   style="fill:#000000"> <path
   d="m 114,55.5 h -6.538 C 106.68,28.847 85.152,7.321 58.5,6.538 V 0 h -3 V 6.538 C 28.847,7.321 7.321,28.847 6.538,55.5 H 0 v 3 H 6.538 C 7.321,85.152 28.847,106.68 55.5,107.462 V 114 h 3 v -6.538 C 85.152,106.68 106.68,85.152 107.462,58.5 H 114 Z M 56.801733,105.49133 C 30.610733,105.49133 8.1121313,83.191 8.1121313,57 8.1121313,30.809 30.809,8.0980409 57,8.0980409 c 24.508649,0 48.6896,21.9038011 48.6896,48.0948011 0,26.191 -22.696867,49.298488 -48.887867,49.298488 z"
   id="path4"
   style="fill:#000000"
   inkscape:connector-curvature="0"
   sodipodi:nodetypes="cccccccccccccccccsssss" /> <path
   style="fill:#000000"
   d="m 56.161724,55.830862 h -9.739 v 2.008665 h 9.937267 l -0.198267,10.731335 h 2.008665 l 0.198267,-10.731335 10.531068,0.198267 V 55.830862 H 58.170389 v -9.74 h -2.008665 z"
   id="polygon6"
   inkscape:connector-curvature="0"
   sodipodi:nodetypes="ccccccccccccc" /> <path
   style="fill:#000000"
   d="m 79.666,56 h 20 v 2 h -20 z"
   id="rect8" /> <path
   style="fill:#000000"
   d="m 14.999,56 h 20 v 2 h -20 z"
   id="rect10" /> <path
   style="fill:#000000"
   d="m 56,79.333 h 2 v 20 h -2 z"
   id="rect12" /> <path
   style="fill:#000000"
   d="m 56,14.667 h 2 v 20 h -2 z"
   id="rect14" /> </g> </g> </g>

</svg>