<!DOCTYPE svg PUBLIC "-//W3C//DTD SVG 1.1//EN" "http://www.w3.org/Graphics/SVG/1.1/DTD/svg11.dtd">
<!-- Uploaded to: SVG Repo, www.svgrepo.com, Transformed by: SVG Repo Mixer Tools -->
<svg fill="#ffffff" width="256px" height="256px" viewBox="0 0 96 96" xmlns="http://www.w3.org/2000/svg" stroke="#ffffff" stroke-width="0.0009600000000000001">
<g id="SVGRepo_bgCarrier" stroke-width="0"/>
<g id="SVGRepo_tracerCarrier" stroke-linecap="round" stroke-linejoin="round"/>
<g id="SVGRepo_iconCarrier"> <title/> <g id="Bank"> <path d="M77.5,70H77V67.5a2.5,2.5,0,0,0-2-2.45V62.5a2.5,2.5,0,0,0-2-2.45V44a2.5,2.5,0,0,0,2-2.45V39h4.5a.5.5,0,0,0,.26-.93l-31.5-19a.53.53,0,0,0-.52,0l-31.5,19a.5.5,0,0,0,.26.93H21v2.5A2.5,2.5,0,0,0,23,44v16.1a2.5,2.5,0,0,0-2,2.45v2.55a2.5,2.5,0,0,0-2,2.45V70h-.5A2.5,2.5,0,0,0,16,72.5v3a.5.5,0,0,0,.5.5h63a.5.5,0,0,0,.5-.5v-3A2.5,2.5,0,0,0,77.5,70ZM74,62.5V65H62V62.5A1.5,1.5,0,0,1,63.5,61h9A1.5,1.5,0,0,1,74,62.5ZM55,65V62.5a2.5,2.5,0,0,0-2-2.45V44a2.5,2.5,0,0,0,2-2.45V39h6v2.5A2.5,2.5,0,0,0,63,44v16.1a2.5,2.5,0,0,0-2,2.45V65ZM35,65V62.5a2.5,2.5,0,0,0-2-2.45V44a2.5,2.5,0,0,0,2-2.45V39h6v2.5A2.5,2.5,0,0,0,43,44v16.1a2.5,2.5,0,0,0-2,2.45V65ZM24,44h8V60H24Zm20,0h8V60H44Zm8.5-1h-9A1.5,1.5,0,0,1,42,41.5V39H54v2.5A1.5,1.5,0,0,1,52.5,43ZM42,62.5A1.5,1.5,0,0,1,43.5,61h9A1.5,1.5,0,0,1,54,62.5V65H42ZM72,60H64V44h8Zm2-18.5A1.5,1.5,0,0,1,72.5,43h-9A1.5,1.5,0,0,1,62,41.5V39H74ZM48,20.08,77.7,38H18.3ZM22,41.5V39H34v2.5A1.5,1.5,0,0,1,32.5,43h-9A1.5,1.5,0,0,1,22,41.5Zm0,21A1.5,1.5,0,0,1,23.5,61h9A1.5,1.5,0,0,1,34,62.5V65H22Zm-2,5A1.5,1.5,0,0,1,21.5,66h53A1.5,1.5,0,0,1,76,67.5V70H20ZM79,75H17V72.5A1.5,1.5,0,0,1,18.5,71h59A1.5,1.5,0,0,1,79,72.5Z"/> <path d="M48,35a4,4,0,1,0-4-4A4,4,0,0,0,48,35Zm0-7a3,3,0,1,1-3,3A3,3,0,0,1,48,28Z"/> <circle cx="57" cy="31" r="2"/> <circle cx="39" cy="31" r="2"/> </g> </g>
</svg>