<?xml version="1.0" encoding="UTF-8" standalone="no"?>
<svg xmlns="http://www.w3.org/2000/svg" version="1.2" baseProfile="tiny" viewBox="0 0 205 151">
<path fill="none" stroke-width="1.00" stroke="#f4f4f4" vector-effect="non-scaling-stroke" d="
  M 52.06 0.00
  L 152.56 0.00
  Q 158.00 1.12 157.94 6.75
  Q 157.72 25.88 158.37 45.00
  Q 159.20 73.61 158.53 102.17
  L 153.89 105.22
  A 1.78 0.78 -45.0 0 1 153.00 105.57
  C 120.29 106.59 87.33 105.69 54.57 106.07
  Q 49.40 106.13 45.43 101.76
  Q 44.67 73.44 45.12 45.03
  Q 45.36 45.10 45.61 45.01
  A 0.83 0.62 82.2 0 0 46.01 44.28
  Q 45.98 26.10 46.01 7.91
  C 46.02 3.32 47.20 0.39 52.06 0.00
  Z"
/>
<path fill="none" stroke-width="1.00" stroke="#f4f4f4" vector-effect="non-scaling-stroke" d="
  M 46.80 98.57
  C 47.32 64.81 46.24 33.43 46.97 6.25
  Q 47.10 1.52 52.31 1.49
  Q 101.91 1.22 151.50 1.27
  C 156.44 1.27 156.93 4.05 156.96 8.34
  Q 157.25 52.64 157.25 96.93
  C 157.25 101.84 155.12 104.75 150.04 104.75
  Q 102.25 104.76 54.47 104.74
  C 50.30 104.74 46.73 103.03 46.80 98.57
  Z"
/>
<path fill="none" stroke-width="1.00" stroke="#f4f4f4" vector-effect="non-scaling-stroke" d="
  M 147.43 82.77
  A 3.23 3.23 0.0 0 1 144.20 86.00
  L 60.78 86.00
  A 3.23 3.23 0.0 0 1 57.55 82.77
  L 57.55 14.49
  A 3.23 3.23 0.0 0 1 60.78 11.26
  L 144.20 11.26
  A 3.23 3.23 0.0 0 1 147.43 14.49
  L 147.43 82.77
  Z"
/>
<rect fill="none" stroke-width="1.00" stroke="#f4f4f4" vector-effect="non-scaling-stroke" x="66.01" y="19.01" width="73.24" height="58.74" rx="0.26"/>
<path fill="none" stroke-width="1.00" stroke="#f4f4f4" vector-effect="non-scaling-stroke" d="
  M 45.12 45.03
  Q 44.67 73.44 45.43 101.76
  Q 45.16 126.39 46.03 151.01
  L 17.94 151.00
  Q 3.16 151.25 0.00 137.19
  L 0.00 58.19
  C 1.43 48.29 7.74 45.00 17.07 45.00
  Q 30.98 44.99 45.12 45.03
  Z
  M 17.96 70.50
  Q 11.06 72.93 8.74 79.87
  L 6.51 80.17
  A 0.61 0.57 86.2 0 0 6.02 80.77
  L 6.02 91.20
  A 0.73 0.66 -81.8 0 0 6.48 91.88
  Q 7.35 92.15 8.25 92.04
  Q 10.93 98.96 17.90 101.65
  L 18.04 103.47
  A 0.55 0.52 87.6 0 0 18.56 103.98
  L 29.45 103.98
  A 0.56 0.51 -86.9 0 0 29.96 103.47
  L 30.12 101.66
  Q 37.10 99.10 39.60 92.07
  L 41.48 91.96
  A 0.53 0.52 -1.8 0 0 41.98 91.44
  L 41.98 80.78
  A 0.64 0.56 -86.4 0 0 41.50 80.16
  L 39.48 79.87
  Q 37.10 73.02 30.10 70.77
  L 29.84 68.52
  A 0.63 0.57 -3.1 0 0 29.22 68.02
  L 19.04 68.02
  A 0.91 0.80 12.5 0 0 18.27 68.44
  Q 17.75 69.36 17.96 70.50
  Z"
/>
<path fill="none" stroke-width="1.00" stroke="#f4f4f4" vector-effect="non-scaling-stroke" d="
  M 158.37 45.00
  Q 171.24 44.95 184.20 45.04
  C 192.90 45.09 203.03 45.11 203.02 55.88
  Q 202.98 97.18 203.01 138.41
  C 203.02 147.22 195.68 151.42 187.39 150.83
  L 158.07 151.00
  L 158.53 102.17
  Q 159.20 73.61 158.37 45.00
  Z
  M 170.0521 75.9598
  A 7.46 6.95 89.6 0 0 176.9498 68.4515
  A 7.46 6.95 89.6 0 0 169.9479 61.0402
  A 7.46 6.95 89.6 0 0 163.0502 68.5485
  A 7.46 6.95 89.6 0 0 170.0521 75.9598
  Z
  M 198.96 79.50
  A 9.47 9.47 0.0 0 0 189.49 70.03
  A 9.47 9.47 0.0 0 0 180.02 79.50
  A 9.47 9.47 0.0 0 0 189.49 88.97
  A 9.47 9.47 0.0 0 0 198.96 79.50
  Z
  M 180.97 92.49
  A 9.48 9.48 0.0 0 0 171.49 83.01
  A 9.48 9.48 0.0 0 0 162.01 92.49
  A 9.48 9.48 0.0 0 0 171.49 101.97
  A 9.48 9.48 0.0 0 0 180.97 92.49
  Z"
/>
<path fill="none" stroke-width="1.00" stroke="#f4f4f4" vector-effect="non-scaling-stroke" d="
  M 17.96 70.50
  L 17.99 79.50
  A 0.49 0.48 -89.4 0 1 17.50 79.99
  L 8.74 79.87
  Q 11.06 72.93 17.96 70.50
  Z"
/>
<path fill="none" stroke-width="1.00" stroke="#f4f4f4" vector-effect="non-scaling-stroke" d="
  M 39.48 79.87
  L 30.50 79.99
  A 0.48 0.48 -41.1 0 1 30.01 79.50
  L 30.10 70.77
  Q 37.10 73.02 39.48 79.87
  Z"
/>
<path fill="none" stroke-width="1.00" stroke="#f4f4f4" vector-effect="non-scaling-stroke" d="
  M 8.25 92.04
  L 17.50 92.01
  A 0.49 0.48 0.6 0 1 17.99 92.50
  L 17.90 101.65
  Q 10.93 98.96 8.25 92.04
  Z"
/>
<path fill="none" stroke-width="1.00" stroke="#f4f4f4" vector-effect="non-scaling-stroke" d="
  M 39.60 92.07
  Q 37.10 99.10 30.12 101.66
  L 30.01 92.50
  A 0.49 0.48 -0.6 0 1 30.50 92.01
  L 39.60 92.07
  Z"
/>
<path fill="none" stroke-width="1.00" stroke="#f4f4f4" vector-effect="non-scaling-stroke" d="
  M 45.43 101.76
  Q 49.40 106.13 54.57 106.07
  C 87.33 105.69 120.29 106.59 153.00 105.57
  A 1.78 0.78 -45.0 0 0 153.89 105.22
  L 158.53 102.17
  L 158.07 151.00
  L 46.03 151.01
  Q 45.16 126.39 45.43 101.76
  Z
  M 67.0073 113.3314
  A 0.32 0.32 0.0 0 0 66.6878 113.0108
  L 54.3279 112.9892
  A 0.32 0.32 0.0 0 0 54.0073 113.3087
  L 53.9927 121.6686
  A 0.32 0.32 0.0 0 0 54.3122 121.9892
  L 66.6721 122.0108
  A 0.32 0.32 0.0 0 0 66.9927 121.6913
  L 67.0073 113.3314
  Z
  M 84.0073 113.3314
  A 0.32 0.32 0.0 0 0 83.6878 113.0108
  L 71.3279 112.9892
  A 0.32 0.32 0.0 0 0 71.0073 113.3087
  L 70.9927 121.6686
  A 0.32 0.32 0.0 0 0 71.3122 121.9892
  L 83.6721 122.0108
  A 0.32 0.32 0.0 0 0 83.9927 121.6913
  L 84.0073 113.3314
  Z
  M 100.0071 113.4414
  A 0.43 0.43 0.0 0 0 99.5778 113.0106
  L 87.4379 112.9894
  A 0.43 0.43 0.0 0 0 87.0071 113.4187
  L 86.9929 121.5586
  A 0.43 0.43 0.0 0 0 87.4222 121.9894
  L 99.5621 122.0106
  A 0.43 0.43 0.0 0 0 99.9929 121.5813
  L 100.0071 113.4414
  Z
  M 116.9874 113.2913
  A 0.26 0.26 0.0 0 0 116.7278 113.0309
  L 104.2678 113.0091
  A 0.26 0.26 0.0 0 0 104.0074 113.2687
  L 103.9926 121.7287
  A 0.26 0.26 0.0 0 0 104.2522 121.9891
  L 116.7122 122.0109
  A 0.26 0.26 0.0 0 0 116.9726 121.7513
  L 116.9874 113.2913
  Z
  M 134.0073 113.3314
  A 0.32 0.32 0.0 0 0 133.6878 113.0108
  L 121.3279 112.9892
  A 0.32 0.32 0.0 0 0 121.0073 113.3087
  L 120.9927 121.6686
  A 0.32 0.32 0.0 0 0 121.3122 121.9892
  L 133.6721 122.0108
  A 0.32 0.32 0.0 0 0 133.9927 121.6913
  L 134.0073 113.3314
  Z
  M 151.0074 113.2814
  A 0.27 0.27 0.0 0 0 150.7378 113.0109
  L 138.2779 112.9891
  A 0.27 0.27 0.0 0 0 138.0074 113.2587
  L 137.9926 121.7186
  A 0.27 0.27 0.0 0 0 138.2622 121.9891
  L 150.7221 122.0109
  A 0.27 0.27 0.0 0 0 150.9926 121.7413
  L 151.0074 113.2814
  Z
  M 67.0073 125.3314
  A 0.32 0.32 0.0 0 0 66.6878 125.0108
  L 54.3279 124.9892
  A 0.32 0.32 0.0 0 0 54.0073 125.3087
  L 53.9927 133.6686
  A 0.32 0.32 0.0 0 0 54.3122 133.9892
  L 66.6721 134.0108
  A 0.32 0.32 0.0 0 0 66.9927 133.6913
  L 67.0073 125.3314
  Z
  M 84.0074 125.2814
  A 0.27 0.27 0.0 0 0 83.7378 125.0109
  L 71.2779 124.9891
  A 0.27 0.27 0.0 0 0 71.0074 125.2587
  L 70.9926 133.7186
  A 0.27 0.27 0.0 0 0 71.2622 133.9891
  L 83.7221 134.0109
  A 0.27 0.27 0.0 0 0 83.9926 133.7413
  L 84.0074 125.2814
  Z
  M 100.0074 125.2814
  A 0.27 0.27 0.0 0 0 99.7378 125.0109
  L 87.2779 124.9891
  A 0.27 0.27 0.0 0 0 87.0074 125.2587
  L 86.9926 133.7186
  A 0.27 0.27 0.0 0 0 87.2622 133.9891
  L 99.7221 134.0109
  A 0.27 0.27 0.0 0 0 99.9926 133.7413
  L 100.0074 125.2814
  Z
  M 117.0073 125.3314
  A 0.32 0.32 0.0 0 0 116.6878 125.0108
  L 104.3279 124.9892
  A 0.32 0.32 0.0 0 0 104.0073 125.3087
  L 103.9927 133.6686
  A 0.32 0.32 0.0 0 0 104.3122 133.9892
  L 116.6721 134.0108
  A 0.32 0.32 0.0 0 0 116.9927 133.6913
  L 117.0073 125.3314
  Z
  M 134.0074 125.2814
  A 0.27 0.27 0.0 0 0 133.7378 125.0109
  L 121.2779 124.9891
  A 0.27 0.27 0.0 0 0 121.0074 125.2587
  L 120.9926 133.7186
  A 0.27 0.27 0.0 0 0 121.2622 133.9891
  L 133.7221 134.0109
  A 0.27 0.27 0.0 0 0 133.9926 133.7413
  L 134.0074 125.2814
  Z
  M 151.0074 125.2814
  A 0.27 0.27 0.0 0 0 150.7378 125.0109
  L 138.2779 124.9891
  A 0.27 0.27 0.0 0 0 138.0074 125.2587
  L 137.9926 133.7186
  A 0.27 0.27 0.0 0 0 138.2622 133.9891
  L 150.7221 134.0109
  A 0.27 0.27 0.0 0 0 150.9926 133.7413
  L 151.0074 125.2814
  Z
  M 67.0074 137.2814
  A 0.27 0.27 0.0 0 0 66.7378 137.0109
  L 54.2779 136.9891
  A 0.27 0.27 0.0 0 0 54.0074 137.2587
  L 53.9926 145.7186
  A 0.27 0.27 0.0 0 0 54.2622 145.9891
  L 66.7221 146.0109
  A 0.27 0.27 0.0 0 0 66.9926 145.7413
  L 67.0074 137.2814
  Z
  M 84.0074 137.2814
  A 0.27 0.27 0.0 0 0 83.7378 137.0109
  L 71.2779 136.9891
  A 0.27 0.27 0.0 0 0 71.0074 137.2587
  L 70.9926 145.7186
  A 0.27 0.27 0.0 0 0 71.2622 145.9891
  L 83.7221 146.0109
  A 0.27 0.27 0.0 0 0 83.9926 145.7413
  L 84.0074 137.2814
  Z
  M 100.0073 137.3314
  A 0.32 0.32 0.0 0 0 99.6878 137.0108
  L 87.3279 136.9892
  A 0.32 0.32 0.0 0 0 87.0073 137.3087
  L 86.9927 145.6686
  A 0.32 0.32 0.0 0 0 87.3122 145.9892
  L 99.6721 146.0108
  A 0.32 0.32 0.0 0 0 99.9927 145.6913
  L 100.0073 137.3314
  Z
  M 117.0073 137.3314
  A 0.32 0.32 0.0 0 0 116.6878 137.0108
  L 104.3279 136.9892
  A 0.32 0.32 0.0 0 0 104.0073 137.3087
  L 103.9927 145.6686
  A 0.32 0.32 0.0 0 0 104.3122 145.9892
  L 116.6721 146.0108
  A 0.32 0.32 0.0 0 0 116.9927 145.6913
  L 117.0073 137.3314
  Z
  M 134.0074 137.2814
  A 0.27 0.27 0.0 0 0 133.7378 137.0109
  L 121.2779 136.9891
  A 0.27 0.27 0.0 0 0 121.0074 137.2587
  L 120.9926 145.7186
  A 0.27 0.27 0.0 0 0 121.2622 145.9891
  L 133.7221 146.0109
  A 0.27 0.27 0.0 0 0 133.9926 145.7413
  L 134.0074 137.2814
  Z
  M 151.0074 137.2814
  A 0.27 0.27 0.0 0 0 150.7378 137.0109
  L 138.2779 136.9891
  A 0.27 0.27 0.0 0 0 138.0074 137.2587
  L 137.9926 145.7186
  A 0.27 0.27 0.0 0 0 138.2622 145.9891
  L 150.7221 146.0109
  A 0.27 0.27 0.0 0 0 150.9926 145.7413
  L 151.0074 137.2814
  Z"
/>
<rect fill="none" stroke-width="1.00" stroke="#f4f4f4" vector-effect="non-scaling-stroke" x="-1.25" y="-1.25" transform="translate(20.76,116.55) rotate(-3.4)" width="2.50" height="2.50" rx="0.89"/>
<ellipse fill="none" stroke-width="1.00" stroke="#f4f4f4" vector-effect="non-scaling-stroke" cx="0.00" cy="0.00" transform="translate(25.38,116.51) rotate(5.5)" rx="1.45" ry="1.31"/>
<circle fill="none" stroke-width="1.00" stroke="#f4f4f4" vector-effect="non-scaling-stroke" cx="30.00" cy="116.59" r="1.34"/>
<circle fill="none" stroke-width="1.00" stroke="#f4f4f4" vector-effect="non-scaling-stroke" cx="174.90" cy="116.53" r="1.35"/>
<circle fill="none" stroke-width="1.00" stroke="#f4f4f4" vector-effect="non-scaling-stroke" cx="179.53" cy="116.55" r="1.34"/>
<ellipse fill="none" stroke-width="1.00" stroke="#f4f4f4" vector-effect="non-scaling-stroke" cx="0.00" cy="0.00" transform="translate(184.11,116.54) rotate(22.8)" rx="1.40" ry="1.27"/>
<circle fill="none" stroke-width="1.00" stroke="#f4f4f4" vector-effect="non-scaling-stroke" cx="16.13" cy="121.09" r="1.34"/>
<path fill="none" stroke-width="1.00" stroke="#f4f4f4" vector-effect="non-scaling-stroke" d="
  M 19.69 120.44
  Q 20.39 119.52 21.37 119.95
  A 1.13 1.02 -88.7 0 1 21.98 120.66
  Q 22.50 122.46 20.45 122.34
  Q 18.32 122.22 19.69 120.44
  Z"
/>
<circle fill="none" stroke-width="1.00" stroke="#f4f4f4" vector-effect="non-scaling-stroke" cx="25.44" cy="121.12" r="1.34"/>
<circle fill="none" stroke-width="1.00" stroke="#f4f4f4" vector-effect="non-scaling-stroke" cx="34.62" cy="121.10" r="1.35"/>
<circle fill="none" stroke-width="1.00" stroke="#f4f4f4" vector-effect="non-scaling-stroke" cx="170.25" cy="121.15" r="1.31"/>
<circle fill="none" stroke-width="1.00" stroke="#f4f4f4" vector-effect="non-scaling-stroke" cx="174.90" cy="121.07" r="1.32"/>
<path fill="none" stroke-width="1.00" stroke="#f4f4f4" vector-effect="non-scaling-stroke" d="
  M 180.59 120.60
  Q 181.31 121.88 179.99 122.36
  A 0.87 0.79 56.0 0 1 179.13 122.15
  Q 176.90 119.95 179.81 120.14
  A 1.02 0.89 -10.6 0 1 180.59 120.60
  Z"
/>
<circle fill="none" stroke-width="1.00" stroke="#f4f4f4" vector-effect="non-scaling-stroke" cx="184.11" cy="121.10" r="1.35"/>
<rect fill="none" stroke-width="1.00" stroke="#f4f4f4" vector-effect="non-scaling-stroke" x="-1.24" y="-1.22" transform="translate(30.00,121.20) rotate(-0.1)" width="2.48" height="2.44" rx="0.74"/>
<rect fill="none" stroke-width="1.00" stroke="#f4f4f4" vector-effect="non-scaling-stroke" x="-1.22" y="-1.18" transform="translate(188.77,121.17) rotate(1.0)" width="2.44" height="2.36" rx="0.70"/>
<ellipse fill="none" stroke-width="1.00" stroke="#f4f4f4" vector-effect="non-scaling-stroke" cx="0.00" cy="0.00" transform="translate(30.03,125.74) rotate(116.1)" rx="1.37" ry="1.28"/>
<rect fill="none" stroke-width="1.00" stroke="#f4f4f4" vector-effect="non-scaling-stroke" x="-1.27" y="-1.27" transform="translate(16.13,125.72) rotate(-22.9)" width="2.54" height="2.54" rx="1.08"/>
<circle fill="none" stroke-width="1.00" stroke="#f4f4f4" vector-effect="non-scaling-stroke" cx="20.76" cy="125.76" r="1.32"/>
<circle fill="none" stroke-width="1.00" stroke="#f4f4f4" vector-effect="non-scaling-stroke" cx="25.36" cy="125.72" r="1.34"/>
<circle fill="none" stroke-width="1.00" stroke="#f4f4f4" vector-effect="non-scaling-stroke" cx="34.70" cy="125.70" r="1.33"/>
<circle fill="none" stroke-width="1.00" stroke="#f4f4f4" vector-effect="non-scaling-stroke" cx="170.25" cy="125.75" r="1.32"/>
<path fill="none" stroke-width="1.00" stroke="#f4f4f4" vector-effect="non-scaling-stroke" d="
  M 173.69 125.19
  Q 174.49 123.95 175.71 124.65
  A 1.07 1.06 -79.0 0 1 176.23 125.43
  Q 176.44 127.18 174.23 127.02
  A 1.24 0.97 -68.3 0 1 173.69 125.19
  Z"
/>
<circle fill="none" stroke-width="1.00" stroke="#f4f4f4" vector-effect="non-scaling-stroke" cx="179.49" cy="125.74" r="1.32"/>
<circle fill="none" stroke-width="1.00" stroke="#f4f4f4" vector-effect="non-scaling-stroke" cx="184.19" cy="125.75" r="1.29"/>
<circle fill="none" stroke-width="1.00" stroke="#f4f4f4" vector-effect="non-scaling-stroke" cx="188.77" cy="125.73" r="1.34"/>
<circle fill="none" stroke-width="1.00" stroke="#f4f4f4" vector-effect="non-scaling-stroke" cx="20.75" cy="130.25" r="1.32"/>
<ellipse fill="none" stroke-width="1.00" stroke="#f4f4f4" vector-effect="non-scaling-stroke" cx="0.00" cy="0.00" transform="translate(25.35,130.31) rotate(13.5)" rx="1.40" ry="1.30"/>
<circle fill="none" stroke-width="1.00" stroke="#f4f4f4" vector-effect="non-scaling-stroke" cx="29.99" cy="130.26" r="1.31"/>
<circle fill="none" stroke-width="1.00" stroke="#f4f4f4" vector-effect="non-scaling-stroke" cx="174.87" cy="130.28" r="1.35"/>
<circle fill="none" stroke-width="1.00" stroke="#f4f4f4" vector-effect="non-scaling-stroke" cx="179.50" cy="130.28" r="1.34"/>
<circle fill="none" stroke-width="1.00" stroke="#f4f4f4" vector-effect="non-scaling-stroke" cx="184.15" cy="130.24" r="1.33"/>
</svg>
