<!DOCTYPE svg PUBLIC "-//W3C//DTD SVG 1.1//EN" "http://www.w3.org/Graphics/SVG/1.1/DTD/svg11.dtd">
<!-- Uploaded to: SVG Repo, www.svgrepo.com, Transformed by: SVG Repo Mixer Tools -->
<svg fill="#ffffff" width="800px" height="800px" viewBox="0 0 512 512" version="1.1" xml:space="preserve" xmlns="http://www.w3.org/2000/svg" xmlns:xlink="http://www.w3.org/1999/xlink" stroke="#ffffff">
<g id="SVGRepo_bgCarrier" stroke-width="0"/>
<g id="SVGRepo_tracerCarrier" stroke-linecap="round" stroke-linejoin="round"/>
<g id="SVGRepo_iconCarrier"> <g id="_x30_1_x2C__Camera_x2C__frame_x2C__lense_x2C__photo_x2C__photography"> <g id="XMLID_858_"> <g id="XMLID_288_"> <path d="M256,483.702C130.444,483.702,28.297,381.556,28.297,256S130.444,28.297,256,28.297 S483.702,130.444,483.702,256S381.556,483.702,256,483.702z M256,38.297C135.958,38.297,38.297,135.958,38.297,256 c0,120.041,97.661,217.702,217.703,217.702c120.041,0,217.702-97.661,217.702-217.702C473.702,135.958,376.041,38.297,256,38.297 z" id="XMLID_843_"/> </g> <g id="XMLID_274_"> <path d="M256,302.765c-25.786,0-46.765-20.979-46.765-46.765s20.979-46.765,46.765-46.765 s46.765,20.979,46.765,46.765S281.786,302.765,256,302.765z M256,219.235c-20.272,0-36.765,16.493-36.765,36.765 c0,20.272,16.493,36.765,36.765,36.765c20.272,0,36.765-16.492,36.765-36.765C292.765,235.728,276.272,219.235,256,219.235z" id="XMLID_840_"/> </g> <g id="XMLID_273_"> <path d="M285.449,370.84c-0.217,0-0.435-0.014-0.652-0.043l-86.3-11.35c-1.315-0.173-2.507-0.86-3.314-1.913 l-52.989-69.041c-0.808-1.052-1.164-2.381-0.991-3.696l11.35-86.3c0.173-1.315,0.861-2.507,1.913-3.314l69.076-52.991 c1.051-0.806,2.381-1.162,3.694-0.99l86.301,11.35c1.315,0.173,2.509,0.862,3.316,1.916l52.954,69.074 c0.807,1.052,1.162,2.38,0.989,3.694l-11.35,86.301c-0.173,1.315-0.862,2.509-1.915,3.316l-34.521,26.461l-34.519,26.492 C287.615,370.48,286.544,370.84,285.449,370.84z M201.854,349.803l82.193,10.81l32.878-25.233l32.877-25.201l10.81-82.194 l-50.435-65.787l-82.194-10.81l-65.787,50.468l-10.81,82.193L201.854,349.803z" id="XMLID_837_"/> </g> <g id="XMLID_272_"> <path d="M365.84,231.584c-2.762,0-5-2.239-5-5V63.251c0-2.761,2.238-5,5-5s5,2.239,5,5v163.333 C370.84,229.345,368.602,231.584,365.84,231.584z" id="XMLID_836_"/> </g> <g id="XMLID_271_"> <path d="M354.49,317.885c-1.279,0-2.56-0.488-3.535-1.465c-1.953-1.952-1.953-5.118,0-7.07l115.481-115.482 c1.951-1.952,5.119-1.952,7.07,0c1.953,1.953,1.953,5.119,0,7.071L358.025,316.42C357.05,317.396,355.77,317.885,354.49,317.885z " id="XMLID_835_"/> </g> <g id="XMLID_270_"> <path d="M448.749,370.84h-163.3c-2.762,0-5-2.238-5-5s2.238-5,5-5h163.3c2.762,0,5,2.238,5,5 S451.511,370.84,448.749,370.84z" id="XMLID_834_"/> </g> <g id="XMLID_269_"> <path d="M314.631,474.972c-1.279,0-2.56-0.488-3.535-1.465L195.613,358.025c-1.953-1.952-1.953-5.118,0-7.07 c1.953-1.953,5.118-1.953,7.071,0l115.481,115.481c1.953,1.952,1.953,5.118,0,7.07 C317.19,474.483,315.91,474.972,314.631,474.972z" id="XMLID_833_"/> </g> <g id="XMLID_268_"> <path d="M146.16,453.749c-2.761,0-5-2.238-5-5v-163.3c0-2.762,2.239-5,5-5s5,2.238,5,5v163.3 C151.16,451.511,148.921,453.749,146.16,453.749z" id="XMLID_832_"/> </g> <g id="XMLID_267_"> <path d="M42.028,319.631c-1.28,0-2.559-0.488-3.536-1.465c-1.953-1.952-1.953-5.118,0-7.07l115.481-115.482 c1.953-1.952,5.118-1.952,7.071,0c1.953,1.953,1.953,5.119,0,7.071L45.564,318.166C44.587,319.143,43.308,319.631,42.028,319.631 z" id="XMLID_831_"/> </g> <g id="XMLID_266_"> <path d="M226.584,151.16H63.251c-2.761,0-5-2.239-5-5s2.239-5,5-5h163.333c2.761,0,5,2.239,5,5 S229.345,151.16,226.584,151.16z" id="XMLID_830_"/> </g> <g id="XMLID_265_"> <path d="M312.885,162.51c-1.279,0-2.56-0.488-3.535-1.464L193.867,45.564c-1.953-1.953-1.953-5.119,0-7.071 c1.953-1.952,5.118-1.952,7.071,0L316.42,153.974c1.953,1.953,1.953,5.119,0,7.071 C315.444,162.021,314.164,162.51,312.885,162.51z" id="XMLID_829_"/> </g> </g> </g> <g id="Layer_1"/> </g>
</svg>