<?xml version="1.0" encoding="UTF-8" standalone="no"?>
<svg xmlns="http://www.w3.org/2000/svg" version="1.2" baseProfile="tiny" viewBox="0 0 480 480">
<path fill="none" stroke-width="1.00" stroke="#f4f4f4" vector-effect="non-scaling-stroke" d="
  M 0.00 0.00
  L 184.81 0.00
  Q 185.05 32.09 209.60 48.35
  C 228.65 60.95 253.16 60.62 271.75 47.27
  Q 294.71 30.78 295.06 0.00
  L 480.00 0.00
  L 480.00 480.00
  L 0.00 480.00
  L 0.00 0.00
  Z"
/>
<circle fill="none" stroke-width="1.00" stroke="#f4f4f4" vector-effect="non-scaling-stroke" cx="388.03" cy="264.94" r="40.05"/>
<path fill="none" stroke-width="1.00" stroke="#f4f4f4" vector-effect="non-scaling-stroke" d="
  M 108.44 284.94
  L 108.58 231.71
  A 0.51 0.50 -0.0 0 1 109.09 231.21
  L 152.71 231.28
  A 0.50 0.49 -90.0 0 1 153.20 231.78
  L 153.24 284.79
  A 0.70 0.70 0.0 0 0 153.94 285.49
  L 206.15 285.46
  A 0.51 0.50 89.4 0 1 206.65 285.96
  L 206.71 329.25
  A 0.80 0.78 -0.7 0 1 205.92 330.04
  L 153.71 330.10
  A 0.51 0.51 0.0 0 0 153.20 330.61
  L 153.23 386.93
  A 0.31 0.30 -0.0 0 1 152.92 387.23
  L 109.02 387.21
  A 0.50 0.50 0.0 0 1 108.52 386.71
  L 108.47 330.53
  A 0.50 0.50 0.0 0 0 107.97 330.03
  L 51.00 330.01
  A 0.48 0.48 -89.7 0 1 50.52 329.53
  L 50.54 286.01
  A 0.50 0.49 -0.0 0 1 51.04 285.52
  L 107.93 285.44
  A 0.51 0.50 -0.0 0 0 108.44 284.94
  Z"
/>
<circle fill="none" stroke-width="1.00" stroke="#f4f4f4" vector-effect="non-scaling-stroke" cx="314.61" cy="352.52" r="40.05"/>
</svg>
